<svg width="128" height="116" viewBox="0 0 128 116" fill="none" xmlns="http://www.w3.org/2000/svg">
<g id="Owned-Dogs 1" clip-path="url(#clip0_3499_1223)">
<g id="Layer 1">
<g id="Group">
<path id="Vector" d="M37.4977 56.1447C42.0963 55.4747 46.7384 54.8046 51.3743 55.1523C53.8135 55.3356 56.3337 55.8476 58.2627 57.3837C58.7917 57.8072 59.277 58.3066 59.5508 58.9324C60.0424 60.0386 59.8184 61.3218 59.5571 62.5038C57.4974 71.9224 53.9131 80.9933 48.9848 89.2361C48.8665 89.4321 48.7359 89.6407 48.5305 89.7481C48.2754 89.8746 47.9705 89.8177 47.6967 89.7481C43.4342 88.6925 39.3272 87.0111 35.5376 84.767C36.1288 83.0793 36.3714 81.1324 35.5625 79.5331C34.1437 76.7328 30.2546 76.2145 28.394 73.6987C26.7139 71.4293 27.1619 68.1739 28.3318 65.6012C30.0803 61.7516 33.2912 58.61 37.1368 56.9728L37.4977 56.1447Z" fill="#283980"/>
<path id="Vector_2" d="M117.496 108.661C120.838 105.5 123.128 101.278 124.31 96.8025C125.492 92.3208 125.604 87.5926 124.982 82.9971C128.803 88.4523 128.709 95.9871 126.295 102.22C125.411 104.502 124.217 106.708 122.456 108.383C120.695 110.058 118.311 111.164 115.903 110.987L117.496 108.667V108.661Z" fill="#7F4A28"/>
<path id="Vector_3" d="M44.6787 19.2164C43.652 19.5135 42.5257 19.6273 41.5238 19.248C40.522 18.8687 39.6757 17.9205 39.6632 16.8333C39.6446 15.2214 41.2438 14.1658 42.2083 12.8889C43.1293 11.6689 43.5088 10.1202 44.2805 8.79275C45.0521 7.47162 46.5144 6.30853 47.9705 6.7194C49.0346 7.02282 49.7191 8.04685 50.248 9.02664C50.6338 9.73461 50.9885 10.4679 51.1752 11.2517C51.5859 12.9837 51.1192 14.8232 50.36 16.4287C49.8622 17.4781 49.2275 18.4894 48.3376 19.229C47.4478 19.9686 46.2779 20.4111 45.1454 20.2404L44.6787 19.2164Z" fill="#010101"/>
<path id="Vector_4" d="M16.0792 84.3118C14.0381 85.222 12.1402 86.4546 10.4663 87.9464C10.3294 88.0665 10.1925 88.1993 10.1303 88.37C10.0619 88.5849 10.1303 88.8188 10.1925 89.0337C10.653 90.5128 11.1633 92.0173 12.134 93.212C13.1856 94.5142 14.7662 95.3675 16.4214 95.5255C16.8446 95.5635 17.2926 95.5571 17.6784 95.3802C18.0331 95.2158 18.3069 94.9124 18.5807 94.6279C19.875 93.3005 21.3995 92.2006 23.0672 91.3978C21.3435 89.0463 19.6199 86.7012 17.8962 84.3497L16.0854 84.3118H16.0792Z" fill="#C2C1C0"/>
<path id="Vector_5" d="M10.3857 91.7139C12.5138 89.4636 14.7727 87.3523 17.1497 85.3801C17.8342 84.8175 18.5249 84.2676 19.2219 83.7239C19.477 83.528 19.2219 83.0792 18.9667 83.2815C16.4901 85.1841 14.1317 87.2322 11.904 89.4256C11.2693 90.0514 10.6408 90.6962 10.0248 91.341C9.80075 91.5812 10.1554 91.9415 10.3795 91.7013L10.3857 91.7139Z" fill="#F0EFEF"/>
<path id="Vector_6" d="M10.9642 93.155C12.9928 91.0248 15.1769 89.0463 17.5042 87.251C18.17 86.739 18.8483 86.2397 19.5328 85.7592C19.8003 85.5696 19.5452 85.1271 19.2776 85.3168C16.8508 87.0235 14.5546 88.9135 12.4141 90.9742C11.798 91.5684 11.1944 92.1752 10.6095 92.7947C10.3855 93.0349 10.7402 93.3952 10.9642 93.155Z" fill="#F0EFEF"/>
<path id="Vector_7" d="M12.576 95.0831C14.9157 92.2448 17.5043 89.6279 20.3107 87.2638C21.1134 86.5874 21.9286 85.9363 22.7687 85.3042C23.0238 85.1082 22.7749 84.6658 22.5135 84.8617C19.5516 87.0994 16.7949 89.6026 14.281 92.3523C13.5778 93.1235 12.8871 93.9136 12.2213 94.7228C12.0159 94.9756 12.3706 95.3422 12.576 95.0831Z" fill="#F0EFEF"/>
<path id="Vector_8" d="M13.9885 96.0565C16.2224 94.3372 18.4564 92.6178 20.6903 90.8985C21.325 90.4117 21.9597 89.925 22.5882 89.4319C22.8433 89.236 22.5882 88.7872 22.3331 88.9895C20.0991 90.7088 17.8652 92.4282 15.6313 94.1475C14.9966 94.6343 14.3619 95.121 13.7334 95.6141C13.4782 95.81 13.7334 96.2588 13.9885 96.0565Z" fill="#F0EFEF"/>
<path id="Vector_9" d="M8.80497 87.9971C9.45834 87.6431 10.2984 87.8074 10.8896 88.2562C11.7981 88.9452 12.1403 90.1336 12.551 91.2082C12.9617 92.2828 13.6275 93.4207 14.7352 93.6545C15.7121 93.8631 16.7326 93.2816 17.7096 93.5155C18.9292 93.8126 19.5142 95.2285 19.7008 96.4864C19.8875 97.7443 19.8937 99.1287 20.6653 100.134C21.4805 101.202 22.8993 101.524 24.1127 102.081C25.3261 102.637 26.5333 103.857 26.1599 105.153C25.8301 106.291 24.5047 106.746 23.3598 106.973C20.8831 107.466 18.2883 107.694 15.8615 106.986C13.4346 106.278 11.2069 104.483 10.5162 102.017C10.23 100.981 10.1491 99.7482 9.29033 99.116C8.86097 99.47 8.42538 99.824 7.99602 100.178C6.2039 99.0655 4.72291 97.4472 3.76462 95.5572C3.57171 95.1843 7.69733 89.5142 7.69733 89.5142L8.80497 87.9971Z" fill="#010101"/>
<path id="Vector_10" d="M26.4026 94.9378C26.0292 96.4486 25.9172 98.0226 26.079 99.5712C26.1101 99.8557 26.1599 100.165 26.3777 100.355C26.5955 100.538 26.9066 100.545 27.1867 100.532C28.9041 100.481 30.6153 100.431 32.3328 100.387C32.6688 100.374 33.0297 100.355 33.2911 100.146C33.7951 99.7419 33.7267 98.8001 34.3116 98.5409C35.0148 98.2312 35.5375 99.2046 36.1224 99.6977C36.6326 100.134 37.3482 100.229 38.0141 100.286C42.177 100.646 46.396 100.412 50.4967 99.5902C50.7332 99.5396 50.9821 99.4891 51.175 99.3437C51.511 99.0908 51.6106 98.6104 51.5795 98.1869C51.4612 96.6129 49.9678 95.4751 48.4619 95.0642C46.9622 94.647 45.363 94.7292 43.8447 94.3879C41.8472 93.9391 40.024 92.7317 38.8044 91.0629C38.4434 90.5636 38.1012 90.001 37.5412 89.7608C36.4211 89.274 35.2823 90.2981 34.2431 90.9492C32.2394 92.1944 29.7255 92.0996 27.3733 91.9732C27.0684 91.9542 26.7324 91.9479 26.4897 92.1375C26.3155 92.2703 26.2159 92.4789 26.135 92.6812C25.7741 93.5472 25.5252 94.4637 25.3945 95.3929L26.4026 94.9505V94.9378Z" fill="#010101"/>
<path id="Vector_11" d="M41.1318 30.0317C44.0813 31.612 45.5312 35.0318 46.5704 38.2493C47.6096 41.4668 48.5741 44.9308 51.0694 47.1748C51.3432 47.4213 51.6481 47.6678 51.785 48.0092C51.9219 48.3505 51.8721 48.7298 51.8285 49.0964C51.4552 51.9093 51.0818 54.7223 50.7085 57.5352C47.1864 57.965 43.6084 56.3784 41.0696 53.8626C38.5245 51.3468 36.9191 47.9965 35.8923 44.5452L41.138 30.0317H41.1318Z" fill="#532813"/>
<path id="Vector_12" d="M99.5188 99.0275C98.0378 100.14 97.067 101.916 96.9115 103.781C96.7621 105.646 97.4342 107.561 98.716 108.901C96.9799 108.901 95.25 109.053 93.545 109.363C93.2837 109.413 93.0036 109.47 92.8232 109.666C92.4872 110.026 92.6614 110.633 92.985 111C93.6881 111.796 94.8518 111.935 95.9034 112.018C98.604 112.226 101.305 112.441 104.005 112.65C104.217 112.669 104.441 112.681 104.646 112.631C105.368 112.447 105.648 111.556 105.717 110.804C106.077 106.638 103.713 102.58 104.167 98.427L99.5188 99.0275Z" fill="#B29587"/>
<path id="Vector_13" d="M90.5209 90.0198C90.216 95.4939 89.3262 100.936 87.8701 106.215C87.7954 106.486 87.7021 106.777 87.4719 106.935C87.2541 107.087 86.9678 107.068 86.7002 107.087C85.7544 107.138 84.8459 107.675 84.3356 108.49C84.0618 108.92 83.9125 109.508 84.1863 109.938C84.3979 110.273 84.8085 110.412 85.1881 110.507C86.3331 110.791 87.5216 110.873 88.6915 110.741C89.2017 110.684 89.7182 110.583 90.1414 110.292C90.7387 109.887 91.0561 109.186 91.3361 108.516C93.6696 102.972 95.4742 97.2006 96.7187 91.3093L90.5147 90.0198H90.5209Z" fill="#B29587"/>
<path id="Vector_14" d="M89.5936 58.098C90.0043 56.2838 90.2408 54.4254 90.3092 52.5669C90.3155 52.3394 90.3217 52.1055 90.2408 51.8906C90.1412 51.6377 89.9359 51.4418 89.7181 51.2774C88.4922 50.3419 86.9241 50.0195 85.4182 49.7287C83.8315 49.419 82.2447 49.1156 80.6579 48.8058C80.2783 48.73 79.793 48.7047 79.5938 49.046C79.5192 49.1725 79.5129 49.3242 79.5129 49.4696C79.5441 50.4114 80.1725 51.2079 80.7824 51.9222C81.7407 53.0347 82.7301 54.1346 83.9124 54.9879C85.0947 55.8476 86.4948 56.4545 87.9509 56.4734C88.0878 57.3457 88.6851 58.1296 89.4816 58.4836L89.5874 58.098H89.5936Z" fill="#532813"/>
<path id="Vector_15" d="M64.1182 17.1493C62.7865 20.0254 59.0965 24.8801 59.0965 24.8801L61.2495 28.1734L57.4537 27.2948C57.4537 27.2948 55.5185 30.0698 54.249 31.1317C52.9796 32.1937 51.007 32.5793 49.7065 31.5616C48.5366 30.645 47.0992 27.9648 47.0992 27.9648C47.0992 27.9648 43.5772 30.0255 41.7104 30.8409C39.7938 27.5729 38.0701 24.899 36.1536 21.6247C39.3893 19.9495 42.6251 18.2681 45.8609 16.593C44.6226 16.6941 43.2972 14.8673 43.3594 13.6094C43.4216 12.3515 44.5293 11.2769 45.7613 11.1378C46.9934 10.9987 48.2442 11.6941 48.9162 12.7497C49.9492 10.5879 51.424 8.64727 53.2223 7.08594C56.3212 10.2402 61.1064 13.995 64.2053 17.1493H64.112H64.1182Z" fill="#D0845B"/>
<path id="Vector_16" d="M46.1782 55.5442C47.7214 57.9147 51.0878 58.3824 53.7511 57.4975C56.4144 56.6125 58.5986 54.7098 60.901 53.0853C61.7473 52.4911 62.6122 51.9285 63.4958 51.3975C63.9003 51.1573 64.3234 50.9171 64.7901 50.8476C65.3813 50.7591 65.9787 50.9487 66.576 51.0056C68.8473 51.2079 71.0252 49.0271 70.851 46.7135C71.94 46.2268 73.0227 45.7401 74.1117 45.2533C74.4601 45.0953 74.6966 44.735 74.6593 44.3494C74.597 43.673 73.813 43.5909 73.2156 43.6351C71.3177 43.7679 69.4198 43.9006 67.5219 44.0333C66.9618 44.0713 66.3645 44.1282 65.9289 44.4822C65.568 44.7792 65.3751 45.2344 65.039 45.5568C64.5537 46.0245 63.8567 46.1446 63.1971 46.2521C58.8786 46.9411 54.5601 47.6364 50.2478 48.3254C49.6878 48.4139 49.0966 48.5151 48.6548 48.8817C48.2192 49.242 48.0014 49.7983 47.7961 50.3356L46.0164 55.0385C45.9479 55.2282 46.0164 55.4368 46.1782 55.5442Z" fill="#D0845B"/>
<path id="Vector_17" d="M67.024 44.5895C68.7975 43.3063 70.6456 41.9978 72.7924 41.6059C73.0476 41.5616 73.3151 41.53 73.5578 41.6059C73.8005 41.688 73.9934 41.865 74.1677 42.0483C74.8895 42.7942 75.462 43.6918 75.8478 44.659C75.9473 44.9055 76.0345 45.1836 75.9411 45.4302C75.7607 45.9106 75.0513 45.9169 74.6344 45.6198C74.2174 45.329 73.9499 44.8549 73.5329 44.5578C72.5 45.8474 70.8634 46.6122 69.2269 46.5743L67.0178 44.5831L67.024 44.5895Z" fill="#D0845B"/>
<path id="Vector_18" d="M74.4166 42.3076C74.9704 41.8399 75.8976 42.1875 76.2212 42.8386C76.5448 43.4897 76.3954 44.2925 76.0781 44.9436C76.3208 44.5706 76.9741 44.7792 77.1048 45.209C77.2355 45.6389 76.9928 46.094 76.6692 46.4038C77.1733 46.5365 77.4097 47.2002 77.2106 47.6869C77.0115 48.1737 76.4825 48.4581 75.9661 48.5087C75.574 48.5403 75.182 48.4581 74.79 48.4455C74.1926 48.4202 73.5952 48.5529 73.0103 48.6857C72.0956 48.888 71.1871 49.0902 70.2723 49.2988C69.8803 49.3873 69.4634 49.4695 69.09 49.3241C68.5487 49.1092 68.2935 48.4455 68.362 47.8576C68.4304 47.2697 68.7416 46.7514 69.0651 46.2647C69.5443 45.5441 70.0608 44.8298 70.7453 44.3051C71.4297 43.7805 72.2947 43.4518 73.141 43.5845L74.4166 42.3139V42.3076Z" fill="#D0845B"/>
<path id="Vector_19" d="M91.6721 58.4075C89.5875 56.4985 86.333 56.0434 83.8129 57.3077C82.7114 57.8576 81.7656 58.6983 80.6269 59.1661C78.3307 60.1143 75.711 59.4063 73.2468 59.6465C73.1037 59.6591 72.9668 59.6844 72.8361 59.735C71.5667 60.2154 72.0645 61.8842 72.861 62.7755C74.8896 65.0448 77.976 65.955 80.9069 66.6883C82.2385 67.0233 83.6573 67.3963 84.5845 68.4203C85.0823 68.9766 85.3934 69.6719 85.661 70.3735C87.1109 74.2105 87.4158 78.3762 87.9945 82.447C88.5732 86.5178 89.5066 90.6961 91.977 93.9516C94.2607 96.9668 97.6832 98.92 101.249 100.077C99.4255 101.467 99.0646 104.205 99.7926 106.398C100.521 108.591 102.101 110.361 103.638 112.068C101.908 112.176 100.185 112.283 98.4548 112.39C97.6271 112.441 96.7498 112.504 96.1213 113.143C95.7977 113.471 95.6359 113.945 95.7479 114.401C95.9781 115.298 97.0671 115.475 97.9507 115.513C101.958 115.671 105.959 115.829 109.967 115.981C111.373 116.038 112.922 116.044 114.011 115.134C114.379 114.824 114.671 114.432 114.951 114.04C115.692 113.016 116.438 111.999 117.179 110.974C118.037 109.792 118.909 108.591 119.419 107.22C120.078 105.45 120.097 103.497 119.898 101.619C119.363 96.5812 117.334 91.834 115.026 87.3396C113.794 84.9312 112.456 82.5481 110.676 80.5254C109.351 79.0209 107.801 77.744 106.32 76.3976C101.267 71.8211 96.9427 66.4228 93.5451 60.4746C93.0784 59.6528 92.4375 58.9512 91.6721 58.4075Z" fill="#D8BBAB"/>
<path id="Vector_20" d="M90.1661 73.5215C89.2825 75.3357 88.2682 77.0803 87.1295 78.7365C85.972 77.6682 84.8146 76.5936 83.6572 75.5253C82.0393 74.0335 80.3592 72.4975 78.2871 71.7958C76.2149 71.1005 73.6201 71.4671 72.3258 73.256C72.0955 73.5784 71.9088 74.0019 72.0769 74.3559C72.1702 74.5582 72.3631 74.6973 72.5684 74.7984C73.6387 75.3294 74.9019 74.9375 76.0842 74.9817C78.368 75.0702 80.2783 76.8022 81.5913 78.7049C82.9043 80.6076 83.8563 82.7757 85.3996 84.4824C86.3703 85.557 87.7019 86.4673 89.1269 86.3156C90.6826 86.1512 91.8276 84.8111 92.8045 83.5659C93.5886 82.5671 94.3788 81.5621 95.1629 80.5633C95.418 80.2409 95.6732 79.9059 95.7478 79.5013C95.8287 79.0399 95.6545 78.5785 95.4616 78.1486C94.6278 76.3281 93.3708 74.7099 91.8151 73.4709L90.1661 73.5152V73.5215Z" fill="#D8BBAB"/>
<path id="Vector_21" d="M90.2161 59.4632C92.1451 57.6427 94.2359 55.9929 96.4512 54.539C96.7187 54.362 97.0112 54.185 97.3286 54.1724C97.7019 54.1597 98.0442 54.381 98.3553 54.6022C100.782 56.3532 102.836 58.6351 104.335 61.2458C103.806 61.9474 102.935 62.3267 102.07 62.4089C101.205 62.4911 100.334 62.3078 99.5003 62.0549C97.6086 61.4797 95.8227 60.5378 94.2795 59.2862C94.0617 59.1156 93.8377 58.9259 93.5639 58.888C93.3087 58.8501 93.0598 58.9449 92.8234 59.0334C92.0455 59.3368 91.2615 59.6339 90.4836 59.9373L90.2223 59.4569L90.2161 59.4632Z" fill="#7F4A28"/>
<path id="Vector_22" d="M1.87292 65.0323C2.37073 68.509 2.04716 72.3712 4.12552 75.1841C5.34516 76.8276 7.21196 77.839 9.0912 78.6102C12.5261 80.0262 16.1975 80.8416 19.9 81.0123C18.3878 82.2323 16.8757 83.4459 15.3636 84.6659C17.7842 89.0402 20.5907 93.1995 23.7331 97.0744C23.9011 97.283 24.0878 97.4979 24.3491 97.5422C24.5981 97.5864 24.8345 97.46 25.0523 97.3336C32.2457 93.3006 39.4329 89.2614 46.6263 85.2285C48.2504 84.3182 49.8931 83.389 51.2186 82.0742C53.1911 80.121 54.3486 77.3397 54.3548 74.5394C54.3548 73.8377 54.2863 73.1234 54.0312 72.466C53.6143 71.4041 52.7556 70.5886 51.8471 69.9059C48.0077 67.0298 43.0856 65.9995 39.1777 63.2181C37.6781 62.1499 36.3526 60.8414 34.8717 59.7478C33.2475 58.5468 31.4554 57.6113 29.6384 56.7326C29.153 56.4987 28.649 56.2648 28.1139 56.2269C27.3298 56.1763 26.5893 56.5619 25.8675 56.8843C22.9428 58.1991 19.7195 58.629 16.6082 59.4001C12.719 60.361 8.97919 61.8591 5.25182 63.3509C4.87846 63.5026 4.51133 63.648 4.13797 63.7997L1.8667 65.0197L1.87292 65.0323Z" fill="#4D6EB5"/>
<path id="Vector_23" d="M41.642 62.51C47.3669 63.888 53.0855 65.2597 58.8103 66.6377C61.1376 67.1939 63.4773 67.7565 65.8606 67.8956C68.0696 68.022 70.2974 67.7881 72.5002 68.0283C74.703 68.2686 76.9743 69.0713 78.3433 70.8413C77.441 72.0739 75.1697 70.9171 73.5891 70.9614C73.8816 72.5922 77.1609 72.2699 77.1361 73.926C77.1236 74.811 75.96 75.2598 75.1448 74.9437C75.1572 74.9753 75.1697 75.0006 75.1884 75.0322C75.6302 75.9298 74.7092 76.9475 73.8194 76.5177C73.782 76.4987 73.7447 76.4798 73.7074 76.4608C73.7758 77.39 72.5064 78.0727 71.7908 77.4912C71.7846 78.1738 70.8574 78.3761 70.1853 78.2687C67.3292 77.8135 64.9334 75.8413 62.1581 74.9943C58.8352 73.9829 55.2821 74.6593 51.8161 74.8299C47.0433 75.0701 42.2207 74.3116 37.7404 72.6238C37.1244 72.39 36.4399 72.0676 36.247 71.4228C36.079 70.8602 36.3652 70.266 36.6515 69.754C38.008 67.352 39.657 65.1206 41.5425 63.1231L41.6358 62.4973L41.642 62.51Z" fill="#D0845B"/>
<path id="Vector_24" d="M38.9227 19.4124C40.2792 20.5628 39.7254 23.4516 40.6588 24.975C41.9469 27.0926 43.2474 29.2291 44.0813 31.568C46.1596 37.4151 45.0769 44.1029 42.1585 49.5707C41.8038 50.2408 41.4118 50.9108 41.2624 51.6567C41.1068 52.4216 41.2064 53.2117 41.3309 53.9766C41.7851 56.8274 42.5256 59.6277 43.5275 62.3332C43.6457 62.6429 43.7639 62.9653 43.739 63.3003C43.7141 63.6353 43.5461 63.9388 43.3781 64.2295C42.1958 66.2902 41.0197 68.3446 39.8374 70.4053C39.3396 71.2713 38.7796 72.2005 37.8711 72.5861C36.5021 73.174 34.9277 72.289 33.9321 71.1702C31.6484 68.5975 31.1195 64.9438 30.0181 61.6694C29.9434 61.4545 29.8563 61.2206 29.6634 61.1069C29.4207 60.9615 29.1096 61.0563 28.842 61.1448C24.9155 62.5228 20.7961 63.3446 16.6518 63.5784C13.4223 63.7554 10.1305 63.5911 7.0067 64.4634C5.56926 64.868 4.18161 65.4938 2.70062 65.7087C2.20903 65.7782 1.66144 65.7909 1.26941 65.4811C1.01428 65.2788 0.864938 64.9628 0.746707 64.653C-0.118241 62.4659 -0.236472 59.9817 0.423129 57.725C1.28808 54.773 3.37889 52.352 5.61282 50.2724C6.51511 49.4316 7.46717 48.6036 8.07077 47.5163C8.71171 46.3532 8.89839 44.9942 9.23441 43.7047C10.8461 37.5794 15.9487 33.1546 20.7837 29.1407C24.7662 25.8347 28.9353 22.4339 33.9508 21.2645L38.9289 19.4124H38.9227Z" fill="#7F4A28"/>
<path id="Vector_25" d="M19.2715 82.0931C22.3143 79.7669 25.4132 77.5102 28.5557 75.3231C29.4455 74.7036 30.3416 74.0905 31.2376 73.4836C31.5052 73.3003 31.2563 72.8578 30.9825 73.0412C27.8152 75.1904 24.6914 77.4091 21.6174 79.6974C20.7462 80.3421 19.8813 80.9995 19.0163 81.6569C18.7612 81.8529 19.0163 82.3017 19.2715 82.0994V82.0931Z" fill="#1F203A"/>
<path id="Vector_26" d="M28.3068 72.3838C28.1388 73.3699 27.8152 74.3244 27.336 75.2031C27.1805 75.4939 27.616 75.753 27.7716 75.4623C28.2694 74.5457 28.6179 73.5533 28.7921 72.5229C28.817 72.3838 28.7548 72.2448 28.6179 72.2068C28.4934 72.1752 28.3317 72.2511 28.3068 72.3838Z" fill="#1F203A"/>
<path id="Vector_27" d="M19.844 82.0109C20.0805 81.796 20.5285 82.5292 20.6219 82.662C20.9206 83.0918 21.2255 83.5153 21.5242 83.9452C22.1278 84.7985 22.7314 85.6582 23.3287 86.5116C24.5173 88.1993 25.7058 89.8871 26.8943 91.5812C27.5788 92.5546 28.2633 93.5218 28.9416 94.4952C29.1282 94.7607 29.5701 94.5079 29.3771 94.2361C26.8072 90.5824 24.2372 86.9225 21.6611 83.2688C21.4806 83.016 21.3001 82.7568 21.1259 82.504C20.9703 82.2827 20.8272 82.0425 20.6405 81.8529C20.3294 81.5305 19.8565 81.3029 19.4831 81.6506C19.2404 81.8718 19.6014 82.2385 19.8378 82.0109H19.844Z" fill="#1F203A"/>
<path id="Vector_28" d="M2.67562 69.7036C4.5362 68.7238 6.40299 67.7504 8.26357 66.7706C8.16401 66.758 8.05822 66.7453 7.95866 66.7327C9.30275 68.4078 10.6468 70.0829 11.9909 71.758C12.5945 72.5102 13.2977 73.2498 13.7395 74.1221C14.1378 74.8996 14.1378 75.753 13.7582 76.5368C13.3288 77.4091 12.6194 78.0982 11.9163 78.7429C11.6736 78.9642 12.0345 79.3308 12.271 79.1032C13.5217 77.9464 14.9903 76.3788 14.4364 74.5014C14.1502 73.5406 13.4595 72.7757 12.8497 72.0172L10.7402 69.3876C9.93124 68.3825 9.12229 67.3711 8.31335 66.366C8.23868 66.2775 8.10178 66.2775 8.00844 66.3281C6.14787 67.3079 4.28107 68.2814 2.4205 69.2611C2.13425 69.4129 2.38938 69.8553 2.67562 69.7036Z" fill="#1F203A"/>
<path id="Vector_29" d="M3.87668 72.9842C5.74347 71.5619 7.61027 70.146 9.47084 68.7237C9.72597 68.5277 9.47084 68.0789 9.21571 68.2812C7.34892 69.7035 5.48212 71.1194 3.62155 72.5417C3.36642 72.7376 3.62155 73.1864 3.87668 72.9842Z" fill="#1F203A"/>
<path id="Vector_30" d="M28.5682 86.9035C31.4058 84.6405 34.1748 82.2827 36.863 79.8364C37.6284 79.141 38.3813 78.4394 39.1281 77.7314C39.3645 77.5039 39.0098 77.1436 38.7734 77.3711C36.1287 79.868 33.4094 82.2764 30.6092 84.5962C29.819 85.2536 29.0163 85.9047 28.2135 86.5432C27.9584 86.7454 28.3193 87.1057 28.5682 86.9035Z" fill="#1F203A"/>
<path id="Vector_31" d="M16.0481 71.0753C18.4749 70.892 20.8956 70.7023 23.3224 70.519C23.646 70.4937 23.646 69.9817 23.3224 70.007C20.8956 70.1903 18.4749 70.38 16.0481 70.5633C15.7245 70.5886 15.7245 71.1006 16.0481 71.0753Z" fill="#1F203A"/>
<path id="Vector_32" d="M48.7296 11.9279C48.014 13.2111 47.3046 14.4943 46.589 15.7775C46.6077 16.4286 47.4851 16.7383 48.0638 16.4602C48.6425 16.182 48.9785 15.5689 49.2896 15.0063C50.3039 13.2048 51.5236 11.5233 52.9299 10.0126C53.2472 9.67121 53.6019 9.32987 54.05 9.24769C54.9087 9.10231 55.6056 9.99992 55.8296 10.8596C56.0537 11.7193 56.035 12.6611 56.4955 13.4134C57.3604 14.8293 59.445 14.8925 60.5464 16.1188C60.9882 16.6119 62.3448 18.0089 62.8488 18.4387C63.5333 19.0202 64.5227 19.0582 65.3939 18.8559C67.1362 18.445 68.667 17.0986 69.2084 15.3666C69.7497 13.6346 69.2146 11.5739 67.8331 10.4171C66.9931 9.71546 65.929 9.3678 64.9832 8.8305C63.8755 8.2047 61.8221 6.57383 61.1127 5.51188C60.3846 4.41831 59.893 3.12879 58.9161 2.25647C57.8085 1.26404 56.2652 0.98591 54.8091 0.764669C53.7015 0.593997 52.5565 0.435967 51.4738 0.733063C49.6692 1.23244 48.4371 2.87594 47.3419 4.41199C45.6992 6.71922 44.0004 9.18448 43.7764 12.029C44.5915 11.5865 45.444 11.1377 46.365 11.1061C47.2859 11.0745 48.3002 11.6055 48.5118 12.5157L48.7358 11.9279H48.7296Z" fill="#010101"/>
<path id="Vector_33" d="M72.9667 73.8882C73.6326 74.6468 74.5535 75.1651 75.5429 75.3358C75.6798 75.3611 75.8167 75.2979 75.854 75.1588C75.8852 75.0387 75.8105 74.868 75.6798 74.8427C74.7713 74.691 73.9437 74.2296 73.3276 73.5279C73.1099 73.2814 72.7552 73.6417 72.973 73.8882H72.9667Z" fill="#7F4A28"/>
<path id="Vector_34" d="M71.66 75.4938C72.3072 76.2334 73.2468 76.6759 74.2175 76.7138C74.5411 76.7265 74.5411 76.2145 74.2175 76.2018C73.3712 76.1639 72.5747 75.7657 72.0147 75.1272C71.9214 75.0261 71.7471 75.0324 71.66 75.1272C71.5604 75.2284 71.5667 75.3864 71.66 75.4875V75.4938Z" fill="#7F4A28"/>
<path id="Vector_35" d="M70.235 76.4231C70.6831 77.0931 71.3987 77.5735 72.189 77.6873C72.3259 77.7063 72.4628 77.6557 72.5001 77.5103C72.5312 77.3902 72.4565 77.2132 72.3259 77.1943C71.9712 77.1437 71.6725 77.0299 71.3738 76.8466C71.1 76.6759 70.8449 76.4294 70.6706 76.1639C70.596 76.0501 70.4466 75.9996 70.3222 76.0691C70.2102 76.1386 70.1542 76.303 70.2288 76.4231H70.235Z" fill="#7F4A28"/>
<path id="Vector_36" d="M73.3152 72.8262C72.0457 74.0462 70.7763 75.2725 69.5069 76.4925C69.2704 76.72 69.6314 77.0803 69.8616 76.8528C71.131 75.6328 72.4004 74.4065 73.6699 73.1865C73.9063 72.9589 73.5454 72.5986 73.3152 72.8262Z" fill="#7F4A28"/>
<path id="Vector_37" d="M62.4008 70.9235C62.0275 71.7706 61.8159 72.6745 61.7785 73.6037C61.7661 73.9324 62.2701 73.9324 62.2826 73.6037C62.3137 72.7693 62.4942 71.9412 62.8302 71.1827C62.8862 71.0563 62.8675 70.9046 62.7368 70.8287C62.6311 70.7655 62.4444 70.7908 62.3884 70.9235H62.4008Z" fill="#7F4A28"/>
<path id="Vector_38" d="M66.3458 44.8171C67.5655 44.7349 68.7851 44.6401 70.0048 44.5769C71.0502 44.5263 72.22 44.5642 73.0663 45.2722C73.2468 45.4239 73.421 45.6072 73.5392 45.8158C73.6014 45.9359 73.6326 46.0181 73.5517 46.1319C73.4894 46.233 73.3774 46.3152 73.2779 46.3847C72.9107 46.6376 72.4378 46.7134 72.0147 46.5807C71.5604 46.4353 71.2119 46.0813 70.7204 46.0371C70.2723 45.9991 69.9052 46.2709 69.6376 46.6123C69.3078 47.0295 69.0651 47.4846 68.6171 47.7944C68.1628 48.1104 67.6339 48.2811 67.0863 48.2874C66.7627 48.2874 66.7627 48.8057 67.0863 48.7994C68.1877 48.7931 69.1336 48.2179 69.7558 47.3139C69.9923 46.9663 70.2785 46.4606 70.7701 46.5617C71.019 46.6123 71.2431 46.7766 71.4671 46.8904C71.7098 47.0232 71.9649 47.1117 72.2387 47.1433C72.724 47.1938 73.2343 47.0548 73.6263 46.7514C73.8255 46.5996 74.0246 46.3974 74.0868 46.1445C74.149 45.8664 74.0121 45.6009 73.8566 45.3797C73.1721 44.4252 71.996 44.0838 70.8884 44.0459C70.1541 44.0206 69.4136 44.0901 68.6793 44.1407C67.9015 44.1913 67.1174 44.2418 66.3396 44.2924C66.016 44.3114 66.016 44.8297 66.3396 44.8044L66.3458 44.8171Z" fill="#7F4A28"/>
<path id="Vector_39" d="M72.55 41.922C72.4628 42.6237 72.0273 43.3001 71.4361 43.692C71.3241 43.7678 71.2743 43.9195 71.3428 44.046C71.4112 44.1597 71.573 44.2166 71.6912 44.1408C72.4504 43.6414 72.942 42.8323 73.0602 41.9284C73.0789 41.7893 72.9295 41.6692 72.8051 41.6692C72.6557 41.6692 72.5686 41.7893 72.55 41.9284V41.922Z" fill="#7F4A28"/>
<path id="Vector_40" d="M73.9313 42.9208C73.9624 43.6667 73.6015 44.4189 72.973 44.8361C72.861 44.912 72.8112 45.0637 72.8796 45.1901C72.9481 45.3039 73.1099 45.3608 73.2281 45.2849C73.9997 44.7792 74.4726 43.8627 74.4353 42.9271C74.4353 42.7881 74.3233 42.668 74.1802 42.668C74.0495 42.668 73.9188 42.7881 73.925 42.9271L73.9313 42.9208Z" fill="#7F4A28"/>
<path id="Vector_41" d="M75.2194 44.6907C75.2194 44.6907 75.207 44.7286 75.2007 44.7476C75.1821 44.7918 75.2132 44.7223 75.2007 44.7476C75.1821 44.7792 75.1696 44.8171 75.151 44.8487C75.1323 44.8803 75.1198 44.9056 75.1012 44.9372C75.0887 44.9562 75.0763 44.9688 75.0701 44.9878C75.0701 44.9878 75.0327 45.0384 75.0514 45.0131C75.0701 44.9815 75.039 45.032 75.0327 45.032C75.0203 45.0447 75.0078 45.0636 74.9954 45.0763C74.9705 45.1016 74.9518 45.1269 74.9269 45.1521C74.9021 45.1774 74.8709 45.2027 74.846 45.228C74.8336 45.2406 74.8212 45.247 74.8087 45.2596C74.8585 45.2217 74.8087 45.2596 74.7963 45.2659C74.7403 45.3102 74.678 45.3418 74.6158 45.3797C74.5847 45.3987 74.5474 45.4113 74.5162 45.4303C74.5349 45.424 74.5474 45.4176 74.5162 45.4303C74.5038 45.4303 74.4851 45.4429 74.4665 45.4492C74.398 45.4745 74.3296 45.4935 74.2549 45.5061C74.2487 45.5061 74.1927 45.5188 74.23 45.5061C74.2673 45.5061 74.2113 45.5061 74.2051 45.5061C74.1678 45.5061 74.1242 45.5061 74.0869 45.5061C73.9562 45.5061 73.8255 45.6262 73.8318 45.7653C73.8318 45.9044 73.9438 46.0245 74.0869 46.0245C74.8149 46.0181 75.4745 45.5188 75.7172 44.8234C75.7608 44.697 75.6674 44.539 75.543 44.5074C75.3999 44.4758 75.2754 44.5516 75.2319 44.6844L75.2194 44.6907Z" fill="#7F4A28"/>
<path id="Vector_42" d="M73.2904 46.9095C74.1615 47.2761 75.1883 47.0864 75.9039 46.4796C76.0097 46.3911 75.9972 46.2078 75.9039 46.1193C75.7981 46.0118 75.6488 46.0308 75.5492 46.1193C74.9643 46.6187 74.1242 46.7135 73.4273 46.4227C73.3028 46.3722 73.1473 46.4796 73.1161 46.5997C73.0788 46.7451 73.1659 46.8652 73.2904 46.9158V46.9095Z" fill="#7F4A28"/>
<path id="Vector_43" d="M73.8628 46.5807C73.5827 46.625 73.3027 46.6819 73.0476 46.8209C72.7987 46.96 72.5933 47.2002 72.5187 47.4846C72.444 47.7817 72.5249 48.0915 72.7551 48.3001C72.9791 48.496 73.2716 48.6225 73.5641 48.673C73.9001 48.7299 74.2486 48.711 74.5721 48.5845C74.6966 48.534 74.7899 48.4139 74.7464 48.2685C74.7153 48.142 74.5659 48.0409 74.4352 48.0915C74.1615 48.1989 73.8814 48.2242 73.6139 48.161C73.4707 48.1294 73.3649 48.0915 73.2467 48.0219C73.2156 48.003 73.1845 47.984 73.1534 47.965C73.1409 47.9524 73.1223 47.9461 73.1098 47.9334C73.1285 47.9461 73.1223 47.9398 73.0974 47.9208C73.0912 47.9145 73.0289 47.8513 73.0476 47.8766C73.0414 47.8702 72.9916 47.7817 73.0103 47.826C72.9978 47.7944 72.9916 47.7628 72.9854 47.7312C72.9978 47.7881 72.9854 47.6932 72.9854 47.6806C72.9854 47.649 72.9854 47.649 72.9854 47.6806C72.9854 47.6616 72.9854 47.649 72.9978 47.63C73.004 47.5984 73.0165 47.5668 73.0289 47.5352C73.0103 47.5795 73.0538 47.491 73.06 47.4846C73.0725 47.4657 73.0849 47.4404 73.1036 47.4214C73.0787 47.453 73.1347 47.3835 73.1472 47.3772C73.1534 47.3709 73.2218 47.3076 73.1907 47.3329C73.3152 47.2381 73.421 47.2002 73.5579 47.1559C73.701 47.1117 73.8503 47.0864 73.9997 47.0611C74.1366 47.0358 74.2112 46.8715 74.1739 46.7451C74.1366 46.5997 73.9997 46.5428 73.8628 46.5681V46.5807Z" fill="#7F4A28"/>
<path id="Vector_44" d="M71.6413 47.3075C70.515 47.08 69.2892 47.6742 68.7976 48.7361C68.7416 48.8625 68.7603 49.0142 68.8909 49.0901C69.0029 49.1533 69.1772 49.1217 69.2394 48.9953C69.6314 48.1482 70.5959 47.6173 71.5107 47.8006C71.6413 47.8259 71.7845 47.7626 71.8218 47.6236C71.8529 47.4972 71.7782 47.3328 71.6476 47.3075H71.6413Z" fill="#7F4A28"/>
<path id="Vector_45" d="M63.9004 47.3203V50.1585C63.9004 50.4872 64.4044 50.4872 64.4044 50.1585V47.3203C64.4044 46.9916 63.9004 46.9916 63.9004 47.3203Z" fill="#7F4A28"/>
<path id="Vector_46" d="M53.9068 24.9369C53.2969 26.3213 54.1059 28.1165 55.5744 28.4958C55.8918 28.5779 56.0225 28.0849 55.7113 28.0027C54.5913 27.7119 53.8694 26.2897 54.3486 25.1961C54.4046 25.0697 54.3859 24.918 54.2552 24.8421C54.1494 24.7789 53.9628 24.8042 53.9068 24.9369Z" fill="#7F4A28"/>
<path id="Vector_47" opacity="0.49" d="M47.0992 27.9585L44.2119 22.0103L45.1266 28.8687L47.0992 27.9585Z" fill="#7F4A28"/>
<path id="Vector_48" d="M45.0644 13.2113C45.3755 13.9319 45.4937 14.722 45.4377 15.4995C45.4253 15.6386 45.5622 15.7587 45.6928 15.7587C45.836 15.7587 45.9355 15.6386 45.948 15.4995C46.0102 14.6209 45.8484 13.7549 45.5062 12.9521C45.4502 12.8257 45.2697 12.7941 45.1577 12.8573C45.027 12.9331 45.0146 13.0785 45.0644 13.2113Z" fill="#7F4A28"/>
<path id="Vector_49" d="M44.3675 14.0456C44.7907 14.1847 45.2076 14.3237 45.6307 14.4628C45.7552 14.507 45.9108 14.4122 45.9419 14.2858C45.973 14.1467 45.8983 14.014 45.7676 13.9697C45.3445 13.8307 44.9276 13.6916 44.5044 13.5525C44.38 13.5083 44.2244 13.6031 44.1933 13.7295C44.1622 13.8686 44.2369 14.0013 44.3675 14.0456Z" fill="#7F4A28"/>
<path id="Vector_50" d="M67.547 12.8446C68.1444 12.3642 68.3373 11.5551 68.2377 10.8155C68.1257 10.0064 67.6465 9.33003 67.0243 8.82434C66.4207 8.3376 65.7362 8.02787 65.0517 7.6802C64.3983 7.34518 63.7574 6.99751 63.1289 6.61824C62.5875 6.29586 62.0399 5.96084 61.5919 5.50572C61.0879 4.9937 60.7021 4.38055 60.3411 3.76739C59.6504 2.59165 59.0033 1.27052 57.8272 0.518303C56.3462 -0.429874 54.3363 -0.0253181 53.2909 1.39695C53.098 1.66244 53.5336 1.92161 53.7265 1.65612C54.5727 0.49934 56.2404 0.17696 57.4601 0.897574C58.5739 1.55498 59.1837 2.80025 59.8184 3.88749C60.1545 4.4564 60.5029 5.02531 60.9261 5.531C61.3181 5.99877 61.7724 6.37172 62.2826 6.70042C62.8613 7.07969 63.4587 7.41471 64.0685 7.74341C64.6286 8.04683 65.2073 8.306 65.7673 8.60942C66.514 9.00765 67.3043 9.56391 67.6216 10.392C67.8954 11.1063 67.8208 11.9912 67.2047 12.4906C66.9496 12.6992 67.3105 13.0595 67.5594 12.8509L67.547 12.8446Z" fill="#010101"/>
<path id="Vector_51" d="M56.9248 22.3894C56.5825 22.9899 55.9727 23.2807 55.562 23.0405C55.1513 22.8003 55.0891 22.1176 55.4314 21.5171C55.7736 20.9166 56.3834 20.6258 56.7941 20.866C57.2048 21.1062 57.267 21.7889 56.9248 22.3894Z" fill="#010101"/>
<path id="Vector_52" d="M59.8369 18.7612C59.7249 19.6588 58.636 20.2783 57.827 19.8927C57.5034 19.741 57.2483 19.4755 56.9434 19.2985C56.1905 18.875 55.2446 19.0456 54.4357 18.7549C54.3672 18.7296 54.2925 18.698 54.2552 18.6284C54.1619 18.4704 54.3485 18.2934 54.5103 18.2049C56.1593 17.3516 58.2564 17.478 59.7996 18.5147L59.8431 18.7549L59.8369 18.7612Z" fill="#010101"/>
<path id="Vector_53" d="M41.6855 52.2066C41.0819 49.754 41.53 47.2065 41.8473 44.7476C42.1771 42.2002 42.2767 39.6338 42.1149 37.0674C41.8535 33.085 40.9575 28.224 37.0559 26.2771C35.2451 25.3732 32.9676 25.2152 31.2626 26.4541C31.0012 26.6437 31.2501 27.0925 31.5177 26.8966C32.9738 25.8409 34.8779 25.8789 36.4772 26.5679C38.2506 27.3327 39.4951 28.8309 40.2792 30.5882C41.1317 32.5098 41.4366 34.6464 41.586 36.7323C41.7726 39.2229 41.7104 41.7387 41.4117 44.2166C41.0881 46.9094 40.5406 49.6592 41.2002 52.3393C41.281 52.6617 41.7664 52.5227 41.6855 52.2003V52.2066Z" fill="#532813"/>
<path id="Vector_54" d="M27.8587 34.4757C27.3111 38.6983 26.7573 42.984 27.1929 47.2508C27.2987 48.2938 27.4604 49.3368 27.6969 50.3608C27.9334 51.3786 28.2445 52.3773 28.4996 53.3887C28.761 54.438 28.9166 55.4873 28.929 56.5682C28.9477 57.5923 28.8917 58.6163 29.0223 59.6277C29.2837 61.6758 29.9993 63.6669 30.8518 65.5317C30.9887 65.8288 31.4243 65.5696 31.2874 65.2725C30.5282 63.61 29.8935 61.8464 29.5886 60.0323C29.4268 59.0651 29.4393 58.0853 29.4393 57.1055C29.4393 56.0499 29.3708 55.0196 29.1592 53.9829C28.9477 52.9778 28.6428 51.9917 28.3814 50.9993C28.1138 49.9753 27.9023 48.9386 27.7716 47.8893C27.504 45.8033 27.4978 43.6983 27.616 41.5997C27.7529 39.2103 28.0578 36.8398 28.3627 34.4757C28.3814 34.3367 28.2321 34.2229 28.1076 34.2166C27.9583 34.2166 27.8711 34.3367 27.8525 34.4757H27.8587Z" fill="#532813"/>
<path id="Vector_55" d="M32.9551 69.3307C34.3241 68.0855 36.1847 67.6493 37.7341 66.7138C39.2027 65.8288 40.4721 64.6151 41.4553 63.1929C42.0153 62.3838 42.4633 61.5114 42.8118 60.5949C42.93 60.2851 42.4384 60.1524 42.3264 60.4558C41.7228 62.0487 40.7583 63.49 39.5511 64.6657C38.9351 65.2662 38.263 65.7909 37.535 66.2397C36.7883 66.6948 35.9918 67.0425 35.1953 67.3964C34.2681 67.8136 33.3596 68.2751 32.5942 68.9704C32.3515 69.1917 32.7124 69.552 32.9489 69.3307H32.9551Z" fill="#532813"/>
<path id="Vector_56" d="M39.3333 66.7325C38.207 67.5479 37.1989 68.5214 36.3464 69.6339C36.2655 69.7414 36.2407 69.8931 36.3464 69.9942C36.4336 70.0827 36.6202 70.1017 36.7011 69.9942C37.5225 68.9196 38.4933 67.9651 39.5884 67.175C39.7004 67.0928 39.7502 66.9538 39.6818 66.821C39.6196 66.7072 39.4453 66.6503 39.3333 66.7262V66.7325Z" fill="#532813"/>
<path id="Vector_57" d="M39.8872 67.5101C39.5947 68.1106 39.2276 68.6605 38.7982 69.1536C38.7048 69.2547 38.6986 69.4127 38.7982 69.5139C38.8915 69.6087 39.0658 69.615 39.1529 69.5139C39.6134 68.9829 40.0116 68.4014 40.3227 67.7629C40.385 67.6365 40.3539 67.4848 40.2294 67.4089C40.1174 67.3394 39.9432 67.3773 39.8809 67.5037L39.8872 67.5101Z" fill="#532813"/>
<path id="Vector_58" d="M40.2045 51.6946C39.2587 52.5796 38.3128 53.4582 37.367 54.3432C37.1865 54.5076 37.3732 54.8615 37.6159 54.773C38.1075 54.5834 38.5991 54.3938 39.0969 54.2105C39.2276 54.1599 39.3582 54.1093 39.4889 54.0587L39.5698 54.0271C39.6383 54.0271 39.6445 54.0019 39.5947 53.9639C39.5574 53.8691 39.5698 53.9513 39.5511 53.9766C39.4267 54.1599 39.3333 54.3811 39.2213 54.5771C38.6986 55.462 38.1324 56.3217 37.5163 57.1435C37.3172 57.409 37.759 57.6618 37.9519 57.4027C38.3253 56.9033 38.6862 56.3849 39.0284 55.8603C39.3582 55.3483 39.7129 54.8236 39.9805 54.2737C40.0738 54.084 40.1174 53.8501 39.9929 53.6668C39.8374 53.4393 39.576 53.4835 39.3582 53.5657C38.736 53.7996 38.1137 54.0398 37.4914 54.28C37.5723 54.4254 37.6532 54.5644 37.7403 54.7098C38.6862 53.8249 39.632 52.9462 40.5779 52.0613C40.8206 51.84 40.4596 51.4734 40.2232 51.7009L40.2045 51.6946Z" fill="#532813"/>
<path id="Vector_59" d="M1.16987 62.8957C2.60108 63.3382 4.05718 62.9083 5.40127 62.3837C6.1231 62.1055 6.83249 61.7958 7.56676 61.5493C8.34459 61.2901 9.14731 61.1447 9.96248 61.0752C11.6986 60.9235 13.4534 60.8792 15.1895 60.797C16.9692 60.7149 18.7426 60.6327 20.5223 60.5568C22.4887 60.4747 24.455 60.3862 26.4152 60.304C26.7388 60.2914 26.7388 59.7793 26.4152 59.792C22.9243 59.9437 19.4334 60.0891 15.9425 60.2534C14.1877 60.3356 12.4329 60.4115 10.6781 60.5189C9.84425 60.5695 9.00419 60.6453 8.18902 60.8413C7.46097 61.0183 6.76404 61.2964 6.07332 61.5746C4.57366 62.1751 2.93088 62.9146 1.30055 62.409C0.989413 62.3141 0.852514 62.8072 1.16365 62.902L1.16987 62.8957Z" fill="#532813"/>
<path id="Vector_60" d="M8.73668 47.6489C10.1368 49.0269 11.8418 50.0509 13.7024 50.6325C13.9201 50.702 14.0882 50.4428 13.9886 50.2532C13.0552 48.4959 11.4124 47.3265 9.83186 46.2203C9.76964 46.3783 9.70119 46.53 9.63896 46.688C11.7049 47.0989 13.7646 47.5161 15.8305 47.927C16.1479 47.9902 16.2848 47.4972 15.9674 47.4339C13.9015 47.0231 11.8418 46.6059 9.77586 46.195C9.48962 46.1381 9.34027 46.4984 9.58296 46.6628C11.0951 47.7184 12.6632 48.8372 13.5592 50.5124C13.6526 50.3859 13.7521 50.2595 13.8455 50.1331C12.0658 49.5768 10.4417 48.597 9.10381 47.2822C8.86735 47.0547 8.51266 47.415 8.74912 47.6425L8.73668 47.6489Z" fill="#532813"/>
<path id="Vector_61" d="M26.1163 35.4618C26.2594 36.4226 26.583 37.3455 27.0746 38.1799C27.2426 38.4643 27.6782 38.2052 27.5102 37.9207C27.0435 37.1242 26.7386 36.2456 26.6017 35.3227C26.583 35.1836 26.4088 35.1078 26.2906 35.1457C26.1474 35.1836 26.0914 35.3227 26.1163 35.4618Z" fill="#532813"/>
<path id="Vector_62" d="M4.71054 94.0021C5.28302 94.9061 5.84928 95.81 6.42177 96.7076C6.64578 97.0553 6.90091 97.4029 7.33027 97.4914C7.7223 97.5736 8.10188 97.4345 8.4628 97.2891C8.82371 97.1438 9.20329 96.9668 9.60776 97.0237C9.98112 97.0805 10.3109 97.3018 10.5723 97.5736C11.2132 98.2436 11.375 99.1792 11.543 100.064C11.711 100.955 11.9413 101.809 12.4515 102.567C12.9182 103.256 13.5218 103.838 14.2063 104.306C15.7682 105.374 17.6785 105.785 19.5142 106.063C21.1881 106.316 23.2105 106.392 24.4737 105.033C24.6977 104.792 24.343 104.432 24.119 104.672C23.0487 105.823 21.325 105.791 19.8938 105.601C18.1328 105.374 16.2722 104.995 14.7415 104.04C14.0632 103.617 13.4347 103.079 12.968 102.416C12.4515 101.689 12.2151 100.88 12.047 100.001C11.8853 99.1476 11.7359 98.2626 11.2132 97.5483C10.7776 96.9541 10.1118 96.4484 9.34641 96.4927C8.88594 96.5179 8.48769 96.7392 8.05832 96.8846C7.64141 97.03 7.28671 97.0363 7.00047 96.6507C6.66445 96.2019 6.39065 95.6962 6.09196 95.2221C5.77461 94.7227 5.46348 94.2234 5.14612 93.724C4.97189 93.4459 4.5363 93.705 4.71054 93.9832V94.0021Z" fill="white"/>
<path id="Vector_63" d="M18.3443 97.1501C17.1122 97.4283 16.3406 98.6988 16.0295 99.8619C15.7121 101.05 16.0295 102.599 17.3363 103.004C17.9212 103.187 18.5497 103.029 19.0786 102.732C19.564 102.46 20.124 102.017 20.3791 101.505C20.4911 101.278 20.5658 101.006 20.4849 100.753C20.3916 100.481 20.124 100.355 19.8502 100.387C19.2964 100.45 18.8297 100.905 18.6181 101.404C18.3692 102.005 18.4626 102.675 18.8981 103.155C19.3213 103.623 19.9809 103.832 20.5845 103.674C20.9018 103.591 20.7649 103.098 20.4476 103.181C19.6573 103.383 18.8173 102.656 19.0102 101.821C19.0973 101.442 19.3524 101.095 19.7133 100.949C19.8689 100.886 20.0369 100.829 20.0058 101.044C19.9809 101.24 19.8564 101.404 19.7258 101.55C19.1595 102.188 18.2012 102.858 17.3238 102.46C16.378 102.03 16.2846 100.81 16.5335 99.9315C16.8073 98.9643 17.4358 97.896 18.475 97.6558C18.7924 97.5863 18.6555 97.0869 18.3381 97.1628L18.3443 97.1501Z" fill="white"/>
<path id="Vector_64" d="M27.193 98.2691C28.4127 99.1035 29.9434 98.7495 31.2066 98.2122C32.5072 97.6622 33.7206 96.8152 35.158 96.6635C35.7989 96.594 36.4523 96.6824 36.9937 97.068C37.5351 97.4473 37.8524 98.0668 38.3565 98.484C38.9725 98.996 39.7006 99.015 40.4659 99.015C41.3247 99.015 42.1896 98.977 43.0483 98.9265C44.996 98.8 46.9313 98.5472 48.8479 98.1742C49.1652 98.111 49.0345 97.618 48.711 97.6812C47.0433 98.0099 45.3569 98.2375 43.6582 98.3702C42.7994 98.4397 41.9407 98.4777 41.0758 98.4966C40.6713 98.503 40.2606 98.5156 39.8499 98.4966C39.489 98.484 39.1343 98.4144 38.8232 98.2122C38.288 97.8519 37.9769 97.2387 37.4915 96.8215C36.9999 96.3917 36.3901 96.1704 35.7429 96.1325C34.3553 96.0567 33.061 96.7393 31.86 97.3462C30.5532 98.0099 28.8047 98.7558 27.4481 97.8329C27.1743 97.6496 26.9254 98.0921 27.193 98.2754V98.2691Z" fill="white"/>
<path id="Vector_65" d="M37.0994 92.4914C36.9873 93.6292 37.2051 94.8871 38.0825 95.6773C38.8604 96.3726 39.9929 96.5622 40.8392 95.8795C41.561 95.298 41.8348 94.0527 40.9138 93.5028C40.4907 93.2499 39.9618 93.408 39.7813 93.8821C39.6009 94.3435 39.7938 94.8618 40.0178 95.2601C40.584 96.2715 41.617 96.9352 42.7495 97.0679C43.0731 97.1059 43.0669 96.5938 42.7495 96.5559C42.0028 96.4674 41.3059 96.0755 40.8081 95.5066C40.5654 95.2285 40.3351 94.8745 40.248 94.5078C40.192 94.274 40.2231 93.7872 40.584 93.9137C40.8952 94.0274 41.0507 94.4067 41.001 94.7228C40.945 95.0641 40.7209 95.3612 40.4409 95.5508C39.7813 96.006 38.9537 95.8037 38.3999 95.2727C37.6532 94.5647 37.5163 93.4775 37.6158 92.4914C37.647 92.1627 37.1429 92.1627 37.1118 92.4914H37.0994Z" fill="white"/>
<path id="Vector_66" d="M87.9199 86.5936C90.4277 87.7188 93.1283 86.581 95.2067 85.0639C95.8227 84.6151 96.4201 84.1284 97.0112 83.6416C97.2664 83.433 96.9054 83.0727 96.6565 83.2813C95.412 84.299 94.1426 85.3484 92.6554 85.9805C91.2553 86.5747 89.6 86.7896 88.1751 86.1511C87.8826 86.0184 87.6212 86.4609 87.9199 86.5936Z" fill="#7F4A28"/>
<path id="Vector_67" d="M87.005 79.0463C88.3429 79.2675 89.7243 79.1285 90.9875 78.6291C91.6285 78.3763 92.2321 78.0412 92.7797 77.6177C93.2837 77.2258 93.7379 76.777 94.2295 76.3661C94.7584 75.93 95.3558 75.5444 96.059 75.5191C96.3826 75.5064 96.3826 74.9944 96.059 75.0071C94.7833 75.0576 93.8562 76.0185 92.9477 76.8212C91.9271 77.7189 90.7262 78.3194 89.4007 78.5469C88.654 78.6734 87.8886 78.6797 87.1419 78.5532C86.8246 78.5027 86.6877 78.9957 87.005 79.0463Z" fill="#7F4A28"/>
<path id="Vector_68" d="M99.4441 103.092C99.7615 101.645 100.651 100.425 101.771 99.5016C103.041 98.4586 104.596 97.8518 106.165 97.4536C107.104 97.2134 108.062 97.0427 109.021 96.891C109.338 96.8404 109.207 96.3474 108.884 96.3979C105.617 96.9226 102.095 97.757 100.023 100.62C99.5188 101.322 99.1454 102.119 98.9587 102.966C98.8903 103.288 99.3757 103.427 99.4441 103.105V103.092Z" fill="#7F4A28"/>
<path id="Vector_69" d="M97.4964 112.959C96.675 113.263 96.2706 114.274 96.6377 115.083C96.6937 115.21 96.8742 115.241 96.9862 115.178C97.1106 115.102 97.1355 114.951 97.0795 114.824C97.0484 114.761 97.092 114.875 97.0671 114.805C97.0671 114.786 97.0546 114.774 97.0484 114.755C97.0359 114.717 97.0235 114.679 97.0173 114.635C97.0173 114.616 97.0111 114.59 97.0048 114.571C97.0048 114.609 97.0048 114.59 97.0048 114.565C97.0048 114.527 97.0048 114.483 97.0048 114.445C97.0048 114.407 97.0048 114.363 97.0111 114.325C97.0111 114.299 97.0173 114.281 97.0111 114.318C97.0111 114.299 97.0173 114.274 97.0235 114.255C97.0422 114.173 97.0671 114.097 97.0919 114.021C97.0795 114.053 97.0919 114.028 97.0919 114.009C97.0982 113.99 97.1106 113.977 97.1168 113.958C97.1355 113.92 97.1604 113.882 97.1853 113.844C97.1977 113.832 97.204 113.813 97.2164 113.8C97.2288 113.781 97.2475 113.762 97.2164 113.787C97.2413 113.756 97.2724 113.718 97.3035 113.686C97.3284 113.661 97.3533 113.636 97.3844 113.61C97.3844 113.61 97.4466 113.56 97.4031 113.598C97.4155 113.585 97.4342 113.579 97.4466 113.566C97.4778 113.541 97.5151 113.522 97.5462 113.503C97.5649 113.49 97.5835 113.484 97.6022 113.471C97.5649 113.49 97.6022 113.471 97.6209 113.465C97.7516 113.415 97.8387 113.288 97.7951 113.149C97.764 113.023 97.6147 112.921 97.484 112.972L97.4964 112.959Z" fill="#7F4A28"/>
<path id="Vector_70" d="M98.9152 113.737C98.2805 113.914 97.8014 114.559 97.8387 115.229C97.8449 115.361 97.9507 115.494 98.0938 115.488C98.2245 115.488 98.3552 115.374 98.349 115.229C98.349 115.191 98.349 115.159 98.349 115.121C98.349 115.108 98.349 115.045 98.3552 115.033C98.3552 115.071 98.3552 115.077 98.3552 115.058C98.3614 115.014 98.3676 114.995 98.3676 114.982C98.3739 114.95 98.3801 114.925 98.3925 114.9C98.405 114.868 98.4236 114.83 98.4299 114.799C98.4112 114.837 98.4299 114.824 98.4299 114.799C98.4299 114.786 98.4423 114.773 98.4485 114.761C98.4797 114.698 98.5108 114.641 98.5543 114.584C98.573 114.552 98.573 114.571 98.5543 114.584C98.5668 114.578 98.5792 114.552 98.5854 114.546C98.6041 114.521 98.629 114.495 98.6477 114.476C98.6663 114.457 98.6912 114.432 98.7161 114.413C98.7286 114.401 98.741 114.388 98.7534 114.382C98.7223 114.407 98.7286 114.394 98.7534 114.382C98.8032 114.344 98.8592 114.312 98.9152 114.28C98.9277 114.28 98.9401 114.261 98.9526 114.261C98.9215 114.274 98.9152 114.28 98.9339 114.268C98.9899 114.249 99.0272 114.236 99.0584 114.224C99.189 114.186 99.2761 114.04 99.2326 113.907C99.189 113.775 99.0584 113.693 98.9215 113.73L98.9152 113.737Z" fill="#7F4A28"/>
<path id="Vector_71" d="M85.9596 108.238C85.5116 108.282 85.1383 108.579 84.9578 108.99C84.7773 109.394 84.7587 109.894 85.0262 110.26C85.1009 110.368 85.2503 110.431 85.3747 110.355C85.4805 110.286 85.549 110.121 85.4681 110.001C85.4432 109.963 85.4183 109.925 85.3996 109.887C85.3934 109.868 85.3809 109.856 85.3747 109.837C85.3996 109.894 85.3747 109.843 85.3747 109.83C85.3623 109.793 85.3498 109.748 85.3436 109.704C85.3436 109.635 85.3436 109.685 85.3436 109.704C85.3436 109.685 85.3436 109.666 85.3436 109.647C85.3436 109.603 85.3436 109.559 85.3436 109.514C85.3436 109.495 85.3436 109.477 85.3436 109.458C85.3374 109.527 85.3436 109.47 85.3436 109.451C85.3498 109.407 85.3623 109.363 85.3747 109.325C85.3747 109.306 85.3872 109.287 85.3934 109.268C85.3934 109.255 85.3996 109.243 85.4058 109.23C85.3934 109.262 85.3934 109.262 85.3996 109.249C85.4369 109.173 85.4743 109.104 85.5178 109.034C85.5552 108.977 85.4992 109.053 85.5303 109.021C85.5427 109.009 85.5552 108.99 85.5676 108.977C85.5925 108.946 85.6236 108.92 85.6547 108.895C85.7045 108.851 85.6298 108.914 85.6672 108.882C85.6796 108.87 85.6983 108.863 85.7107 108.851C85.7419 108.832 85.7854 108.813 85.8165 108.794C85.8352 108.788 85.829 108.794 85.7979 108.8C85.8103 108.8 85.8227 108.794 85.8352 108.788C85.8539 108.788 85.8725 108.775 85.885 108.769C85.9036 108.769 85.9223 108.756 85.941 108.756C85.9534 108.756 85.9659 108.756 85.9783 108.75C85.941 108.75 85.941 108.75 85.9659 108.75C86.0965 108.737 86.2272 108.642 86.221 108.49C86.221 108.364 86.109 108.219 85.9659 108.231L85.9596 108.238Z" fill="#7F4A28"/>
<path id="Vector_72" d="M87.173 108.787C86.5508 108.977 86.1587 109.71 86.3703 110.342C86.4139 110.469 86.5445 110.564 86.6814 110.519C86.8059 110.481 86.9055 110.342 86.8557 110.203C86.8432 110.172 86.837 110.14 86.8308 110.108C86.8308 110.096 86.8308 110.083 86.8246 110.071C86.8121 110.02 86.8308 110.071 86.8246 110.083C86.837 110.064 86.8246 110.007 86.8246 109.988C86.8246 109.963 86.8246 109.931 86.8246 109.906C86.8246 109.862 86.8246 109.868 86.8246 109.906C86.8246 109.9 86.8308 109.868 86.8308 109.856C86.8308 109.83 86.8432 109.805 86.8495 109.773C86.8557 109.742 86.8681 109.71 86.8806 109.679C86.8992 109.634 86.8619 109.717 86.8806 109.685C86.8868 109.672 86.893 109.653 86.8992 109.641C86.9117 109.615 86.9304 109.59 86.9428 109.565C86.949 109.552 86.9552 109.54 86.9677 109.533C86.9926 109.495 86.9926 109.495 86.9801 109.514C86.9677 109.533 86.9677 109.533 86.9801 109.514C86.9988 109.489 87.0112 109.476 87.0237 109.464C87.0424 109.445 87.0672 109.419 87.0859 109.401C87.0984 109.394 87.1046 109.382 87.117 109.375C87.0672 109.407 87.1606 109.337 87.117 109.375C87.1419 109.356 87.1668 109.344 87.1917 109.325C87.2041 109.325 87.2664 109.293 87.2726 109.287C87.2415 109.299 87.229 109.306 87.2477 109.299C87.285 109.287 87.3037 109.28 87.3162 109.274C87.4406 109.236 87.534 109.091 87.4904 108.958C87.4468 108.825 87.3162 108.737 87.1793 108.781L87.173 108.787Z" fill="#7F4A28"/>
<path id="Vector_73" d="M72.6308 62.2255C73.4895 62.2761 73.6389 60.8475 74.4292 60.4872C75.2879 60.0953 76.4951 61.1446 77.1298 60.443C76.968 59.912 76.3955 59.6465 75.8666 59.5137C75.0328 59.2988 74.1554 59.2482 73.2966 59.3684C72.9917 59.4126 72.6806 59.4758 72.413 59.6402C71.9961 59.8993 71.7348 60.4113 71.7721 60.9044C71.8094 61.4038 72.133 61.8715 72.581 62.0675L72.6308 62.2255Z" fill="#010101"/>
<path id="Vector_74" d="M81.8403 61.05C81.9461 60.5 82.4751 60.0702 83.0351 60.1334C83.564 60.1966 83.9809 60.7149 83.9809 61.2459C83.9809 61.5746 84.485 61.5746 84.485 61.2459C84.485 60.4431 83.8565 59.7225 83.0724 59.6277C82.2946 59.5329 81.5043 60.1397 81.355 60.9172C81.3301 61.05 81.3923 61.1954 81.5292 61.2333C81.6537 61.2649 81.8155 61.189 81.8403 61.0563V61.05Z" fill="#010101"/>
<path id="Vector_75" d="M72.886 62.3647C73.446 63.5025 74.4977 64.4191 75.7235 64.7288C76.3645 64.8932 77.0863 64.8742 77.665 64.5202C78.169 64.2042 78.5175 63.6921 78.5673 63.0916C78.5922 62.7629 78.0881 62.7629 78.0633 63.0916C78.0259 63.572 77.6712 63.964 77.2543 64.1662C76.7316 64.4191 76.1093 64.3369 75.5804 64.1536C74.5972 63.8122 73.7883 63.0474 73.3278 62.1118C73.1847 61.8148 72.7429 62.0739 72.8922 62.371L72.886 62.3647Z" fill="#7F4A28"/>
<path id="Vector_76" d="M82.9604 57.4467C82.6804 57.3961 82.4502 57.7501 82.531 58.0283C82.6119 58.3064 82.8857 58.4834 83.1595 58.5656C83.4333 58.6477 83.7258 58.6604 83.9996 58.7489C84.4227 58.888 84.7774 59.2166 85.2068 59.3494C85.6361 59.4821 86.2335 59.2862 86.2522 58.8311C86.2646 58.5466 86.0531 58.3127 85.8539 58.1168C85.437 57.7059 85.0014 57.3077 84.4663 57.0801C83.9311 56.8525 83.284 56.8272 82.8048 57.1623L82.9542 57.453L82.9604 57.4467Z" fill="#010101"/>
<path id="Vector_77" d="M104.603 86.5433C104.435 86.9794 104.677 87.5231 105.088 87.7253C105.505 87.9339 106.034 87.8202 106.376 87.5041C106.893 87.0237 106.893 86.0502 106.314 85.6393C105.735 85.2348 104.771 85.671 104.764 86.3853L104.603 86.5433Z" fill="#7F4A28"/>
<path id="Vector_78" d="M108.131 88.427C107.49 89.2866 107.689 90.6647 108.548 91.2968C109.407 91.9289 110.757 91.695 111.367 90.81C111.74 90.2601 111.827 89.5711 111.883 88.9074C111.908 88.6229 111.927 88.3195 111.821 88.054C111.672 87.6874 111.311 87.4472 110.938 87.3271C109.755 86.9415 108.336 87.6115 107.87 88.7809L108.131 88.4333V88.427Z" fill="#7F4A28"/>
<path id="Vector_79" d="M107.876 83.4395C107.863 83.7556 107.857 84.0843 108 84.3624C108.143 84.6406 108.504 84.8302 108.778 84.6785C108.896 84.609 108.983 84.4888 109.039 84.3561C109.207 83.9642 109.127 83.4395 108.772 83.2183C108.417 82.997 107.832 83.2752 107.87 83.6987V83.4395H107.876Z" fill="#7F4A28"/>
<path id="Vector_80" d="M92.9727 57.9651C93.7568 58.8627 94.6404 59.6592 95.6111 60.3482C95.7231 60.4304 95.8911 60.3672 95.9596 60.2534C96.0343 60.127 95.9783 59.9816 95.8662 59.8994C94.9328 59.2357 94.0803 58.4645 93.3274 57.5985C93.1096 57.352 92.7549 57.7123 92.9727 57.9588V57.9651Z" fill="#532813"/>
<path id="Vector_81" d="M97.3159 56.7071C97.7018 57.5099 98.0813 58.3064 98.4671 59.1092C98.5294 59.2356 98.7036 59.2672 98.8156 59.204C98.9401 59.1281 98.9649 58.9764 98.9089 58.85C98.5231 58.0472 98.1436 57.2507 97.7578 56.448C97.6955 56.3215 97.5213 56.2899 97.4093 56.3531C97.2848 56.429 97.2599 56.5807 97.3159 56.7071Z" fill="#532813"/>
<path id="Vector_82" d="M98.8967 57.6113C99.0896 58.3635 99.4941 59.0525 100.048 59.5835C100.147 59.6783 100.309 59.6846 100.403 59.5835C100.496 59.4886 100.502 59.318 100.403 59.2232C99.8986 58.7491 99.5501 58.1486 99.3758 57.4785C99.3447 57.3458 99.1954 57.2636 99.0647 57.3015C98.934 57.3394 98.8531 57.4848 98.8905 57.6176L98.8967 57.6113Z" fill="#532813"/>
<path id="Vector_83" d="M85.6609 71.8022C90.1474 71.2712 94.4908 69.5139 98.1062 66.7642C98.5107 66.4545 98.6102 65.8729 98.324 65.4494C98.2742 65.3735 98.2244 65.2977 98.1747 65.2218C97.8697 64.7351 97.2226 64.6024 96.7746 64.9563C93.489 67.5543 89.5252 69.2674 85.3995 69.8742C84.8084 69.9627 84.4475 70.5759 84.6341 71.1448C84.7773 71.5809 85.2066 71.8528 85.6547 71.7959L85.6609 71.8022Z" fill="#7F4A28"/>
<path id="Vector_84" d="M88.0443 70.5822C90.6392 70.2661 93.1593 69.4064 95.3995 68.0284C96.028 67.6428 96.6378 67.2066 97.3534 67.0044C97.6645 66.9159 97.5339 66.4228 97.2165 66.5113C96.6005 66.682 96.0591 67.0107 95.5177 67.352C94.9701 67.6997 94.4101 68.0284 93.8314 68.3192C92.6802 68.9007 91.4668 69.3495 90.216 69.6656C89.5004 69.8489 88.7724 69.9816 88.0443 70.0701C87.727 70.1081 87.7207 70.6201 88.0443 70.5822Z" fill="#532813"/>
<path id="Vector_85" d="M106.382 77.1246H108.622C108.946 77.1246 108.946 76.6125 108.622 76.6125H106.382C106.059 76.6125 106.059 77.1246 106.382 77.1246Z" fill="#967C5A"/>
<path id="Vector_86" d="M107.639 78.5469H109.456C109.593 78.5469 109.712 78.4268 109.712 78.2877C109.712 78.1487 109.593 78.0286 109.456 78.0286H107.639C107.503 78.0286 107.384 78.1487 107.384 78.2877C107.384 78.4268 107.503 78.5469 107.639 78.5469Z" fill="#967C5A"/>
<path id="Vector_87" d="M117.764 94.9692C118.243 94.552 118.828 94.2676 119.444 94.1222C119.575 94.0906 119.655 93.9325 119.618 93.8061C119.581 93.667 119.438 93.5975 119.307 93.6291C118.604 93.7935 117.95 94.1285 117.403 94.6089C117.297 94.6974 117.31 94.8807 117.403 94.9692C117.509 95.0767 117.658 95.0577 117.758 94.9692H117.764Z" fill="#967C5A"/>
<path id="Vector_88" d="M118.206 95.6015C118.672 95.4182 119.139 95.2286 119.606 95.0453C119.73 94.9947 119.83 94.8683 119.78 94.7292C119.743 94.6091 119.599 94.4953 119.469 94.5522C119.002 94.7355 118.535 94.9252 118.069 95.1085C117.944 95.159 117.845 95.2855 117.894 95.4245C117.932 95.5446 118.075 95.6584 118.206 95.6015Z" fill="#967C5A"/>
<path id="Vector_89" d="M84.261 81.6696C83.8254 82.2259 83.396 82.7821 82.9604 83.3384C82.8733 83.4459 82.8547 83.5976 82.9604 83.6987C83.0476 83.7872 83.2342 83.8062 83.3151 83.6987C83.7507 83.1424 84.1801 82.5862 84.6157 82.0299C84.7028 81.9225 84.7215 81.7707 84.6157 81.6696C84.5285 81.5811 84.3419 81.5621 84.261 81.6696Z" fill="#967C5A"/>
<path id="Vector_90" d="M84.6031 82.9085C84.5222 83.1361 84.4538 83.2941 84.3293 83.528C84.2173 83.7429 84.0928 83.9452 83.9559 84.1474C83.8813 84.2549 83.9311 84.4382 84.0493 84.5014C84.18 84.571 84.3169 84.5267 84.3978 84.4066C84.6902 83.9831 84.9142 83.528 85.0885 83.0476C85.132 82.9211 85.0387 82.7631 84.9142 82.7315C84.7711 82.6999 84.6529 82.7758 84.6031 82.9085Z" fill="#967C5A"/>
<path id="Vector_91" d="M83.8565 67.0929C83.4832 67.3521 83.1409 67.6681 82.8547 68.0284C82.8111 68.0853 82.78 68.1359 82.78 68.2117C82.78 68.2749 82.8049 68.3508 82.8547 68.395C82.948 68.4835 83.1223 68.5088 83.2094 68.395C83.3463 68.2244 83.4894 68.0663 83.645 67.921C83.7196 67.8451 83.8005 67.7756 83.8814 67.7124C83.9001 67.6934 83.9188 67.6808 83.9374 67.6681C83.8814 67.7124 83.9499 67.6555 83.9686 67.6491C84.0121 67.6175 84.0557 67.5859 84.1055 67.548C84.2112 67.4722 84.2735 67.3204 84.1988 67.194C84.1303 67.0866 83.9686 67.0234 83.8503 67.0992L83.8565 67.0929Z" fill="#967C5A"/>
<path id="Vector_92" d="M84.3667 67.5164C84.18 67.9399 83.9933 68.3698 83.8066 68.7933C83.7506 68.9134 83.7693 69.0777 83.9 69.1473C84.012 69.2042 84.1862 69.1852 84.2484 69.0525C84.4351 68.6289 84.6218 68.1991 84.8085 67.7756C84.8645 67.6555 84.8458 67.4911 84.7151 67.4216C84.6031 67.3647 84.4289 67.3837 84.3667 67.5164Z" fill="#967C5A"/>
<path id="Vector_93" d="M88.511 72.6809C88.1501 73.6417 88.0381 74.8869 88.9653 75.5633C89.768 76.1449 90.8881 75.6518 91.5788 75.1082C92.2819 74.5519 92.8482 73.6796 92.9478 72.763C92.9851 72.3838 92.8482 71.8781 92.4002 71.8401C91.9148 71.8022 91.529 72.3838 91.3423 72.7757C91.137 73.2055 91.0623 73.6922 91.2303 74.1474C91.3983 74.6025 91.7717 74.9438 92.257 74.9944C93.234 75.1019 94.1114 74.1726 94.491 73.3446C94.6901 72.9084 94.8208 72.4154 94.8083 71.9286C94.8083 71.7327 94.7586 71.5178 94.6092 71.3787C94.4288 71.208 94.1674 71.2396 93.9869 71.385C93.346 71.9223 93.514 72.94 94.0056 73.5089C94.6839 74.2991 95.86 74.1031 96.5694 73.471C97.2476 72.8642 97.6397 71.5873 96.7747 70.9615C96.6502 70.873 96.4325 70.9615 96.4013 71.1132C96.2956 71.7074 96.7125 72.2194 97.2601 72.3838C97.9134 72.5797 98.573 72.2068 99.1082 71.8717C99.3882 71.7011 99.1331 71.2586 98.8531 71.4293C98.4673 71.6631 98.0255 71.9539 97.5588 71.916C97.2414 71.897 96.8183 71.6189 96.8805 71.2459C96.756 71.2965 96.6316 71.3471 96.5071 71.3976C97.0049 71.758 96.6876 72.5734 96.3702 72.9337C95.9782 73.3762 95.2999 73.6859 94.7212 73.4331C94.2794 73.2371 93.9869 72.6745 94.0741 72.1941C94.0927 72.0803 94.1363 71.9666 94.2047 71.8717C94.2172 71.8528 94.2483 71.8275 94.2607 71.8085C94.323 71.7643 94.3105 71.7516 94.2545 71.7516C94.2483 71.7959 94.2856 71.897 94.2856 71.9476C94.2856 72.2889 94.211 72.6366 94.0865 72.9527C93.8376 73.5911 93.3087 74.2548 92.6304 74.4445C91.865 74.6531 91.4792 73.8692 91.6846 73.2118C91.7343 73.0475 91.8152 72.8958 91.9086 72.7567C91.9895 72.6366 92.1326 72.3901 92.2819 72.3521C92.5309 72.2953 92.3877 72.8894 92.3628 73.0032C92.1948 73.6417 91.8215 74.2106 91.3237 74.6341C90.8196 75.0639 89.88 75.5696 89.2515 75.1398C88.4861 74.6151 88.7039 73.5342 88.9777 72.801C89.0959 72.4912 88.6044 72.3585 88.4924 72.6619L88.511 72.6809Z" fill="#9B7C5D"/>
<path id="Vector_94" d="M99.5624 89.6532C99.5375 90.2537 99.7553 90.8416 100.147 91.2904C100.234 91.3915 100.415 91.3915 100.502 91.2904C100.602 91.1829 100.595 91.0376 100.502 90.9301C100.371 90.7847 100.228 90.5382 100.166 90.3549C100.122 90.2348 100.098 90.1147 100.073 89.9882C100.073 89.9566 100.073 89.9566 100.073 89.9882C100.073 89.9756 100.073 89.9566 100.073 89.944C100.073 89.9124 100.073 89.8808 100.066 89.8492C100.066 89.786 100.066 89.7227 100.066 89.6595C100.066 89.5268 99.9482 89.394 99.8113 89.4004C99.6682 89.4067 99.5624 89.5141 99.5562 89.6595L99.5624 89.6532Z" fill="#9B7C5D"/>
<path id="Vector_95" d="M101.703 88.4648C101.523 89.1602 101.591 89.8871 101.89 90.5382C101.946 90.6646 102.126 90.6962 102.238 90.633C102.363 90.5572 102.388 90.4054 102.332 90.279C102.089 89.7544 102.051 89.1538 102.195 88.6039C102.232 88.4712 102.151 88.3258 102.02 88.2878C101.89 88.2499 101.747 88.3321 101.709 88.4648H101.703Z" fill="#9B7C5D"/>
<path id="Vector_96" d="M102.96 80.9679C103.352 81.6696 103.576 82.4534 103.601 83.2625C103.613 83.5912 104.117 83.5912 104.105 83.2625C104.074 82.3649 103.831 81.4926 103.396 80.7087C103.234 80.4243 102.798 80.6771 102.96 80.9679Z" fill="#9B7C5D"/>
<path id="Vector_97" d="M104.634 93.0477C104.771 93.3321 104.914 93.6166 105.051 93.901C105.113 94.0211 105.287 94.0654 105.399 93.9959C105.517 93.9137 105.555 93.7746 105.492 93.6419C105.356 93.3574 105.212 93.073 105.076 92.7885C105.013 92.6684 104.839 92.6242 104.727 92.6937C104.609 92.7759 104.572 92.9149 104.634 93.0477Z" fill="#9B7C5D"/>
<path id="Vector_98" d="M106.351 93.1741C106.482 93.4649 106.606 93.7556 106.737 94.0401C106.762 94.097 106.83 94.1412 106.886 94.1602C106.949 94.1792 107.03 94.1665 107.079 94.1349C107.135 94.097 107.179 94.0464 107.198 93.9832C107.216 93.9137 107.198 93.8505 107.173 93.7872C107.042 93.4965 106.918 93.2057 106.787 92.9212C106.762 92.8644 106.694 92.8201 106.638 92.8011C106.575 92.7822 106.494 92.7948 106.445 92.8264C106.389 92.8644 106.345 92.9149 106.326 92.9781C106.308 93.0477 106.326 93.1109 106.351 93.1741Z" fill="#9B7C5D"/>
<path id="Vector_99" d="M103.993 100.873C103.246 101.537 102.848 102.586 102.979 103.591C102.997 103.73 103.084 103.85 103.234 103.85C103.358 103.85 103.508 103.73 103.489 103.591C103.371 102.713 103.694 101.821 104.354 101.24C104.46 101.151 104.447 100.968 104.354 100.88C104.254 100.778 104.099 100.791 103.999 100.88L103.993 100.873Z" fill="#9B7C5D"/>
<path id="Vector_100" d="M104.964 103.269C104.796 103.446 104.671 103.68 104.628 103.926C104.578 104.198 104.609 104.464 104.721 104.717C104.746 104.774 104.821 104.818 104.87 104.837C104.933 104.856 105.014 104.843 105.063 104.811C105.119 104.774 105.163 104.723 105.182 104.66C105.2 104.59 105.182 104.527 105.157 104.464C105.157 104.476 105.175 104.508 105.163 104.476C105.163 104.464 105.157 104.457 105.15 104.445C105.144 104.42 105.138 104.394 105.132 104.375C105.132 104.356 105.119 104.331 105.119 104.312C105.119 104.293 105.119 104.255 105.119 104.325C105.119 104.312 105.119 104.299 105.119 104.293C105.119 104.243 105.119 104.198 105.119 104.148C105.119 104.122 105.119 104.103 105.119 104.078C105.119 104.047 105.113 104.129 105.119 104.097C105.119 104.084 105.119 104.072 105.126 104.053C105.132 104.009 105.144 103.964 105.157 103.92C105.163 103.895 105.175 103.87 105.182 103.851C105.194 103.819 105.163 103.895 105.182 103.863C105.182 103.851 105.188 103.844 105.194 103.832C105.213 103.787 105.238 103.749 105.262 103.712C105.262 103.705 105.281 103.693 105.281 103.686C105.25 103.724 105.275 103.705 105.281 103.686C105.3 103.667 105.312 103.648 105.331 103.629C105.424 103.535 105.43 103.364 105.331 103.269C105.231 103.174 105.07 103.168 104.976 103.269H104.964Z" fill="#9B7C5D"/>
<path id="Vector_101" d="M106.134 104.148V105.285C106.134 105.418 106.252 105.551 106.389 105.545C106.526 105.545 106.644 105.431 106.644 105.285V104.148C106.644 104.015 106.526 103.882 106.389 103.888C106.252 103.888 106.134 104.002 106.134 104.148Z" fill="#9B7C5D"/>
<path id="Vector_102" d="M104.018 107.131C104.005 107.618 104.198 108.098 104.541 108.44C104.634 108.535 104.808 108.541 104.895 108.44C104.989 108.339 104.995 108.181 104.895 108.079C104.864 108.048 104.827 108.01 104.802 107.972C104.796 107.966 104.79 107.947 104.777 107.947C104.796 107.972 104.802 107.978 104.79 107.966C104.765 107.934 104.752 107.909 104.74 107.89C104.715 107.852 104.69 107.808 104.665 107.763C104.653 107.744 104.646 107.719 104.634 107.7C104.634 107.687 104.621 107.681 104.621 107.669C104.609 107.637 104.646 107.725 104.621 107.669C104.59 107.58 104.559 107.485 104.541 107.39C104.541 107.365 104.541 107.34 104.528 107.321C104.528 107.365 104.534 107.346 104.528 107.321C104.528 107.308 104.528 107.296 104.528 107.283C104.528 107.232 104.528 107.182 104.528 107.131C104.528 106.998 104.41 106.866 104.273 106.872C104.136 106.878 104.024 106.986 104.018 107.131Z" fill="#9B7C5D"/>
<path id="Vector_103" d="M109.5 100.241C109.431 100.715 109.469 101.202 109.631 101.657C109.674 101.784 109.805 101.885 109.942 101.834C110.066 101.796 110.166 101.651 110.116 101.518C110.079 101.423 110.054 101.322 110.029 101.227C110.016 101.177 110.004 101.12 109.998 101.063C109.998 101.038 109.991 101.019 109.985 100.993C109.991 101.05 109.985 100.968 109.985 100.956C109.973 100.854 109.973 100.753 109.973 100.646C109.973 100.595 109.973 100.545 109.979 100.494C109.979 100.469 109.979 100.45 109.979 100.425C109.979 100.412 109.991 100.317 109.979 100.374C109.991 100.304 109.991 100.241 109.954 100.178C109.923 100.127 109.861 100.077 109.805 100.058C109.687 100.033 109.512 100.096 109.494 100.235L109.5 100.241Z" fill="#9B7C5D"/>
<path id="Vector_104" d="M91.4231 84.5079C91.9582 84.5711 92.512 84.5205 93.0285 84.3688C93.153 84.3309 93.2463 84.1855 93.2027 84.0528C93.1592 83.92 93.0285 83.8315 92.8916 83.8758C92.7734 83.9137 92.6489 83.939 92.5307 83.9643C92.3938 83.9895 92.3254 84.0022 92.1822 84.0085C91.9271 84.0275 91.672 84.0212 91.4231 83.9959C91.2924 83.9832 91.1617 84.1223 91.1679 84.255C91.1742 84.4067 91.2799 84.4952 91.4231 84.5142V84.5079Z" fill="#9B7C5D"/>
<path id="Vector_105" d="M92.1886 82.8009C92.4188 82.7061 92.6553 82.6113 92.8855 82.5165C92.9477 82.4912 93.0037 82.4596 93.0348 82.3964C93.0659 82.3395 93.0784 82.2573 93.0597 82.2004C93.0411 82.1372 93.0037 82.0803 92.9415 82.0487C92.8855 82.0171 92.8108 81.9981 92.7486 82.0234C92.5184 82.1183 92.2819 82.2131 92.0517 82.3079C91.9894 82.3332 91.9334 82.3648 91.9023 82.428C91.8712 82.4849 91.8588 82.5671 91.8774 82.624C91.8961 82.6872 91.9334 82.7441 91.9957 82.7757C92.0517 82.8073 92.1263 82.8262 92.1886 82.8009Z" fill="#9B7C5D"/>
<path id="Vector_106" d="M88.3555 84.6214C88.4924 84.7162 88.6355 84.8111 88.7724 84.9059C88.8222 84.9438 88.9093 84.9501 88.9653 84.9312C89.0213 84.9122 89.0898 84.868 89.1147 84.8111C89.1458 84.7542 89.1582 84.6783 89.1396 84.6151C89.1209 84.5519 89.0773 84.5013 89.0213 84.4634C88.8844 84.3686 88.7413 84.2738 88.6044 84.1789C88.5546 84.141 88.4675 84.1347 88.4115 84.1537C88.3555 84.1726 88.2871 84.2169 88.2622 84.2738C88.2311 84.3307 88.2186 84.4065 88.2373 84.4697C88.256 84.5329 88.2995 84.5835 88.3555 84.6214Z" fill="#9B7C5D"/>
<path id="Vector_107" d="M83.4645 79.5015C83.5143 79.7859 83.5641 80.0704 83.6138 80.3548C83.6263 80.4117 83.6823 80.4813 83.7321 80.5066C83.7881 80.5382 83.869 80.5508 83.925 80.5318C83.9872 80.5129 84.0432 80.4749 84.0743 80.4117C84.1054 80.3485 84.1117 80.2853 84.0992 80.2158C84.0494 79.9313 83.9997 79.6469 83.9499 79.3624C83.9374 79.3055 83.8814 79.236 83.8316 79.2107C83.7756 79.1791 83.6947 79.1665 83.6387 79.1854C83.5765 79.2044 83.5205 79.2423 83.4894 79.3055C83.4583 79.3687 83.4521 79.4319 83.4645 79.5015Z" fill="#9B7C5D"/>
<path id="Vector_108" d="M85.0387 79.7036C85.1756 79.8933 85.3187 80.0829 85.4556 80.2725C85.4992 80.3294 85.5365 80.3737 85.6049 80.3926C85.6672 80.4116 85.7481 80.399 85.7978 80.3674C85.8539 80.3294 85.8974 80.2789 85.9161 80.2157C85.9285 80.1524 85.9285 80.0703 85.8912 80.0197C85.7543 79.8301 85.6112 79.6404 85.4743 79.4508C85.4307 79.3939 85.3934 79.3497 85.3249 79.3307C85.2627 79.3117 85.1818 79.3244 85.132 79.356C85.076 79.3939 85.0325 79.4445 85.0138 79.5077C85.0013 79.5709 85.0013 79.6531 85.0387 79.7036Z" fill="#9B7C5D"/>
<path id="Vector_109" d="M73.3153 71.3977C73.6264 71.7959 73.9935 72.1373 74.4042 72.4217C74.8523 72.7314 75.3439 72.8958 75.823 73.1234C76.1839 73.294 76.7502 73.7365 76.4328 74.1916C76.215 74.514 75.7359 74.5962 75.3812 74.6594C75.2443 74.6847 75.1696 74.849 75.207 74.9755C75.2941 75.2915 75.2816 75.6139 75.0452 75.8604C74.7963 76.1196 74.4291 76.2207 74.0869 76.2776C73.7695 76.3345 73.9002 76.8276 74.2238 76.7707C74.678 76.6885 75.1634 76.5178 75.4683 76.1512C75.7794 75.7719 75.823 75.2978 75.6986 74.8364C75.6425 74.9439 75.5803 75.045 75.5243 75.1525C75.9786 75.0703 76.4888 74.9312 76.7937 74.5583C77.1733 74.1031 77.0489 73.4773 76.6631 73.0728C76.2337 72.6177 75.5741 72.4976 75.0452 72.2068C74.5162 71.9097 74.0558 71.5051 73.6824 71.0247C73.4771 70.7656 73.1224 71.1322 73.3277 71.385L73.3153 71.3977Z" fill="#7F4A28"/>
<path id="Vector_110" d="M44.4297 61.6946C47.2734 61.9854 50.0176 63.1421 52.2267 64.9816C52.4756 65.1902 52.8365 64.8299 52.5814 64.6213C50.2603 62.687 47.4166 61.4923 44.4297 61.1889C44.1061 61.1573 44.1061 61.6693 44.4297 61.7009V61.6946Z" fill="#1F203A"/>
<path id="Vector_111" d="M37.5038 20.3921C38.7172 23.0976 39.3022 26.1444 41.2374 28.4706C41.7228 29.0521 42.2828 29.5641 42.9175 29.9687C43.1913 30.1457 43.4465 29.7032 43.1727 29.5262C40.7956 27.9965 39.8249 25.1393 38.9039 22.5855C38.6052 21.7575 38.3003 20.9294 37.9394 20.1266C37.8025 19.8232 37.3669 20.0887 37.5038 20.3858V20.3921Z" fill="#532813"/>
</g>
</g>
</g>
<defs>
<clipPath id="clip0_3499_1223">
<rect width="128" height="116" fill="white"/>
</clipPath>
</defs>
</svg>
