<svg width="136" height="115" viewBox="0 0 136 115" fill="none" xmlns="http://www.w3.org/2000/svg">
<g id="Stray-Dogs 1" clip-path="url(#clip0_3499_1014)">
<g id="Group">
<g id="Layer 2">
<g id="Layer 1">
<g id="Group_2">
<path id="Vector" d="M51.0371 15.5094C50.6316 16.0139 49.8882 16.1554 49.2615 15.9954C48.6348 15.8355 48.0942 15.4356 47.6088 15.005C47.0497 14.5066 46.5213 13.6577 47.0006 13.0855C47.234 12.8087 47.6457 12.7164 47.8545 12.4273C48.3338 11.769 47.4552 10.9508 47.3508 10.1449C47.2586 9.43737 47.7931 8.79755 48.3829 8.40382C48.9727 8.01009 49.6608 7.73325 50.1585 7.22879C51.0432 6.32444 51.1538 4.86025 52.0446 3.9559C52.616 3.37761 53.4823 3.10077 54.281 3.24842C55.0797 3.39607 55.7924 3.96205 56.118 4.70645L51.0371 15.5094Z" fill="#010101"/>
<path id="Vector_2" d="M62.7901 56.1437C63.9697 56.9373 65.2599 57.5648 66.6115 58.0016C67.4901 58.2846 68.4055 58.4938 69.2411 58.8813C71.1272 59.7549 72.5465 61.5759 72.9335 63.6184C73.0257 64.0983 72.9827 64.7258 72.5219 64.898C72.1348 65.0395 71.7293 64.7381 71.4774 64.412C71.2255 64.086 71.0044 63.6922 70.6173 63.5507C70.9982 63.9568 71.3914 64.3751 71.5757 64.898C71.7662 65.421 71.7048 66.0792 71.2808 66.436C70.8569 66.799 70.0582 66.6452 69.9231 66.11C70.2241 66.2453 70.3163 66.7006 70.0889 66.9467C69.8616 67.1927 69.407 67.1374 69.2411 66.8482C68.8602 67.1497 68.3134 66.8667 67.9325 66.5652C64.7868 64.1167 62.4952 60.5793 58.9932 58.6783C59.5953 57.8293 60.0253 56.8573 60.2649 55.8484L62.7778 56.1498L62.7901 56.1437Z" fill="#CD7C4D"/>
<path id="Vector_3" d="M71.8524 64.9841C71.41 64.6026 71.0291 64.1535 70.7158 63.6552C70.5622 63.4091 70.427 63.1446 70.3103 62.8739C70.2611 62.757 70.2242 62.6217 70.1505 62.5171C70.0645 62.3879 69.9355 62.3941 69.7942 62.4002C69.2842 62.4248 68.8112 62.4125 68.3197 62.2403C67.8404 62.0741 67.3981 61.8035 67.0294 61.4528C66.6117 61.0529 66.2983 60.5546 66.1324 60.0071C66.0403 59.7056 66.5134 59.5764 66.6055 59.8779C66.8881 60.8068 67.6684 61.5389 68.59 61.8158C68.8173 61.8834 69.0569 61.9265 69.2965 61.9327C69.5546 61.9388 69.8126 61.8834 70.0645 61.9203C70.3348 61.9634 70.5191 62.1357 70.6297 62.3818C70.7465 62.6401 70.8448 62.8985 70.9799 63.1446C71.2933 63.7106 71.7049 64.2089 72.1964 64.6395C72.436 64.8487 72.0858 65.1932 71.8524 64.9841Z" fill="#7F4A28"/>
<path id="Vector_4" d="M89.9397 70.0286C89.9397 70.0286 84.6805 63.8028 82.0817 60.8621C79.4829 57.9153 75.0286 52.9137 71.244 55.2084C68.0062 57.9153 65.6162 63.1876 63.7731 67.0818C61.9299 70.9822 61.1742 71.6651 63.4351 75.5655C65.008 78.5061 65.008 80.7639 64.3199 82.2035C63.6379 83.6431 61.9299 85.7655 61.9975 90.2073C62.0651 94.6552 61.1066 103.207 62.1326 106.289C63.1587 109.365 66.7098 110.737 68.3502 111.69C69.9906 112.65 69.3025 113.4 71.7662 113.197C74.2299 112.988 84.5454 114.36 87.7586 113.745C90.9718 113.13 96.9805 109.912 100.059 107.316C103.137 104.714 104.777 103.828 101.834 99.583C98.8912 95.3381 96.8453 90.8225 96.8453 90.8225C96.8453 90.8225 97.257 86.9959 96.2985 86.1716C95.3401 85.3533 92.0593 82.4065 92.0593 82.4065L92.944 78.7768C92.944 78.7768 96.2924 76.7282 89.9397 70.0225V70.0286Z" fill="#505052"/>
<g id="Group_3" style="mix-blend-mode:multiply" opacity="0.5">
<path id="Vector_5" d="M61.9914 90.2075C61.9238 85.7596 63.6318 83.6371 64.3138 82.2037C64.922 80.924 64.9896 78.9923 63.8837 76.5007C63.9144 76.5561 63.9452 76.6053 63.9759 76.673C65.7576 80.2412 68.252 84.4307 66.9126 83.0034C65.5794 81.5762 66.3781 84.2523 68.3564 89.7276C70.3348 95.1968 70.6542 98.0821 70.6542 98.0821C70.6542 98.0821 67.183 89.34 66.4703 87.5559C65.7576 85.7719 65.6716 90.3244 65.3091 96.1196C64.9528 101.915 65.1309 103.877 67.9817 106.732C70.8324 109.586 71.6311 111.727 79.9191 112.355C88.201 112.982 91.3221 111.727 94.2589 108.251C97.1956 104.775 97.5581 102.721 96.7533 97.0116C95.9546 91.3025 95.2357 92.373 91.5863 96.8332C87.9307 101.293 87.0398 102.628 81.2524 104.234C74.9242 105.034 70.2979 100.58 72.7001 101.38C82.5856 104.677 88.1089 100.131 90.6033 95.9412C93.0977 91.7455 96.0344 87.7344 94.3449 86.4855C92.6553 85.2366 92.1147 83.9878 90.6893 86.2148C91.488 83.6309 90.0626 85.9503 85.4363 89.1616C79.6488 92.8159 77.5046 91.9239 72.0735 86.5716C76.0854 89.9614 79.1143 91.118 82.1494 89.7645C85.1906 88.4111 87.7525 84.6091 91.2545 80.7272C91.8566 80.0566 92.3911 79.5275 92.8581 79.1092L92.0471 82.4128C92.0471 82.4128 95.3279 85.3535 96.2863 86.1779C97.2448 87.0023 96.8331 90.8288 96.8331 90.8288C96.8331 90.8288 98.879 95.3444 101.822 99.5893C104.759 103.834 103.118 104.72 100.046 107.322C96.9744 109.925 90.9596 113.142 87.7464 113.751C84.5332 114.373 74.2177 113.001 71.754 113.204C69.2964 113.407 69.9784 112.656 68.338 111.697C66.6976 110.737 63.1465 109.371 62.1204 106.295C61.0944 103.213 62.0529 94.6615 61.9853 90.2136L61.9914 90.2075Z" fill="#505052"/>
</g>
<g id="Vector_6" style="mix-blend-mode:multiply" opacity="0.5">
<path d="M79.1756 58.7581C79.1756 58.7581 82.1124 61.908 86.5175 67.0203C90.9226 72.1327 92.606 74.5873 91.2728 76.6852C89.9458 78.7892 85.8847 82.1482 82.9479 85.1627C80.0112 88.171 76.9331 87.7527 74.2052 85.2303C71.4774 82.708 66.163 76.8943 65.5301 73.5353C64.8973 70.1702 66.163 66.1098 67.3487 63.4521C68.5345 60.7883 72.872 52.9445 79.1695 58.7581H79.1756Z" fill="#505052"/>
</g>
<g id="Vector_7" style="mix-blend-mode:multiply" opacity="0.5">
<path d="M67.3549 63.446C67.5761 62.9477 67.9078 62.2649 68.3441 61.5266C67.7911 62.8862 67.4286 64.3565 67.2627 65.9253C67.0477 67.9863 66.888 71.0623 69.0752 72.2435C70.0275 72.7541 71.1088 72.9325 72.1778 72.7172C72.7185 72.6064 73.9964 72.4649 74.3036 71.8989C74.7828 71.0254 74.8934 70.0226 75.4648 69.1736C75.6982 68.8229 75.944 68.423 76.3065 68.1893C76.8717 67.8324 77.5537 68.3615 77.4492 69.0013C77.3816 69.4197 77.2403 69.9118 77.3202 70.3302C77.4247 70.8839 77.8117 71.6406 78.4138 71.8005C79.5013 72.0835 79.9621 71.2161 80.8406 70.7731C82.7882 69.7949 84.4163 72.8648 86.1428 70.8654C87.304 69.5181 86.8124 68.0047 86.1182 66.559C86.2472 66.7128 86.3762 66.8543 86.5114 67.0142C90.9165 72.1266 92.5999 74.5812 91.2667 76.6791C89.9397 78.7831 85.8786 82.1421 82.9418 85.1566C80.0051 88.1649 76.927 87.7466 74.1991 85.2243C71.4713 82.7019 66.1569 76.8882 65.524 73.5292C64.8912 70.1641 66.1569 66.1037 67.3426 63.446H67.3549Z" fill="#505052"/>
</g>
<g id="Clip path group">
<mask id="mask0_3499_1014" style="mask-type:luminance" maskUnits="userSpaceOnUse" x="65" y="56" width="27" height="32">
<g id="clippath">
<path id="Vector_8" d="M79.1756 58.7581C79.1756 58.7581 82.1124 61.908 86.5175 67.0203C90.9226 72.1327 92.606 74.5873 91.2728 76.6852C89.9458 78.7892 85.8847 82.1482 82.9479 85.1627C80.0112 88.171 76.9331 87.7527 74.2052 85.2303C71.4774 82.708 66.163 76.8943 65.5301 73.5353C64.8973 70.1702 66.163 66.1098 67.3487 63.4521C68.5345 60.7883 72.872 52.9445 79.1695 58.7581H79.1756Z" fill="white"/>
</g>
</mask>
<g mask="url(#mask0_3499_1014)">
<g id="Group_4">
<g id="Group_5">
<g id="Group_6">
<g id="Group_7">
<path id="Vector_9" d="M76.8533 84.1722C76.8533 84.1722 75.5938 85.0335 74.789 85.6056C73.9841 86.1778 73.2776 86.2639 73.2776 86.2639C73.2776 86.2639 73.3759 85.7779 73.6769 85.0396C73.978 84.2952 74.6784 83.9815 74.6784 83.9815H74.6231C74.6968 83.9569 74.7583 83.9384 74.8135 83.9323C75.2006 83.8523 76.8594 84.1722 76.8594 84.1722H76.8533Z" fill="#F89A1C"/>
<g id="Vector_10" style="mix-blend-mode:multiply" opacity="0.4">
<path d="M75.6614 83.9753C76.2327 84.0492 76.8533 84.1722 76.8533 84.1722C76.8533 84.1722 75.5938 85.0335 74.7889 85.6056C74.2606 85.9809 73.7752 86.147 73.5049 86.2208C74.3159 85.5564 75.0163 84.7936 75.6614 83.9753Z" fill="#FDC110"/>
</g>
<path id="Vector_11" d="M67.2444 75.4855L66.8328 74.6488L67.5885 74.6057L67.8895 74.0028L68.8602 74.3412L69.192 73.8921L70.046 74.0767L70.4023 73.7445L71.4591 73.9905L71.9752 73.5414L73.0135 73.8552L73.3452 73.363L74.1132 73.7322L74.6969 73.3938L74.9058 74.169C73.8245 74.7965 71.2809 74.7534 70.0951 74.8334C68.9032 74.9133 67.2505 75.4855 67.2505 75.4855H67.2444Z" fill="#F89A1C"/>
<path id="Vector_12" d="M81.0804 86.1162L80.5951 86.7745L79.5875 86.7991L79.397 87.2851L78.3833 87.2236L78.2174 87.7342L77.3511 87.9864C77.3511 87.9864 77.1668 88.657 77.0747 88.6139C76.9825 88.5709 76.3435 88.6816 76.3435 88.6816L75.8336 89.1738L75.6309 88.4478C75.6309 88.4478 76.9456 87.3343 77.6952 87.0575C78.4447 86.7806 81.5289 85.9624 82.2171 85.0519C82.2293 85.0334 82.2416 85.0211 82.2539 85.0027L82.6533 85.9563L81.0804 86.1162Z" fill="#F89A1C"/>
<path id="Vector_13" d="M77.6951 87.0574C76.9455 87.3281 75.6307 88.4478 75.6307 88.4478H75.3543L74.5003 87.4265L73.2776 86.2699C73.2776 86.2699 73.9842 86.1838 74.789 85.6117C75.6 85.0395 76.8533 84.1783 76.8533 84.1783C76.8533 84.1783 75.2007 83.8584 74.8075 83.9383C74.7583 83.9506 74.6907 83.9691 74.617 83.9937L72.0734 84.3382C72.0734 84.3382 71.4713 83.2801 71.1826 82.7387C70.8938 82.1973 69.2411 80.4071 69.2411 80.4071L68.7312 77.694L67.441 75.8976L67.2444 75.4977C67.2444 75.4977 68.8971 74.9194 70.089 74.8395C71.2747 74.7595 73.8183 74.7964 74.8996 74.175L76.1775 76.5005L79.4891 79.4535L80.9329 83.4462L82.1862 84.855L82.2538 85.0088C82.2538 85.0088 82.2292 85.0395 82.2169 85.058C81.535 85.9685 78.4446 86.7929 77.6951 87.0636V87.0574Z" fill="#FEE600"/>
</g>
<path id="Vector_14" d="M82.2108 85.0519C82.2108 85.0519 82.2354 85.0211 82.2477 85.0027L82.1801 84.8489L80.9268 83.4401L79.4829 79.4474L76.1714 76.4944L74.8935 74.1689C73.8122 74.7965 71.2686 74.7534 70.0829 74.8334C68.891 74.9133 67.2383 75.4855 67.2383 75.4855L67.4349 75.8915L68.7251 77.6879L69.235 80.401C69.235 80.401 70.8877 82.185 71.1765 82.7326C71.4652 83.274 72.0673 84.3321 72.0673 84.3321L74.6109 83.9876C74.6846 83.963 74.746 83.9445 74.8013 83.9322C75.1884 83.8522 76.8472 84.1722 76.8472 84.1722C76.8472 84.1722 75.5878 85.0334 74.7829 85.6056C73.9781 86.1777 73.2715 86.2638 73.2715 86.2638L74.4942 87.4204L75.3481 88.4478H75.6246C75.6246 88.4478 76.9394 87.3282 77.6889 87.0513C78.4385 86.7745 81.5227 85.9563 82.2108 85.0457V85.0519ZM79.2433 85.2857L78.3279 86.2577L76.1776 87.4081L75.5755 88.171C75.5755 88.171 75.6 86.4115 75.557 86.3684C75.5079 86.3254 74.8321 87.1067 74.8321 87.1067L74.1501 86.2885C74.1501 86.2885 75.6861 85.5379 76.1161 85.1134C76.5462 84.6889 77.5108 83.883 77.5906 83.8646C77.6644 83.8461 76.368 83.8399 76.368 83.8399C76.368 83.8399 74.1501 83.1386 74.1992 83.1817C74.2423 83.2247 72.9029 83.803 72.8169 83.8646C72.7247 83.9261 72.3745 83.8646 72.3745 83.8646L69.6344 80.4748L69.3579 79.2936L68.8725 77.3803L68.2827 75.9899L69.2657 75.67L69.5545 76.1191L69.6651 78.3954L70.3901 75.9284L72.7063 75.264C72.7063 75.264 74.4266 74.6304 74.4757 74.618C74.5187 74.5996 75.0471 76.3714 75.0778 76.4329C75.1085 76.4944 75.514 77.3495 75.7659 77.528C76.0178 77.7064 76.2882 79.2382 76.3373 79.349C76.3865 79.4535 75.9134 79.958 75.9134 79.958L72.8845 78.0755L70.9062 77.6264C70.9062 77.6264 74.6846 79.4412 75.4833 80.2595C76.282 81.0777 77.5108 82.7695 77.5538 82.8126C77.6029 82.8556 76.921 81.09 76.921 81.09C76.921 81.09 77.222 80.4502 77.3019 80.4379C77.3756 80.4194 78.3771 81.9021 78.3525 81.9697C78.3218 82.0313 79.2433 83.2863 79.5505 83.4278C79.8577 83.5754 80.8039 84.5228 80.8653 84.5536C80.9267 84.5843 79.2556 85.2857 79.2556 85.2857H79.2433Z" fill="#FDC110"/>
<g id="Group_8">
<g id="Vector_15" style="mix-blend-mode:screen">
<path d="M71.7971 82.7081C71.195 82.0682 70.6482 81.4161 70.1075 80.721C69.6959 80.1857 69.7573 79.4044 69.6836 78.7708C69.6836 78.7523 69.702 78.7277 69.7143 78.7523C69.9785 79.3183 69.8433 80.0381 70.2365 80.5487C70.7772 81.2439 71.2871 81.9637 71.8278 82.6527C71.8462 82.6773 71.8217 82.7388 71.7971 82.7081Z" fill="#7CBDE8"/>
</g>
<g id="Vector_16" style="mix-blend-mode:screen">
<path d="M72.5834 76.0392C72.0858 76.2607 71.3731 76.1377 70.8447 76.1377C70.8386 76.1377 70.8386 76.1192 70.8447 76.113C71.3301 75.9408 71.7478 75.9162 72.2578 75.8362C72.866 75.7378 73.4497 75.4671 74.0026 75.1841C74.0211 75.1718 74.0334 75.221 74.0149 75.2333C73.5603 75.5286 73.0811 75.8239 72.5895 76.0454L72.5834 76.0392Z" fill="#7CBDE8"/>
</g>
<g id="Vector_17" style="mix-blend-mode:screen">
<path d="M77.1299 83.237C77.1176 83.0339 76.8657 82.8063 76.749 82.6525C76.5831 82.4187 76.4234 82.1727 76.2514 81.9389C75.8643 81.416 75.4957 80.8992 75.0595 80.4132C75.0349 80.3886 75.0595 80.3148 75.0963 80.3455C75.6554 80.7946 76.1162 81.2622 76.5278 81.8405C76.7613 82.1727 77.1852 82.8063 77.1299 83.237C77.1299 83.2431 77.1238 83.237 77.1176 83.237H77.1299Z" fill="#7CBDE8"/>
</g>
<g id="Vector_18" style="mix-blend-mode:screen">
<path d="M75.7415 87.6849C75.7722 87.205 75.7292 86.6821 75.9565 86.2392C75.9872 86.1715 76.0548 86.2146 76.0548 86.2761C76.0425 86.7498 75.9073 87.2481 75.7476 87.691H75.7415V87.6849Z" fill="#7CBDE8"/>
</g>
<g id="Vector_19" style="mix-blend-mode:screen">
<path d="M72.1596 74.5134C70.642 74.6672 69.2044 74.7964 67.7422 75.2516C67.736 75.2516 67.736 75.2393 67.7422 75.2393C68.375 74.9871 69.0078 74.7348 69.6836 74.6303C70.4946 74.5011 71.3424 74.5257 72.1657 74.4888C72.178 74.4888 72.178 74.5134 72.1657 74.5134H72.1596Z" fill="#7CBDE8"/>
</g>
<g id="Vector_20" style="mix-blend-mode:screen">
<path d="M71.5328 74.0644C71.5328 74.0644 71.5205 74.0521 71.5328 74.0521C71.6495 73.9167 71.7786 73.7814 71.9322 73.7014C71.9567 73.6891 71.9567 73.7383 71.9444 73.7506C71.8216 73.8675 71.6618 73.9475 71.5328 74.0705V74.0644Z" fill="#7CBDE8"/>
</g>
</g>
</g>
<g id="Group_9">
<g id="Group_10">
<path id="Vector_21" d="M80.0728 74.1381L75.5263 71.0313L77.4739 68.6074L76.6261 67.863C76.6261 67.863 75.3297 69.278 74.7399 70.0655C74.1686 70.8345 73.9781 71.1421 75.2437 71.9972C76.5032 72.8585 79.5506 74.8456 79.5506 74.8456L80.0728 74.1381Z" fill="#5BB353"/>
<g id="Vector_22" style="mix-blend-mode:multiply">
<path d="M74.7461 70.0655C75.336 69.278 76.6323 67.863 76.6323 67.863L77.0685 68.2445C76.6077 68.7305 76.1101 69.1796 75.637 69.6594C75.3482 69.9547 74.998 70.2193 74.7953 70.5884C74.5127 71.099 75.1516 71.6342 75.5141 71.868C76.9334 72.7662 78.4386 73.5414 79.8701 74.4211L79.5568 74.8517C79.5568 74.8517 76.5094 72.8585 75.2499 72.0034C73.9905 71.1482 74.1748 70.8406 74.7461 70.0716V70.0655Z" fill="#5BB353"/>
</g>
<g id="Group_11">
<path id="Vector_23" d="M82.3276 71.825L84.2691 75.0425L90.3515 78.8875L88.9568 84.4366L80.5643 80.8131L77.7935 78.1677L82.3276 71.825Z" fill="#E21F26"/>
<g id="Vector_24" style="mix-blend-mode:multiply">
<path d="M82.3275 71.825L82.5241 72.1449C82.2415 73.8798 82.0203 75.6393 81.3507 77.2757C81.3322 77.3188 81.3691 77.368 81.3998 77.3987C82.2845 78.3831 83.0832 79.4412 83.8696 80.5117C83.9003 80.5547 84.0048 80.6163 84.0171 80.524C84.0785 80.2594 84.1031 79.9949 84.1277 79.7181C84.1522 79.4289 84.0785 78.9552 84.4533 79.2198C84.8957 79.5335 85.3442 79.835 85.7927 80.1426C86.7388 80.7885 87.6727 81.4529 88.5328 82.2219C88.5697 82.2588 88.6434 82.2835 88.6618 82.2096C88.9322 81.3361 89.1103 80.4255 89.3131 79.5335C89.3991 79.1521 89.4851 78.7645 89.5895 78.3892L90.3575 78.8752L88.9629 84.4305L80.5765 80.807L77.8057 78.1616L82.3398 71.8188L82.3275 71.825Z" fill="#E21F26"/>
</g>
<g id="Vector_25" style="mix-blend-mode:multiply">
<path d="M80.3861 77.7433C80.8162 78.543 81.3261 79.3059 81.9528 79.9703C82.647 80.7085 83.6362 80.9731 84.4103 81.6067C84.4472 81.6375 84.5271 81.6683 84.5455 81.5944C84.6438 81.1453 84.6254 80.6901 84.6868 80.2348C85.08 81.1699 85.4118 82.1297 86.3149 82.7018C87.1751 83.2493 88.1212 83.6185 89.0612 84.0122L88.9568 84.4305L80.5704 80.807L77.7996 78.1616L79.5198 75.75C79.7717 76.4329 80.0482 77.0973 80.3923 77.7371L80.3861 77.7433Z" fill="#E21F26"/>
</g>
<path id="Vector_26" d="M77.1299 77.9832L81.9036 71.3206L82.4627 71.7758L77.7197 78.4508L77.1299 77.9832Z" fill="#A6B2AC"/>
<path id="Vector_27" d="M77.1299 77.9832L81.9036 71.3206L81.9344 71.3882L77.7197 78.4508L77.1299 77.9832Z" fill="#7F8884"/>
</g>
</g>
<g id="Vector_28" style="mix-blend-mode:color-dodge">
<path d="M89.0858 78.6723L84.1953 75.5347L83.4765 76.3345L83.7038 75.0118L82.6716 72.9263L83.1508 75.0241L83.0648 77.448L84.2445 76.2545L89.0858 78.6723Z" fill="#E75524"/>
</g>
</g>
<g id="Group_12">
<g id="Group_13">
<g id="Group_14">
<path id="Vector_29" d="M88.2686 73.1662C88.416 72.6986 88.5389 72.3172 88.6003 72.1388C88.8584 71.3944 89.0611 70.8961 89.4973 70.9699C91.3466 71.259 92.7351 72.3049 92.7351 72.3049L92.3788 72.9939C92.3788 72.9939 89.8782 71.8804 89.6939 72.1326C89.6079 72.311 89.4482 72.8032 89.2639 73.4184C89.098 73.363 88.9259 73.3077 88.7416 73.2584C88.5819 73.2215 88.4222 73.1908 88.2686 73.1723V73.1662Z" fill="#DFEFE7"/>
<path id="Vector_30" d="M88.195 77.2818L87.0952 76.9804C87.0952 76.9804 87.0952 76.9804 87.1014 76.9619C87.4884 77.085 87.8509 77.1895 88.195 77.2757V77.288V77.2818Z" fill="#DFEFE7"/>
<path id="Vector_31" opacity="0.9" d="M88.2686 73.1662C87.8324 74.5566 87.1688 76.7344 87.1013 76.9559C86.2104 76.6791 85.209 76.3161 84.0969 75.8424C84.3181 74.3967 85.8909 72.8525 88.2686 73.1662Z" fill="#7ED0E0"/>
<path id="Vector_32" opacity="0.9" d="M92.1084 77.7926C92.1084 77.7926 90.7691 77.9341 88.1948 77.2696C88.2378 77.1097 88.8276 74.9072 89.27 73.4185C92.8887 74.6858 92.1084 77.7926 92.1084 77.7926Z" fill="#7ED0E0"/>
<path id="Vector_33" opacity="0.9" d="M88.7418 73.2522C88.9261 73.3014 89.1042 73.3568 89.264 73.4121C88.8216 74.9009 88.2318 77.1034 88.1888 77.2633C87.8509 77.1772 87.4823 77.0726 87.0952 76.9496C87.1628 76.7281 87.8263 74.5441 88.2625 73.1599C88.4161 73.1845 88.5759 73.2091 88.7356 73.246L88.7418 73.2522Z" fill="#62C2CB"/>
</g>
<path id="Vector_34" opacity="0.9" d="M92.4772 78.0631L92.256 78.746L91.826 78.8629C91.826 78.8629 88.2072 79.1151 83.6608 76.8758L83.415 76.7097L83.6055 75.9714C88.5574 78.4138 92.4711 78.0631 92.4711 78.0631H92.4772Z" fill="#7ED0E0"/>
<path id="Vector_35" opacity="0.9" d="M92.1085 77.7925L92.4771 78.0632C92.4771 78.0632 88.5635 78.4138 83.6116 75.9715L84.1031 75.8423C89.3315 78.0878 92.1146 77.7925 92.1146 77.7925H92.1085Z" fill="#41B3BF"/>
</g>
<g id="Group_15">
<path id="Vector_36" d="M89.6693 72.2001C89.6693 72.2001 89.6201 72.1509 89.5464 72.0894C89.4727 72.0279 89.3682 71.9479 89.2576 71.8679C89.147 71.7941 89.0364 71.7203 88.9504 71.671C88.8644 71.6218 88.803 71.5911 88.803 71.5911C88.803 71.5911 88.8521 71.6403 88.9259 71.7018C88.9996 71.7695 89.104 71.8495 89.2146 71.9233C89.3191 71.9971 89.4358 72.0709 89.5218 72.1201C89.6078 72.1694 89.6693 72.2001 89.6693 72.2001Z" fill="#B1C8BC"/>
<path id="Vector_37" d="M89.7061 72.1019C89.7061 72.1019 89.7 72.0835 89.6816 72.0588C89.6631 72.0342 89.6386 71.9973 89.6078 71.9543C89.5464 71.8681 89.4665 71.7574 89.3744 71.6528C89.2822 71.5482 89.1901 71.4436 89.1163 71.3698C89.0795 71.3329 89.0487 71.3021 89.0242 71.2837C88.9996 71.2591 88.9873 71.2529 88.9873 71.2529C88.9873 71.2529 88.9935 71.2714 89.0119 71.296C89.0303 71.3206 89.0549 71.3575 89.0795 71.4006C89.1471 71.4867 89.2269 71.5974 89.3191 71.702C89.4112 71.8066 89.5034 71.9112 89.5771 71.985C89.614 72.0219 89.6508 72.0527 89.6693 72.0712C89.6938 72.0896 89.7061 72.1019 89.7061 72.1019Z" fill="#B1C8BC"/>
<path id="Vector_38" d="M89.7859 72.0833C89.7859 72.0833 89.7859 72.0648 89.7675 72.0341C89.7552 72.0033 89.7368 71.9603 89.7122 71.911C89.6692 71.8065 89.6016 71.6711 89.534 71.5419C89.4603 71.4066 89.3866 71.2774 89.3251 71.1851C89.2944 71.1359 89.2699 71.099 89.2514 71.0682C89.233 71.0436 89.2207 71.0251 89.2207 71.0251C89.2207 71.0251 89.2268 71.0375 89.2391 71.0744C89.2514 71.1051 89.2699 71.1482 89.2883 71.1974C89.3313 71.302 89.3989 71.4373 89.4726 71.5665C89.5402 71.7019 89.6201 71.8249 89.6815 71.9233C89.7122 71.9726 89.7368 72.0095 89.7552 72.0402C89.7736 72.071 89.7859 72.0833 89.7859 72.0833Z" fill="#B1C8BC"/>
<path id="Vector_39" d="M89.8967 72.0956C89.8967 72.0956 89.8967 72.0833 89.8783 72.0464C89.866 72.0157 89.8537 71.9665 89.8353 71.9111C89.7984 71.8004 89.7431 71.6527 89.6878 71.5112C89.6264 71.3697 89.5588 71.2282 89.5096 71.1236C89.4851 71.0683 89.4605 71.0313 89.4421 71.0006C89.4236 70.9698 89.4175 70.9575 89.4175 70.9575C89.4175 70.9575 89.4175 70.976 89.4298 71.0067C89.4421 71.0375 89.4544 71.0867 89.4728 71.1421C89.5096 71.2528 89.5649 71.4005 89.6264 71.542C89.6878 71.6896 89.7554 71.825 89.8107 71.9295C89.8353 71.9849 89.8598 72.0218 89.8783 72.0587C89.8967 72.0895 89.909 72.1018 89.909 72.1018L89.8967 72.0956Z" fill="#B1C8BC"/>
</g>
<g id="Group_16" style="mix-blend-mode:multiply">
<path id="Vector_40" d="M89.9335 71.7388C90.5479 71.8742 91.9425 72.4217 92.5446 72.6616L92.3726 72.9939C92.3726 72.9939 89.8721 71.8803 89.6877 72.1326C89.3867 72.7601 88.1886 77.2818 88.1886 77.2818L87.7524 77.1649C87.906 76.5559 88.2317 75.264 88.5634 74.1504C89.0672 72.4402 89.1471 71.5666 89.9335 71.745V71.7388Z" fill="#DFEFE7"/>
</g>
<path id="Vector_41" d="M83.0524 83.8337C83.2245 83.3846 83.4518 82.9355 83.5747 82.4679C83.673 82.105 83.673 81.7481 83.6484 81.379C83.6177 80.8869 83.5931 80.3947 83.5747 79.9025C83.5501 79.4042 83.5194 78.8998 83.5378 78.3953C83.5501 78.1492 83.5685 77.9031 83.5624 77.657C83.6177 77.171 83.6545 76.8757 83.6545 76.8757C88.201 79.1089 91.8197 78.8628 91.8197 78.8628L88.4713 87.771C88.4713 87.771 85.0308 88.5646 82.4258 86.4114C82.4872 85.9808 82.905 84.209 83.0524 83.8337Z" fill="#E21F26"/>
<g id="Group_17" style="mix-blend-mode:multiply">
<path id="Vector_42" d="M91.8259 78.8629L88.4775 87.7711C88.4775 87.7711 87.943 87.8941 87.1382 87.9126L90.3023 78.8137C91.2607 78.906 91.8259 78.8629 91.8259 78.8629Z" fill="#C1C0C0"/>
</g>
<path id="Vector_43" d="M83.4702 82.4741C83.5685 82.1111 83.5746 81.742 83.5439 81.3667C83.5132 80.8684 83.4886 80.3701 83.464 79.8718C83.4518 79.5888 83.4395 79.2996 83.4272 79.0105C87.8262 81.8281 91.2483 80.8684 91.2483 80.8684C91.2483 80.8684 90.978 81.7236 89.7553 85.2364C86.6404 85.8331 83.931 84.3259 82.991 83.7107C83.1569 83.3046 83.3535 82.8986 83.464 82.4741H83.4702Z" fill="#FCCE08"/>
<path id="Vector_44" d="M86.6896 74.7103C86.0875 75.0364 85.4669 75.0733 85.3133 74.7841C85.1597 74.495 85.5222 73.9967 86.1243 73.6706C86.7264 73.3445 87.3408 73.3076 87.5005 73.5968C87.6603 73.8859 87.2978 74.3842 86.6957 74.7103H86.6896Z" fill="white"/>
<path id="Vector_45" d="M84.9693 75.3379C84.9017 75.4055 84.8218 75.4302 84.7788 75.3932C84.7358 75.3502 84.7542 75.264 84.8157 75.1964C84.8833 75.1287 84.9693 75.1041 85.0123 75.1472C85.0553 75.1841 85.0368 75.2702 84.9693 75.344V75.3379Z" fill="white"/>
<g id="Group_18" style="mix-blend-mode:multiply" opacity="0.7">
<path id="Vector_46" d="M91.2545 80.8809C91.2545 80.8809 90.9903 81.7237 89.78 85.1873C89.3806 85.2611 89.1287 85.2919 88.7478 85.3042L90.1793 81.0224C90.8674 80.9916 91.2545 80.8809 91.2545 80.8809Z" fill="#C8C7C6"/>
</g>
<g id="Vector_47" style="mix-blend-mode:multiply">
<path d="M84.6928 77.9647C84.7542 78.7706 84.7481 79.5888 84.8587 80.3947C84.8587 80.4009 84.8709 80.407 84.8771 80.407C85.1904 80.407 85.5038 80.4194 85.8171 80.4194C85.4792 80.7023 85.1106 80.9423 84.7911 81.2437C84.7788 81.256 84.7665 81.2745 84.7788 81.2868C85.4546 82.2404 86.4008 82.9355 87.2855 83.6799C86.3823 83.8276 85.4362 83.5569 84.5699 83.3477C84.5515 83.3416 84.533 83.36 84.5269 83.3785C84.0354 84.5289 83.5193 85.6732 82.9602 86.7929C82.782 86.6698 82.61 86.5468 82.438 86.4053C82.4994 85.9746 82.9172 84.2029 83.0647 83.8276C83.077 83.8091 83.0831 83.7845 83.0892 83.7599C83.0585 83.7415 83.0339 83.723 83.0032 83.7045C83.1691 83.2985 83.3657 82.8925 83.4763 82.468C83.5746 82.105 83.5808 81.7359 83.55 81.3606C83.5193 80.8623 83.4947 80.364 83.4702 79.8657C83.4579 79.5827 83.4456 79.2935 83.4333 79.0044C83.4702 79.029 83.507 79.0536 83.5439 79.0721C83.5377 78.8444 83.5316 78.6168 83.5439 78.3892C83.5562 78.1431 83.5746 77.897 83.5685 77.6509C83.6238 77.1649 83.6606 76.8696 83.6606 76.8696C83.9924 77.0357 84.318 77.1834 84.6436 77.3187C84.6621 77.5341 84.6805 77.7432 84.6989 77.9585L84.6928 77.9647Z" fill="#C8C7C6"/>
</g>
<g id="Vector_48" style="mix-blend-mode:multiply">
<path d="M83.6362 77.0849C83.6547 76.9557 83.6608 76.8818 83.6608 76.8818C88.2072 79.115 91.826 78.8689 91.826 78.8689L91.74 79.0966C87.8632 79.195 84.4472 77.5155 83.6362 77.091V77.0849Z" fill="#C1C0C0"/>
</g>
<g id="Group_19" opacity="0.9">
<path id="Vector_49" d="M88.7847 73.2646C89.0243 73.3323 89.2517 73.4061 89.4667 73.4923L88.4345 77.3311C88.2256 77.2758 88.0045 77.2204 87.771 77.1589C88.1458 75.867 88.5021 74.575 88.7847 73.2646Z" fill="#41B3BF"/>
</g>
<g id="Vector_50" style="mix-blend-mode:screen">
<path d="M86.0569 80.5054L85.2029 81.219L87.3532 83.446L86.2535 81.3051L86.0569 80.5054Z" fill="#FCCE08"/>
</g>
<g id="Vector_51" style="mix-blend-mode:color-dodge">
<path d="M84.2565 84.5535L83.2981 86.8174C83.2981 86.8174 83.9801 87.2542 84.3364 87.3219L85.0368 84.9226L84.2627 84.5535H84.2565Z" fill="#E75524"/>
</g>
<g id="Vector_52" style="mix-blend-mode:color-dodge">
<path d="M84.8833 77.8232L84.9939 79.6258L86.0322 80.2041L85.983 78.1862L84.8833 77.8232Z" fill="#E75524"/>
</g>
</g>
<g id="Group_20">
<path id="Vector_53" opacity="0.5" d="M87.39 82.6465C88.0965 81.6006 88.1764 80.1795 87.5805 79.189C87.1504 78.4754 85.5591 76.2176 83.0094 76.9251C81.6885 77.2942 80.7301 77.9771 79.9621 78.5308C79.4767 78.8753 79.0897 79.1521 78.7333 79.269C78.3647 79.3859 77.695 79.3798 76.8472 79.3736C75.5631 79.3613 73.9657 79.349 72.7738 79.7673C71.373 80.2595 70.0521 80.727 69.3824 81.7175C69.2042 81.9821 69.0691 82.2774 68.9831 82.6219C68.4977 84.4736 70.8692 88.5893 72.3622 89.0507C73.8674 89.5183 75.9563 88.86 78.9361 86.9837C79.5074 86.6268 79.9682 86.3254 80.3492 86.0855C81.5943 85.2816 82.9971 84.6992 84.5577 84.3383L84.8772 84.2645C85.983 84.0061 86.8493 83.4524 87.3961 82.6526L87.39 82.6465Z" fill="#D2EEF9"/>
<g id="Group_21">
<g id="Vector_54" style="mix-blend-mode:multiply" opacity="0.4">
<path d="M74.4634 87.4388C75.981 86.2946 77.4739 85.1195 78.9915 83.9752C80.4721 82.8494 81.9466 81.7051 83.4457 80.6039C84.1769 80.0625 84.951 79.5765 85.6698 79.0228C86.0814 78.7029 86.4869 78.3769 86.9109 78.0754C87.2119 78.3953 87.4761 78.746 87.6973 79.1213C88.6619 80.7208 88.0659 83.6553 84.9018 84.3874C81.7377 85.1195 82.4811 84.898 79.0037 87.0882C75.5263 89.2783 73.6279 89.5797 72.3131 89.1737C72.2455 89.1553 72.1779 89.1245 72.1104 89.0937C72.8968 88.5524 73.6893 88.0171 74.4512 87.4388H74.4634Z" fill="#0099B0"/>
</g>
<g id="Vector_55" style="mix-blend-mode:multiply" opacity="0.4">
<path d="M86.7634 78.1861C87.4884 78.4322 85.338 80.6284 85.1414 80.8315C83.9188 82.0803 82.5671 83.1938 81.1541 84.2151C78.6965 85.9992 76.0117 87.3834 73.1548 88.3738C73.5971 88.0662 74.0334 87.7586 74.4634 87.4326C75.9809 86.2883 77.4739 85.1133 78.9914 83.969C80.4721 82.8432 81.9466 81.6989 83.4457 80.5977C84.1768 80.0563 84.951 79.5703 85.6698 79.0166C86.0323 78.7336 86.3948 78.4506 86.7634 78.1799V78.1861Z" fill="#0099B0"/>
</g>
<path id="Vector_56" d="M72.3192 89.1737C73.6278 89.5798 75.5324 89.2783 79.0098 87.0882C82.4873 84.8981 81.7438 85.1195 84.9079 84.3875C86.149 84.0983 86.9907 83.4708 87.5068 82.7141C88.2932 81.5514 88.2809 80.0872 87.7034 79.1152C86.7388 77.5156 85.0369 76.2237 82.9788 76.7897C80.8161 77.3926 79.5874 78.8506 78.6965 79.1336C77.8056 79.4166 74.7153 78.9306 72.7308 79.6319C71.1703 80.1856 69.9415 80.6409 69.2719 81.6313C69.0875 81.902 68.9462 82.2096 68.8479 82.5726C68.3994 84.2644 70.5621 88.6139 72.3192 89.1676V89.1737ZM69.106 82.6526C69.192 82.3265 69.3149 82.0435 69.493 81.7913C70.0951 80.9054 71.1457 80.4809 72.8169 79.8965C73.9842 79.4843 75.5693 79.4966 76.8411 79.5089C77.7012 79.515 78.3832 79.5212 78.7702 79.3982C79.1512 79.2751 79.5444 78.9983 80.042 78.6415C80.8038 78.0939 81.75 77.411 83.0463 77.0542C83.6669 76.882 85.8295 76.5252 87.4699 79.2567C88.0413 80.2041 87.9614 81.5637 87.2856 82.5726C86.7634 83.3416 85.9155 83.883 84.8465 84.1352L84.527 84.209C82.1862 84.7504 82.1493 84.7689 80.2755 85.9747C79.8946 86.2208 79.4399 86.5161 78.8685 86.8729C74.9979 89.3091 73.3206 89.2107 72.3991 88.9277C70.7464 88.417 68.7128 84.166 69.106 82.6649V82.6526Z" fill="#D0D1D1"/>
<g id="Vector_57" style="mix-blend-mode:multiply" opacity="0.4">
<path d="M69.6957 82.0497C69.6957 82.0497 69.8248 81.0839 71.2563 82.665C72.6878 84.246 74.5309 88.3679 72.9888 88.8601C72.9888 88.8601 74.0087 89.0262 73.7507 87.4389C73.4926 85.8517 72.4727 83.1756 70.8139 81.8836C69.5974 80.9362 69.6896 82.0497 69.6896 82.0497H69.6957Z" fill="#036BB1"/>
</g>
<g id="Group_22">
<path id="Vector_58" opacity="0.5" d="M87.8017 80.0995C87.5928 79.4966 87.4147 78.8383 87.0829 78.2908C87.0399 78.217 86.8126 78.0016 86.702 77.7494C86.5914 77.491 86.5852 77.1957 87.0276 77.3249C87.0399 77.3249 87.046 77.3311 87.0522 77.3311C87.0522 77.3065 87.0522 77.2757 87.0522 77.2449C87.0645 77.1157 87.2426 77.0542 87.3348 77.1404C87.3839 77.1834 87.4454 77.2142 87.4208 77.1773C87.3286 77.0296 87.4085 76.8635 87.5744 76.8328C87.6911 76.8081 87.8017 76.8327 87.9 76.8697C87.8386 76.802 87.9307 76.7097 88.0045 76.7405C88.5574 76.9496 88.8462 77.4849 89.1288 77.977C89.3623 78.3892 89.608 78.8014 89.5834 79.2936C89.5773 79.4658 89.3807 79.4966 89.2578 79.4228C89.2578 79.4228 89.2578 79.4289 89.2578 79.4351C89.307 79.6873 88.9691 79.7488 88.8462 79.5766C88.8462 79.6258 88.8646 79.6811 88.8462 79.7242C88.6926 80.0933 88.4161 79.8288 88.4161 79.8288C88.4161 79.8288 88.4038 79.8103 88.3915 79.9149C88.3792 80.0503 88.2441 80.1302 88.1458 80.1548C88.0598 80.2717 87.857 80.2717 87.8017 80.1118V80.0995Z" fill="#B5CCD7"/>
<g id="Group_23" style="mix-blend-mode:multiply" opacity="0.5">
<path id="Vector_59" d="M87.8018 80.0996C87.5929 79.4967 87.4148 78.8385 87.083 78.2909C87.04 78.2171 86.8127 78.0018 86.7021 77.7496C86.6529 77.6327 86.6222 77.5035 86.6529 77.4112C86.6529 77.4481 86.6652 77.4912 86.7082 77.5281C87.1506 77.9526 87.427 78.4755 87.6728 79.0292C87.7711 79.263 88.1213 79.0907 88.023 78.8631C87.7773 78.2971 87.4885 77.7619 87.0523 77.3251C87.0523 77.3251 87.0523 77.2882 87.0523 77.2697C87.0646 77.2882 87.083 77.3066 87.1076 77.3189C87.6052 77.6327 87.808 78.2479 88.0291 78.7646C88.1274 78.9984 88.4777 78.8262 88.3794 78.5985C88.1643 78.0941 87.9554 77.5281 87.5376 77.159C88.0353 77.3743 88.3732 78.1433 88.4654 78.6416C88.5145 78.8877 88.8954 78.82 88.8463 78.5739C88.7234 77.9341 88.3118 77.1036 87.6974 76.8144C87.7711 76.8144 87.8387 76.8329 87.9001 76.8575C87.8694 76.8206 87.8756 76.7837 87.9001 76.7529C88.2995 77.2759 88.7603 77.7619 88.9876 78.3894C89.0552 78.5739 89.2886 78.5063 89.3378 78.3525C89.4852 78.6416 89.602 78.9431 89.5835 79.2814C89.5774 79.4537 89.3808 79.4844 89.2579 79.4106C89.2579 79.4106 89.2579 79.4168 89.2579 79.4229C89.3071 79.6751 88.9692 79.7367 88.8463 79.5644C88.8463 79.6136 88.8647 79.669 88.8463 79.7121C88.6927 80.0812 88.4162 79.8166 88.4162 79.8166C88.4162 79.8166 88.4039 79.7982 88.3916 79.9028C88.3793 80.0381 88.2442 80.1181 88.1459 80.1427C88.0599 80.2596 87.8571 80.2596 87.8018 80.0996Z" fill="#ACC1CB"/>
</g>
</g>
</g>
<path id="Vector_60" d="M87.513 80.0748C87.513 80.0748 86.1368 76.402 83.1632 77.4417C80.1896 78.4814 79.9192 79.7364 78.6536 79.8103C78.6536 79.8103 76.9825 79.6872 76.6999 79.7487C76.4234 79.8041 78.3771 80.813 79.397 80.4439C80.423 80.0686 82.6102 77.6324 84.0909 77.8724C87.1014 78.3645 87.5069 80.0686 87.5069 80.0686L87.513 80.0748Z" fill="white"/>
<g id="Vector_61" style="mix-blend-mode:multiply" opacity="0.5">
<path d="M68.9771 82.6156C69.0139 82.4864 69.0508 82.3634 69.0999 82.2527C69.1798 82.7018 69.3396 83.157 69.4071 83.3539C69.7696 84.4059 70.1997 85.4087 70.8571 86.3069C71.2011 86.7744 71.6742 87.4511 72.2886 87.5865C72.903 87.7218 73.2163 87.1682 73.3146 86.6329C73.5727 85.261 72.4791 83.7599 71.5268 82.6956C72.731 83.4646 73.3023 85.0457 74.3222 86.0423C75.5633 87.2481 76.9518 86.8175 78.2051 85.8209C79.2311 85.0026 80.1957 83.8891 81.5105 83.5507C82.8376 83.2062 84.2507 83.0709 85.4671 82.3942C86.3764 81.8897 87.169 81.1515 87.384 80.0871C87.4577 79.7119 87.4762 79.3428 87.4516 78.9736C87.5007 79.0536 87.5499 79.1274 87.5868 79.1828C88.1827 80.1733 88.1028 81.5944 87.3963 82.6403C86.8495 83.44 85.9832 83.9937 84.8773 84.2521L84.5578 84.3259C82.9973 84.6868 81.5945 85.2692 80.3493 86.0731C79.9684 86.3192 79.5076 86.6145 78.9362 86.9713C75.9565 88.8476 73.8676 89.5059 72.3623 89.0384C70.8694 88.577 68.4917 84.4613 68.9832 82.6095L68.9771 82.6156Z" fill="#B5CCD7"/>
</g>
</g>
</g>
</g>
</g>
</g>
<g id="Group_24" style="mix-blend-mode:multiply">
<g id="Group_25">
<path id="Vector_62" d="M92.0592 82.4067C92.0592 82.4067 91.8995 82.7143 91.6967 83.1757C91.5923 83.4095 91.4817 83.6802 91.365 83.9755C91.2482 84.2708 91.1254 84.5784 91.0086 84.8983C90.9533 85.0521 90.898 85.2121 90.8427 85.372C90.7813 85.5258 90.7444 85.6858 90.6891 85.8334C90.5785 86.1287 90.4802 86.4056 90.4065 86.6455C90.2529 87.1253 90.1792 87.4637 90.1792 87.4637C90.1792 87.4637 90.3758 87.1807 90.6154 86.7316C90.7383 86.504 90.8735 86.2395 91.0148 85.9503C91.1499 85.6612 91.2605 85.3413 91.3834 85.0275C91.494 84.7076 91.6169 84.3877 91.6967 84.0862C91.7889 83.7786 91.8626 83.4895 91.9179 83.2434C92.0346 82.7513 92.0715 82.4067 92.0715 82.4067H92.0592Z" fill="#505052"/>
<path id="Vector_63" d="M64.627 78.2725C64.627 78.2725 64.6946 78.5062 64.8359 78.8446C64.9035 79.0107 64.9895 79.2014 65.0878 79.4044C65.1861 79.6075 65.2967 79.8166 65.4012 80.0319C65.6285 80.4503 65.8681 80.8625 66.0524 81.1701C66.1446 81.3239 66.2244 81.4531 66.2797 81.5453C66.335 81.6376 66.3719 81.6868 66.3719 81.6868C66.3719 81.6868 66.3719 81.6253 66.3535 81.5207C66.335 81.4161 66.3166 81.2562 66.2613 81.0839C66.206 80.9055 66.1446 80.7025 66.0524 80.4933C65.9664 80.2842 65.8619 80.0627 65.7452 79.8474C65.5179 79.4167 65.2476 79.0169 65.0202 78.7277C64.7991 78.4386 64.6147 78.2725 64.6147 78.2725H64.627Z" fill="#505052"/>
<path id="Vector_64" d="M66.0279 83.4402C66.0279 83.4402 66.0832 83.6432 66.1753 84C66.2798 84.3507 66.4088 84.8613 66.5931 85.4642C66.7774 86.0671 66.9802 86.7684 67.2198 87.519C67.4532 88.2695 67.7236 89.0631 67.9816 89.8568C68.2519 90.6504 68.5223 91.4378 68.7926 92.1761C69.0568 92.9205 69.321 93.6033 69.536 94.1939C69.7572 94.7845 69.9599 95.2705 70.0951 95.6089C70.2303 95.9473 70.3163 96.1441 70.3163 96.1441C70.3163 96.1441 70.261 95.9411 70.1688 95.5843C70.0644 95.2336 69.9354 94.723 69.751 94.1201C69.5667 93.5172 69.364 92.8159 69.1244 92.0653C68.8909 91.3148 68.6267 90.5212 68.3564 89.7276C68.0861 88.934 67.8157 88.1403 67.5454 87.4021C67.2812 86.6639 67.017 85.981 66.7959 85.3904C66.5808 84.7998 66.3719 84.3138 66.2429 83.9693C66.1016 83.6309 66.0217 83.4402 66.0217 83.4402H66.0279Z" fill="#505052"/>
<path id="Vector_65" d="M94.3633 89.2046C94.3633 89.2046 94.3264 89.2969 94.2588 89.4691C94.1851 89.6414 94.0745 89.8936 93.9332 90.2135C93.7858 90.5273 93.6014 90.9087 93.3987 91.3517C93.1837 91.7884 92.9195 92.2683 92.6491 92.7974C92.3788 93.3265 92.0348 93.874 91.6968 94.4707C91.531 94.7722 91.3405 95.0613 91.1378 95.3628C90.9412 95.6642 90.7384 95.9657 90.5357 96.2794C90.1547 96.9192 89.6509 97.5098 89.1963 98.1373C88.9505 98.445 88.7417 98.7772 88.4713 99.0663C88.2071 99.3616 87.943 99.6569 87.6788 99.9522C87.4146 100.247 87.1566 100.549 86.8985 100.844C86.6282 101.115 86.3271 101.392 86.0507 101.662C85.7619 101.915 85.4608 102.148 85.1659 102.388C84.8526 102.598 84.5516 102.825 84.2321 103.01C83.9126 103.188 83.5993 103.379 83.2736 103.508C83.1139 103.576 82.9542 103.656 82.7944 103.717C82.6285 103.773 82.4688 103.828 82.3091 103.877C81.664 104.068 81.0311 104.179 80.4413 104.179C79.8515 104.203 79.3109 104.142 78.8317 104.068C78.3524 103.988 77.9469 103.889 77.609 103.803C76.9332 103.625 76.5461 103.527 76.5461 103.527C76.5461 103.527 76.9271 103.656 77.5845 103.877C77.9162 103.982 78.3279 104.111 78.8009 104.216C79.2801 104.32 79.827 104.412 80.4352 104.406C81.0434 104.419 81.7008 104.332 82.3766 104.16C82.5425 104.111 82.7146 104.062 82.8866 104.013C83.0586 103.957 83.2245 103.877 83.3904 103.81C83.7344 103.686 84.0539 103.483 84.3918 103.311C84.7236 103.127 85.0308 102.893 85.3626 102.684C85.6697 102.438 85.9831 102.198 86.2903 101.939C86.579 101.669 86.8616 101.41 87.1566 101.121C87.4269 100.826 87.6911 100.524 87.9614 100.223C88.2256 99.9214 88.4898 99.62 88.754 99.3185C89.0243 99.0232 89.2393 98.6849 89.4789 98.3711C89.9336 97.7313 90.4312 97.1284 90.8121 96.4763C91.0087 96.1625 91.2053 95.8488 91.4019 95.5412C91.5985 95.2397 91.7767 94.9321 91.9365 94.6245C92.2559 94.0155 92.5877 93.4495 92.8396 92.9081C93.0915 92.3667 93.3311 91.8746 93.5216 91.4193C93.6997 90.9641 93.8595 90.5703 93.9946 90.2504C94.2404 89.5922 94.3571 89.2107 94.3571 89.2107L94.3633 89.2046Z" fill="#505052"/>
<path id="Vector_66" d="M96.8147 90.718C96.8147 90.718 96.7717 90.9826 96.7164 91.3763C96.6918 91.5731 96.6611 91.8008 96.6426 92.0469C96.6058 92.2929 96.5935 92.5513 96.5566 92.8097C96.5443 92.9389 96.532 93.0681 96.5136 93.1973C96.5013 93.3265 96.4952 93.4495 96.4706 93.5664C96.4399 93.8063 96.4276 94.0401 96.3969 94.2308C96.3416 94.6184 96.3354 94.8952 96.3354 94.8952C96.3354 94.8952 96.4645 94.6615 96.6119 94.2862C96.6918 94.0955 96.7471 93.8679 96.8085 93.6218C96.8761 93.3757 96.8945 93.1112 96.9375 92.8466C96.9928 92.3114 96.9805 91.7762 96.9375 91.3763C96.8945 90.9764 96.8085 90.718 96.8085 90.718H96.8147Z" fill="#505052"/>
<path id="Vector_67" d="M96.5505 106.387C96.5505 106.387 96.2801 106.603 95.9115 106.941C95.7272 107.113 95.506 107.31 95.2848 107.532C95.0575 107.747 94.8241 107.987 94.5844 108.221C94.351 108.46 94.1052 108.688 93.8902 108.922C93.6629 109.143 93.4601 109.346 93.2881 109.531C92.9256 109.869 92.6921 110.128 92.6921 110.128C92.6921 110.128 92.7659 110.085 92.901 110.017C93.0301 109.943 93.2205 109.845 93.4355 109.703C93.6444 109.556 93.8841 109.377 94.1298 109.174C94.3756 108.965 94.6213 108.737 94.8671 108.497C95.1005 108.251 95.3401 108.011 95.5429 107.765C95.7518 107.525 95.9361 107.292 96.0897 107.089C96.3969 106.683 96.5628 106.381 96.5628 106.381L96.5505 106.387Z" fill="#505052"/>
<path id="Vector_68" d="M71.6617 109.992C71.6617 109.992 71.5265 109.857 71.2869 109.611C71.0411 109.371 70.7032 109.02 70.2855 108.62C69.8615 108.221 69.3762 107.747 68.8417 107.255C68.3071 106.756 67.7296 106.24 67.1521 105.723L66.7159 105.341L66.6237 105.255L66.5254 105.151C66.464 105.077 66.3841 105.009 66.3411 104.942C66.1384 104.671 65.9725 104.333 65.8373 104.013C65.7083 103.687 65.5977 103.354 65.5178 103.041C65.438 102.721 65.3704 102.419 65.3151 102.136C65.2168 101.564 65.1369 101.084 65.1062 100.752C65.0693 100.414 65.0509 100.217 65.0509 100.217C65.0509 100.217 65.0325 100.414 65.0325 100.752C65.0325 101.09 65.0325 101.583 65.1001 102.167C65.1308 102.456 65.1738 102.776 65.2414 103.108C65.3028 103.44 65.3888 103.791 65.5117 104.142C65.653 104.492 65.7943 104.849 66.0524 105.194C66.1138 105.286 66.1814 105.341 66.2428 105.415L66.3411 105.52C66.3964 105.581 66.421 105.594 66.4578 105.631L66.8879 106.024C67.4716 106.535 68.0552 107.046 68.6082 107.519C69.1611 107.993 69.6895 108.417 70.138 108.793C70.5865 109.168 70.9736 109.457 71.2377 109.672C71.5081 109.875 71.6617 109.999 71.6617 109.999V109.992Z" fill="#505052"/>
</g>
<path id="Vector_69" d="M92.9439 78.783C92.3356 79.3921 91.7397 80.0073 91.1376 80.6163C90.8304 80.9178 90.5539 81.2438 90.2652 81.5637L89.405 82.5234C88.8336 83.1633 88.2561 83.8031 87.697 84.449C87.4206 84.7751 87.1256 85.095 86.8553 85.4211C86.5788 85.7533 86.2962 86.0609 86.0075 86.3746C85.7126 86.6761 85.4115 86.9775 85.092 87.2605C84.9446 87.4082 84.7726 87.5374 84.6128 87.6789C84.4531 87.8203 84.2933 87.9557 84.1213 88.0787C83.7957 88.3494 83.4455 88.5832 83.0953 88.8231L82.5546 89.1553L81.9955 89.4506C81.6146 89.629 81.2276 89.8013 80.8282 89.9182L80.5272 90.0105L80.22 90.0781C80.0172 90.1274 79.8145 90.1704 79.6056 90.1827C79.194 90.2442 78.7762 90.2319 78.3584 90.1889C78.1556 90.152 77.9406 90.1335 77.744 90.0781L77.1419 89.8936H77.1542L76.3924 89.4506C76.1405 89.303 75.8763 89.1615 75.6367 88.9831L75.268 88.737C75.1452 88.6509 75.0223 88.577 74.8994 88.4848C74.6659 88.3064 74.4202 88.1403 74.1929 87.9495C74.4079 88.1587 74.6352 88.3433 74.8625 88.5401C74.9793 88.6386 75.096 88.7247 75.2127 88.8108L75.5691 89.0815C75.8026 89.2661 76.0545 89.426 76.3002 89.5921L77.0498 90.0843H77.0559L77.6764 90.2996C77.8853 90.3611 78.1004 90.3919 78.3215 90.435C78.7516 90.4965 79.2001 90.5211 79.6363 90.4719C79.8575 90.4719 80.0725 90.4227 80.2876 90.3796L80.6132 90.3181L80.9265 90.2258C81.3504 90.1089 81.7559 89.9366 82.1491 89.7521L82.7328 89.4568L83.298 89.1246C83.6605 88.8846 84.023 88.6447 84.3609 88.374C84.7111 88.1156 85.0367 87.8265 85.3562 87.5312C85.6757 87.2359 85.9767 86.9283 86.2778 86.6145C86.5727 86.2946 86.8615 85.9686 87.1256 85.6364C87.4021 85.3042 87.6786 84.9781 87.9612 84.6582C88.5203 84.0061 89.061 83.3478 89.6139 82.6896L90.4372 81.7052C90.7136 81.3792 90.9778 81.0408 91.2666 80.7209C91.8318 80.0749 92.3971 79.429 92.95 78.7769L92.9439 78.783Z" fill="#505052"/>
</g>
<g id="Vector_70" style="mix-blend-mode:screen" opacity="0.5">
<path d="M69.4192 85.8025C69.4192 85.8025 71.3852 90.4842 73.0686 94.9813C74.752 99.4785 77.7441 100.598 82.7943 97.7928C87.8446 94.9813 91.1192 92.3544 91.1192 92.3544C91.1192 92.3544 88.7969 99.0109 82.9971 100.881C77.1973 102.757 72.6939 101.73 71.76 97.4175C70.8261 93.1111 69.4192 85.8025 69.4192 85.8025Z" fill="#505052"/>
</g>
<g id="Vector_71" style="mix-blend-mode:screen" opacity="0.5">
<path d="M96.0959 102.585C96.0959 102.585 86.6406 106.412 80.8899 107.445C75.1393 108.479 72.6142 106.412 70.0829 103.071C67.5517 99.7308 66.6362 97.4299 66.6362 97.4299C66.6362 97.4299 67.2076 103.188 69.1675 105.951C71.1212 108.713 75.8704 112.059 79.6304 111.475C92.9564 109.408 96.0959 102.585 96.0959 102.585Z" fill="#505052"/>
</g>
<g id="Vector_72" style="mix-blend-mode:screen" opacity="0.5">
<path d="M90.8736 78.3708C90.8736 78.3708 87.7648 81.6991 83.4764 85.6672C80.1526 89.1 77.9039 89.746 71.1519 83.7354C74.4757 88.3495 78.334 91.3516 81.5472 89.1C84.7666 86.8484 89.4789 82.2343 90.8736 78.3708Z" fill="#505052"/>
</g>
<path id="Vector_73" d="M23.8074 104.726C24.772 107.925 25.4232 111.223 25.7366 114.545C31.4381 115.837 43.394 113.967 43.394 113.967C41.1638 113.265 38.3192 111.229 36.2118 110.226C35.3578 109.82 34.5038 109.383 33.8403 108.713C32.9925 107.858 32.5255 106.701 32.12 105.569C31.5118 103.859 31.0018 102.112 30.5902 100.346L23.8013 104.726H23.8074Z" fill="#010101"/>
<path id="Vector_74" d="M41.9871 101.515C42.9517 104.714 43.6029 108.011 43.9163 111.333C49.6177 112.625 61.5737 110.755 61.5737 110.755C59.3434 110.054 56.4988 108.017 54.3915 107.015C53.5375 106.609 52.6835 106.172 52.02 105.501C51.1721 104.646 50.7052 103.49 50.2997 102.358C49.6915 100.647 49.1815 98.9002 48.7699 97.1345L41.981 101.515H41.9871Z" fill="#010101"/>
<path id="Vector_75" d="M65.856 12.3288C64.492 15.0664 62.7042 19.662 62.7042 19.662L64.9712 21.846L61.8809 21.7414C61.8809 21.7414 59.9517 26.3862 57.5864 26.6077C55.221 26.8291 53.384 23.384 51.9525 21.4892C50.3428 22.5227 47.5166 24.3745 45.7349 25.082C44.7273 21.9813 44.1559 20.0742 44.0945 16.8198C46.6565 15.7001 47.8975 13.9099 50.4595 12.7902C48.9358 12.5072 48.8068 10.6862 49.7038 9.42503C50.6008 8.16386 53.2488 8.66833 54.0168 10.0156C55.3439 8.05312 56.1671 8.05312 57.4942 6.08447C60.6644 7.88702 65.8498 12.3411 65.8498 12.3411L65.856 12.3288Z" fill="#F6A472"/>
<path id="Vector_76" d="M49.4886 24.3806C51.1044 27.672 51.0675 31.4985 50.9938 35.1651C50.9262 38.5426 50.8648 41.9262 50.7972 45.3037C50.7849 45.9373 50.7849 46.6079 51.1167 47.1431C51.4054 47.6045 51.8908 47.8875 52.3639 48.1521C56.1608 50.3053 59.9577 52.4585 63.7546 54.6117C62.8268 56.5988 62.1203 58.6905 61.6595 60.8376C54.5511 59.884 47.7867 56.5496 42.6935 51.4926C42.0975 50.902 41.5139 50.2745 41.1821 49.5055C40.7889 48.595 40.7766 47.5738 40.7889 46.5895C40.8135 43.5934 40.9609 40.6035 41.2313 37.6198C41.4586 35.1221 41.7842 32.569 42.9331 30.3419C44.082 28.1149 46.2078 26.2385 48.7083 26.0478L49.4886 24.3806Z" fill="#A5A4A4"/>
<path id="Vector_77" d="M4.8906 34.5191C4.78616 34.1193 4.4421 34.8575 4.73086 35.1528C8.1837 38.6718 11.7348 42.2645 16.1645 44.4301C17.6821 45.1745 19.3286 45.7589 20.5635 46.9216C21.2271 47.543 21.737 48.3058 22.2408 49.0564C23.4941 50.9205 24.7413 52.7784 25.9947 54.6424C29.7547 60.2408 33.6192 66.0975 34.5285 72.7848C35.1306 77.2327 34.3687 81.7299 33.8649 86.1901C33.2751 91.4316 33.0417 96.7101 33.1645 101.982C33.1768 102.567 33.1768 103.213 32.7898 103.65C32.5194 103.957 32.1139 104.099 31.7269 104.222C28.8823 105.126 25.9332 105.723 22.9596 106C18.0446 96.8762 18.4132 85.8948 19.4638 75.584C19.7218 73.0247 19.9737 70.244 18.6098 68.0662C18.0446 67.1618 17.2397 66.4359 16.441 65.7223C12.6196 62.2894 8.79194 58.8504 4.97047 55.4176C3.76013 54.3287 2.53137 53.2213 1.64665 51.8494C0.110694 49.4563 -0.227217 46.4541 0.141413 43.6365C0.510043 40.8188 1.52378 38.1304 2.53137 35.4727L4.89674 34.513L4.8906 34.5191Z" fill="#4D6EB5"/>
<path id="Vector_78" d="M28.6979 46.7003C32.9924 52.2125 37.287 57.7186 41.5815 63.2308C42.9209 64.9473 44.2725 66.6821 45.2187 68.6446C46.2631 70.8101 46.7915 73.191 47.2338 75.5534C48.7698 83.7171 49.4579 92.0224 50.1399 100.303C47.5472 101.952 44.3401 102.61 41.3112 102.112C40.961 98.1006 38.6816 94.5631 36.8999 90.9519C34.4485 85.9934 32.845 80.6103 32.1814 75.1104C31.991 73.5355 31.8681 71.9237 31.2291 70.4718C30.7008 69.2783 29.8468 68.257 29.0235 67.2481C24.2067 61.3237 20.0166 54.8887 16.5515 48.0784C19.2671 47.0571 22.0134 46.1282 24.7843 45.2792C25.7427 44.99 27.0083 44.8055 27.549 45.6483L28.704 46.688L28.6979 46.7003Z" fill="#4D6EB5"/>
<path id="Vector_79" d="M33.6622 84.2153C33.8772 81.5268 34.0984 78.8384 34.0923 76.1376C34.0923 73.7014 33.8957 71.2775 33.4165 68.8905C32.9741 66.7066 32.3228 64.5718 31.475 62.5109C30.6333 60.4623 29.5888 58.4936 28.3724 56.648C27.1559 54.7962 25.7612 53.0614 24.2068 51.4864C24.0102 51.2896 23.8136 51.0927 23.617 50.902C23.3897 50.6805 23.7338 50.336 23.9611 50.5575C25.5769 52.1201 27.033 53.8427 28.3109 55.6883C29.5827 57.5277 30.6824 59.4841 31.5856 61.5327C32.4949 63.5875 33.2076 65.7284 33.7114 67.9185C34.2397 70.244 34.5162 72.6248 34.5776 75.0057C34.6452 77.7433 34.4548 80.4748 34.2397 83.2063C34.2151 83.5447 34.1844 83.8769 34.1599 84.2153C34.1353 84.529 33.6438 84.529 33.6683 84.2153H33.6622Z" fill="#1F203A"/>
<path id="Vector_80" d="M21.1225 100.684C25.0853 100.014 29.0419 99.3433 33.0047 98.6666C33.189 98.6358 33.3917 98.6112 33.5453 98.7096C33.6866 98.8019 33.7419 98.9803 33.7849 99.1403C34.1229 100.365 34.344 101.62 34.4485 102.881C34.4669 103.071 34.4731 103.268 34.3809 103.434C34.2642 103.65 34.0123 103.742 33.7788 103.816C30.541 104.88 27.2663 105.846 23.9671 106.707C23.4326 106.849 22.8612 106.984 22.339 106.812C21.6263 106.584 21.1962 105.858 20.9628 105.145C20.6187 104.111 20.5573 103.01 20.4958 101.927C20.4774 101.656 20.4712 101.361 20.6187 101.134C20.7662 100.906 21.1348 100.801 21.3068 101.01L21.1286 100.678L21.1225 100.684Z" fill="#1F203A"/>
<path id="Vector_81" d="M39.3205 98.2728C42.7672 97.2761 46.3061 96.6117 49.8818 96.2734C50.2996 96.2364 50.7911 96.2303 51.0491 96.5563C51.1904 96.7348 51.2273 96.9747 51.258 97.2085C51.3809 98.1682 51.4792 99.1341 51.5529 100.1C51.5714 100.346 51.5836 100.598 51.473 100.82C51.3563 101.047 51.129 101.189 50.9078 101.318C48.309 102.807 45.3661 103.68 42.374 103.847C41.5876 103.89 40.7213 103.859 40.1192 103.348C39.511 102.831 39.339 101.97 39.2407 101.183C39.1301 100.303 39.0564 99.4171 39.0256 98.5312L39.3144 98.2789L39.3205 98.2728Z" fill="#1F203A"/>
<path id="Vector_82" d="M10.1434 46.5403C10.8377 49.6532 12.9143 52.2493 15.1077 54.4702C17.0737 56.4573 19.2978 58.1738 21.104 60.3147C22.3144 61.7481 23.3773 63.323 24.1637 65.0271C24.9992 66.842 25.4662 68.7614 25.6628 70.7424C25.8717 72.8894 25.7979 75.0549 25.8041 77.2082C25.8041 79.429 25.8532 81.6499 25.9515 83.8647C26.142 88.3187 26.5168 92.7605 27.0759 97.1838C27.1496 97.7437 27.2233 98.3035 27.297 98.8572C27.34 99.1648 26.867 99.3001 26.824 98.9864C26.2157 94.5815 25.7918 90.1582 25.546 85.7226C25.4232 83.5078 25.3494 81.287 25.3249 79.0661C25.2941 76.8821 25.3679 74.6981 25.288 72.5203C25.2143 70.4471 24.9439 68.38 24.219 66.4298C23.5616 64.6518 22.5847 63.0031 21.4358 61.502C20.5142 60.2962 19.4759 59.2011 18.3639 58.1738C17.3625 57.2571 16.3426 56.3589 15.3657 55.4115C13.1416 53.246 10.9913 50.7729 9.9837 47.783C9.86083 47.42 9.75638 47.0447 9.67651 46.6694C9.60893 46.3618 10.082 46.2327 10.1496 46.5403H10.1434Z" fill="#1F203A"/>
<path id="Vector_83" d="M19.1075 69.0075C20.4284 67.8325 21.9521 66.9158 23.6048 66.2945C23.8997 66.1837 24.0287 66.6575 23.7338 66.7682C22.161 67.3588 20.7049 68.2385 19.4515 69.3582C19.2181 69.5674 18.8679 69.2229 19.1075 69.0137V69.0075Z" fill="#1F203A"/>
<path id="Vector_84" d="M20.5083 69.4011C21.3869 69.0074 22.2716 68.6075 23.1502 68.2138C23.273 68.1584 23.4144 68.1769 23.4881 68.2999C23.5495 68.4045 23.5188 68.5829 23.4021 68.6383C22.5235 69.032 21.6388 69.4257 20.7602 69.8256C20.6373 69.881 20.496 69.8625 20.4223 69.7395C20.3609 69.6349 20.3916 69.4565 20.5083 69.4011Z" fill="#1F203A"/>
<path id="Vector_85" d="M35.4992 72.4527C37.1519 75.7379 38.5834 79.14 39.7692 82.6159C40.3529 84.3261 40.869 86.0549 41.3482 87.802C41.8028 89.4631 42.2452 91.1241 42.7858 92.7606C43.3941 94.5816 44.1498 96.3595 45.1942 97.9837C45.3662 98.2482 44.9423 98.4943 44.7703 98.2297C42.9087 95.3383 41.981 91.9854 41.084 88.6941C40.1256 85.1874 39.0319 81.7361 37.6557 78.3648C36.8693 76.4454 36.0092 74.5506 35.0753 72.6988C34.934 72.4158 35.3579 72.1697 35.4992 72.4527Z" fill="#1F203A"/>
<path id="Vector_86" d="M44.5675 109.789C48.1985 110.078 51.8479 110.091 55.4789 109.82C56.5111 109.74 57.5371 109.642 58.5693 109.519C58.8826 109.482 58.8765 109.974 58.5693 110.011C54.9567 110.441 51.3073 110.595 47.6701 110.466C46.638 110.429 45.6058 110.368 44.5736 110.288C44.2603 110.263 44.2603 109.771 44.5736 109.795L44.5675 109.789Z" fill="white"/>
<path id="Vector_87" d="M56.0687 108.202C55.995 108.233 56.1055 108.184 56.0318 108.214C56.0134 108.22 55.995 108.233 55.9765 108.239C55.9335 108.257 55.8967 108.282 55.8598 108.307C55.8414 108.319 55.8229 108.331 55.8106 108.344C55.8106 108.344 55.7615 108.38 55.7922 108.356C55.7615 108.38 55.7308 108.411 55.7001 108.436C55.5649 108.565 55.4912 108.663 55.4051 108.842C55.3929 108.86 55.3867 108.879 55.3806 108.897C55.3621 108.934 55.3806 108.897 55.3683 108.922C55.3499 108.965 55.3376 109.008 55.3253 109.051C55.313 109.094 55.3007 109.131 55.2946 109.174C55.2946 109.199 55.2823 109.223 55.2823 109.248C55.2761 109.291 55.2823 109.248 55.2823 109.272C55.2638 109.469 55.2761 109.599 55.3191 109.765C55.4051 110.066 54.9321 110.195 54.8461 109.894C54.5942 109.014 55.1041 108.048 55.9458 107.722C56.0687 107.673 56.2161 107.778 56.2469 107.894C56.2837 108.036 56.1977 108.147 56.0748 108.196L56.0687 108.202Z" fill="white"/>
<path id="Vector_88" d="M44.4323 107.599C45.6242 107.698 46.724 108.405 47.2831 109.47C47.4305 109.746 47.0066 109.999 46.8591 109.716C46.3861 108.811 45.4522 108.171 44.4262 108.091C44.2971 108.079 44.1804 107.987 44.1804 107.845C44.1804 107.704 44.291 107.587 44.4262 107.599H44.4323Z" fill="white"/>
<path id="Vector_89" d="M51.3073 105.268C50.5516 105.858 49.9925 106.67 49.7284 107.599C49.6423 107.901 49.1693 107.771 49.2553 107.47C49.544 106.467 50.14 105.563 50.9571 104.923C51.0616 104.843 51.2029 104.818 51.3012 104.923C51.3872 105.009 51.4056 105.188 51.3012 105.268H51.3073Z" fill="white"/>
<path id="Vector_90" d="M51.8663 106.51C51.7619 106.596 51.6636 106.695 51.5776 106.799C51.5653 106.812 51.553 106.83 51.5407 106.842C51.5407 106.836 51.5591 106.824 51.5407 106.842C51.5223 106.873 51.4977 106.898 51.4793 106.929C51.4424 106.984 51.4055 107.046 51.3687 107.107C51.338 107.162 51.3072 107.224 51.2827 107.285C51.2642 107.322 51.2827 107.279 51.2765 107.304C51.2765 107.316 51.2642 107.335 51.2581 107.347C51.2458 107.378 51.2335 107.415 51.2212 107.445C51.2028 107.507 51.1844 107.575 51.1659 107.636C51.1598 107.673 51.1536 107.704 51.1414 107.741C51.1414 107.759 51.1352 107.778 51.1291 107.796C51.1291 107.802 51.1229 107.858 51.1291 107.815C51.1106 107.944 51.0308 108.067 50.8833 108.061C50.7666 108.061 50.6191 107.95 50.6376 107.815C50.7174 107.175 51.0185 106.572 51.5161 106.16C51.6144 106.08 51.768 106.055 51.8602 106.16C51.9462 106.252 51.9646 106.418 51.8602 106.504L51.8663 106.51Z" fill="white"/>
<path id="Vector_91" d="M26.7934 113.216C30.1049 113.357 33.4226 113.253 36.7157 112.914C37.6496 112.816 38.5834 112.699 39.5111 112.564C39.8183 112.521 39.9535 112.988 39.6402 113.038C36.3286 113.517 32.9802 113.77 29.6318 113.763C28.6857 113.763 27.7334 113.739 26.7872 113.702C26.4739 113.69 26.4739 113.197 26.7872 113.21L26.7934 113.216Z" fill="white"/>
<path id="Vector_92" d="M37.6864 111.13C36.986 111.457 36.5437 112.182 36.5805 112.945C36.5867 113.081 36.4638 113.191 36.3348 113.191C36.1996 113.191 36.0952 113.081 36.089 112.945C36.046 112.022 36.599 111.094 37.4345 110.706C37.5574 110.651 37.6987 110.669 37.7724 110.792C37.8339 110.897 37.8031 111.069 37.6864 111.13Z" fill="white"/>
<path id="Vector_93" d="M25.9884 110.743C27.3585 110.681 28.704 111.444 29.3614 112.65C29.515 112.927 29.0911 113.173 28.9375 112.896C28.3599 111.838 27.1926 111.18 25.9884 111.235C25.6751 111.247 25.6751 110.761 25.9884 110.743Z" fill="white"/>
<path id="Vector_94" d="M32.0893 107.329C31.4135 108.085 30.836 108.928 30.3752 109.832C30.2339 110.115 29.81 109.863 29.9513 109.586C30.4305 108.645 31.0388 107.771 31.7453 106.978C31.9542 106.744 32.2982 107.089 32.0893 107.322V107.329Z" fill="white"/>
<path id="Vector_95" d="M32.931 108.62C32.4641 109.303 32.1077 110.054 31.8866 110.854C31.8005 111.155 31.3275 111.026 31.4135 110.724C31.6469 109.888 32.0156 109.088 32.5071 108.374C32.5808 108.264 32.7221 108.214 32.845 108.288C32.9556 108.35 33.0109 108.516 32.931 108.627V108.62Z" fill="white"/>
<path id="Vector_96" d="M53.5621 62.111C56.5235 63.0461 59.1039 65.1501 60.6153 67.8693C61.0576 68.6629 61.4201 69.518 61.8809 70.2932C62.3417 71.0683 63.5581 70.6684 63.4537 69.7764C63.4476 69.7149 63.4353 69.6595 63.423 69.598C63.4599 70.2563 63.7363 70.9022 64.1787 71.3882C64.3446 71.5666 64.5842 71.7389 64.8176 71.6589C64.9589 71.6097 65.0572 71.4682 65.131 71.339C65.5426 70.6069 65.6901 69.7333 65.5426 68.909C65.7822 69.3458 65.604 69.9179 65.9051 70.3424C65.9973 70.4716 66.1324 70.5639 66.286 70.5823C66.5686 70.6131 66.7099 70.4101 66.8082 70.2132C67.1523 69.5488 67.2567 68.7552 67.097 68.0231L68.5101 70.8592C68.6453 71.1237 68.9156 71.3083 69.2166 71.2898C69.8617 71.2467 69.8556 70.3055 69.6528 69.6964C68.9647 67.6539 68.2828 65.6176 67.5947 63.5751C68.4425 64.3318 69.6774 64.6271 70.771 64.3257C70.9246 64.2826 71.0905 64.215 71.1396 64.0673C71.2072 63.8766 71.0413 63.692 70.8877 63.569C70.1566 63.003 69.2166 62.7815 68.4118 62.3201C67.2014 61.625 66.3167 60.4007 65.0204 59.8839C64.1111 59.521 63.0912 59.5456 62.1205 59.3918C59.5892 58.9919 57.445 57.3739 55.4114 55.8113C54.7663 57.6507 53.857 59.3979 52.7266 60.9851L53.5437 62.111H53.5621Z" fill="#F6A472"/>
<path id="Vector_97" d="M46.4353 17.9763C44.1436 16.5983 44.0146 16.2537 41.4342 15.5524C34.7682 13.7376 24.1762 18.5177 18.5976 22.5903C13.0128 26.663 2.4147 35.0667 2.43313 35.4358C2.75875 41.2126 25.4479 49.647 25.4479 48.6258C25.4479 48.0967 30.7194 46.1649 31.0696 45.2852C31.4198 48.9826 33.2875 52.4093 35.6406 54.784C36.8755 56.0328 39.9536 58.6228 41.6124 59.1827C45.3356 60.4377 48.0081 61.7665 51.7313 63.0277C52.1675 63.1753 52.6344 63.323 53.0829 63.2245C53.4884 63.1323 53.8202 62.8493 54.1274 62.5601C55.5097 61.2436 56.6279 59.6502 57.3959 57.8969C57.6355 57.3555 57.4635 56.7218 56.9904 56.3712L47.9283 49.7208C46.6012 48.7488 45.2004 47.6783 44.6597 46.1219C44.2297 44.873 44.4201 43.5011 44.758 42.2276C45.526 39.3362 47.0067 36.697 48.2846 33.9901C49.5625 31.2832 50.65 28.3856 50.5517 25.3957C50.4534 22.4058 49.0894 19.219 46.3493 18.0194L46.4292 17.9825L46.4353 17.9763Z" fill="#C2C1C0"/>
<path id="Vector_98" d="M54.2134 54.6671C53.6113 55.9959 53.0461 57.3494 52.3641 58.6413C51.7497 59.8102 51.0002 60.936 49.9742 61.7789C49.7346 61.9757 49.3844 61.6312 49.6301 61.4343C50.65 60.5977 51.3688 59.4964 51.9709 58.3337C52.6345 57.0602 53.1935 55.7314 53.7834 54.421C53.9124 54.1319 54.3363 54.3841 54.2073 54.6671H54.2134Z" fill="#1F203A"/>
<path id="Vector_99" d="M52.6835 60.5853C52.6097 60.6592 52.5729 60.7637 52.5729 60.8745C52.5729 60.9052 52.5729 60.936 52.5729 60.9668C52.5729 60.9237 52.5852 61.016 52.5852 61.0283C52.5913 61.0652 52.6036 61.096 52.6159 61.1267C52.6036 61.0898 52.6159 61.1267 52.6159 61.1329C52.6282 61.1513 52.6404 61.1759 52.6527 61.1944C52.6896 61.2621 52.6957 61.2621 52.7633 61.3236C52.7756 61.3359 52.794 61.3543 52.7633 61.3236C52.7818 61.3359 52.794 61.3482 52.8125 61.3543C52.8555 61.379 52.8862 61.3913 52.9108 61.4036C53.0459 61.4466 53.175 61.4528 53.304 61.4159C53.4514 61.379 53.5866 61.3113 53.691 61.2128C53.8016 61.1083 53.8938 60.9606 53.8999 60.8191C53.8999 60.7699 53.8999 60.7699 53.8938 60.733C53.8938 60.7145 53.8815 60.6961 53.8754 60.6776C53.8754 60.6899 53.8938 60.7084 53.8754 60.6776C53.8692 60.6653 53.8569 60.653 53.8508 60.6346C53.8139 60.573 53.8692 60.6469 53.8385 60.6161C53.8262 60.6038 53.8139 60.5853 53.7955 60.573C53.7955 60.573 53.7463 60.53 53.7648 60.5484C53.6788 60.4808 53.5313 60.4315 53.4269 60.4254C53.3839 60.4254 53.3408 60.4254 53.304 60.4254C53.347 60.4254 53.2856 60.4254 53.2794 60.4254C53.2487 60.4254 53.218 60.4377 53.1872 60.45C53.0889 60.4808 53.0029 60.5177 52.9108 60.573C52.7203 60.6838 52.5606 60.8253 52.3947 60.9668C52.2964 61.0529 52.1489 61.0652 52.0506 60.9668C51.9646 60.8806 51.9523 60.7084 52.0506 60.6223C52.4254 60.2962 52.8739 59.9209 53.4023 59.9394C53.8324 59.9517 54.3054 60.2162 54.3792 60.6715C54.4713 61.2128 54.0474 61.6804 53.5682 61.865C53.1442 62.0249 52.6159 61.9388 52.321 61.5758C52.0138 61.1944 51.9769 60.6099 52.321 60.2408C52.536 60.0132 52.8862 60.3577 52.665 60.5853H52.6835Z" fill="#1F203A"/>
<path id="Vector_100" d="M35.0813 52.9691C36.4391 52.7784 37.8338 53.0306 39.0318 53.7197C40.2053 54.3902 41.0961 55.4607 41.6061 56.7096C41.8887 57.4047 42.0361 58.1553 42.0484 58.912C42.0484 59.2257 41.5631 59.2257 41.5569 58.912C41.5201 56.3835 39.7629 54.1626 37.3115 53.5597C36.6296 53.3936 35.9107 53.3505 35.2103 53.449C35.0813 53.4674 34.9461 53.4182 34.9093 53.2767C34.8786 53.1598 34.9523 52.9937 35.0813 52.9753V52.9691Z" fill="#1F203A"/>
<path id="Vector_101" d="M45.2863 46.0543C43.5291 46.688 41.8089 47.4201 40.1316 48.2383C40.0702 48.0906 40.0087 47.9368 39.9411 47.7892C41.6921 47.3832 43.437 46.9833 45.188 46.5772C45.4092 46.528 45.5505 46.7433 45.4644 46.9402C45.1573 47.6169 44.6289 48.1891 44.0759 48.6751C43.3264 49.3395 42.4908 49.8993 41.6368 50.4161C41.3665 50.5822 41.1208 50.1577 41.3911 49.9916C42.2082 49.4933 43.0131 48.9642 43.7319 48.3306C44.2603 47.863 44.7518 47.3401 45.0467 46.6941L45.3231 47.0571C43.5721 47.4631 41.8273 47.863 40.0763 48.269C39.8183 48.3306 39.6278 47.9491 39.8858 47.8199C41.6 46.9833 43.3633 46.2389 45.1573 45.5868C45.4522 45.4822 45.5812 45.9559 45.2863 46.0605V46.0543Z" fill="#1F203A"/>
<path id="Vector_102" d="M38.8598 21.4524C36.6726 25.3035 34.8971 29.3823 33.5823 33.6149C32.9188 35.7435 32.3535 37.9091 31.9419 40.1053C31.518 42.357 31.2783 44.6948 31.6408 46.971C31.991 49.155 32.8757 51.2897 34.4609 52.8708C34.682 53.0923 34.338 53.443 34.1168 53.2153C32.6853 51.7881 31.776 49.9117 31.3336 47.9553C30.8237 45.7098 30.922 43.3782 31.2722 41.1204C31.6224 38.8565 32.1815 36.6171 32.8266 34.4209C33.4656 32.2492 34.2274 30.1144 35.0998 28.0289C36.0767 25.6911 37.1887 23.4149 38.4421 21.2124C38.5957 20.9356 39.0196 21.1878 38.866 21.4585L38.8598 21.4524Z" fill="#1F203A"/>
<path id="Vector_103" d="M39.9104 19.7604C40.8136 19.0345 42.0116 18.7515 43.1421 19.0283C43.4493 19.1022 43.3202 19.5759 43.0131 19.502C42.0669 19.2683 41.0224 19.4959 40.2606 20.1049C40.1562 20.1849 40.0149 20.2034 39.9166 20.1049C39.8305 20.0188 39.8121 19.8404 39.9166 19.7604H39.9104Z" fill="#1F203A"/>
<path id="Vector_104" d="M35.9169 23.7408C35.8616 24.5405 35.9538 25.3341 36.1811 26.097C36.2733 26.3984 35.8002 26.5276 35.708 26.2262C35.4684 25.4203 35.3701 24.5774 35.4254 23.7346C35.4315 23.6054 35.5298 23.4885 35.6712 23.4885C35.794 23.4885 35.9231 23.5993 35.9169 23.7346V23.7408Z" fill="#1F203A"/>
<path id="Vector_105" d="M4.52198 35.1283C5.51728 36.3464 6.59245 37.5214 7.83351 38.4996C9.14215 39.527 10.6412 40.2775 12.0973 41.0711C13.6333 41.9078 15.1693 42.7383 16.7052 43.575C18.1183 44.344 19.5191 45.1561 20.969 45.8513C21.694 46.1958 22.4436 46.5095 23.2177 46.7187C23.9488 46.9156 24.7229 47.0325 25.4786 46.8971C25.7858 46.8418 25.921 47.3155 25.6076 47.3708C24.2007 47.6231 22.763 47.1678 21.479 46.6203C20.0167 45.9989 18.6344 45.1807 17.2397 44.424C15.6669 43.5689 14.0941 42.7137 12.5213 41.8586C11.016 41.0404 9.46162 40.2714 8.06083 39.2809C6.57402 38.2227 5.32068 36.8816 4.16564 35.4728C3.96903 35.2329 4.31309 34.8822 4.50969 35.1283H4.52198Z" fill="#1F203A"/>
<path id="Vector_106" d="M22.3453 23.187C20.1458 24.8911 18.0753 26.7552 16.1523 28.7608C15.6117 29.3268 15.0771 29.9051 14.5611 30.4957C14.3522 30.7356 14.0081 30.3849 14.217 30.1511C16.054 28.0656 18.0446 26.1154 20.1704 24.319C20.7725 23.8145 21.3807 23.3224 22.0013 22.8364C22.1057 22.7564 22.247 22.7379 22.3453 22.8364C22.4313 22.9225 22.4498 23.1009 22.3453 23.1809V23.187Z" fill="#1F203A"/>
<path id="Vector_107" d="M20.7723 27.0137C20.0043 27.6842 19.2425 28.3548 18.4745 29.0254C18.3762 29.1115 18.2288 29.1238 18.1305 29.0254C18.0445 28.9392 18.0322 28.767 18.1305 28.6809C18.8985 28.0103 19.6603 27.3397 20.4283 26.6691C20.5266 26.583 20.674 26.5707 20.7723 26.6691C20.8583 26.7553 20.8706 26.9275 20.7723 27.0137Z" fill="#1F203A"/>
<path id="Vector_108" d="M21.1962 28.6562C20.3299 29.3391 19.5927 30.1696 19.0213 31.117C18.8554 31.3877 18.4315 31.1416 18.5974 30.871C19.1933 29.8928 19.9552 29.0253 20.8522 28.3117C20.9566 28.2317 21.0979 28.2133 21.1962 28.3117C21.2822 28.3978 21.3007 28.5762 21.1962 28.6562Z" fill="#1F203A"/>
<path id="Vector_109" d="M34.934 39.1578C34.7681 40.056 34.6084 40.9603 34.4425 41.8585C34.4179 41.9877 34.2582 42.0615 34.1414 42.0308C34.0063 41.9939 33.9448 41.8585 33.9694 41.7293C34.1353 40.8311 34.295 39.9268 34.4609 39.0286C34.4855 38.8994 34.6452 38.8256 34.762 38.8563C34.8971 38.8932 34.9586 39.0286 34.934 39.1578Z" fill="#1F203A"/>
<path id="Vector_110" d="M36.2916 39.6993C36.1565 40.2099 36.1257 40.7267 36.1933 41.2557C36.2118 41.3849 36.0705 41.508 35.9476 41.5018C35.8001 41.4957 35.7203 41.3911 35.7018 41.2557C35.6281 40.6959 35.6711 40.1176 35.8186 39.5701C35.8554 39.4409 35.9906 39.3671 36.1196 39.3978C36.2486 39.4347 36.3224 39.5701 36.2916 39.6993Z" fill="#1F203A"/>
<path id="Vector_111" d="M38.3621 34.4515C38.2577 35.1713 38.1594 35.8849 38.0549 36.6047C38.0365 36.7339 37.8706 36.8077 37.7539 36.7769C37.6126 36.74 37.5634 36.6047 37.5818 36.4755C37.6863 35.7557 37.7846 35.0421 37.889 34.3223C37.9075 34.1931 38.0733 34.1193 38.1901 34.15C38.3314 34.1869 38.3805 34.3223 38.3621 34.4515Z" fill="#1F203A"/>
<path id="Vector_112" d="M41.7906 38.3458C41.6677 38.9487 41.6492 39.5639 41.7168 40.1729C41.7291 40.3021 41.594 40.419 41.4711 40.419C41.3236 40.419 41.2438 40.3083 41.2253 40.1729C41.1516 39.5208 41.1885 38.8625 41.3175 38.2166C41.3421 38.0874 41.4956 38.0135 41.6185 38.0443C41.7537 38.0812 41.8151 38.2166 41.7906 38.3458Z" fill="#1F203A"/>
<path id="Vector_113" d="M45.0345 30.2681C44.8932 31.1233 44.758 31.9722 44.6167 32.8274C44.5982 32.9566 44.4324 33.0304 44.3156 32.9996C44.1743 32.9627 44.1252 32.8274 44.1436 32.6982C44.2849 31.843 44.4201 30.9941 44.5614 30.1389C44.5798 30.0097 44.7457 29.9359 44.8624 29.9667C45.0037 30.0036 45.0529 30.1389 45.0345 30.2681Z" fill="#1F203A"/>
<path id="Vector_114" d="M47.7254 24.3499C47.8053 24.799 47.8913 25.2481 47.9712 25.7034C47.9958 25.8264 47.9343 25.9741 47.7992 26.0048C47.6763 26.0294 47.5227 25.9679 47.4981 25.8326C47.4183 25.3835 47.3322 24.9344 47.2524 24.4791C47.2278 24.3561 47.2892 24.2084 47.4244 24.1777C47.5473 24.1531 47.7009 24.2146 47.7254 24.3499Z" fill="#1F203A"/>
<path id="Vector_115" d="M46.005 23.4702C45.9866 24.0116 46.0665 24.516 46.2569 25.0266C46.2999 25.1497 46.2078 25.3035 46.0849 25.3281C45.9436 25.3589 45.833 25.285 45.7839 25.1558C45.5873 24.6206 45.4951 24.0423 45.5135 23.4702C45.5135 23.341 45.6241 23.2179 45.7593 23.2241C45.8883 23.2241 46.0112 23.3348 46.005 23.4702Z" fill="#1F203A"/>
<path id="Vector_116" d="M52.4192 10.0464C52.4745 10.8031 52.5237 11.5598 52.579 12.3165C52.5851 12.4457 52.4622 12.5626 52.3332 12.5626C52.1919 12.5626 52.0997 12.4518 52.0875 12.3165C52.0322 11.5598 51.983 10.8031 51.9277 10.0464C51.9216 9.91718 52.0444 9.80029 52.1735 9.80029C52.3148 9.80029 52.4069 9.91103 52.4192 10.0464Z" fill="#7F4A28"/>
<path id="Vector_117" d="M51.3809 10.6369L52.1796 11.2522C52.2349 11.2952 52.2718 11.3321 52.2902 11.3998C52.3086 11.4613 52.2963 11.5351 52.2656 11.5905C52.2349 11.6459 52.1796 11.6889 52.1182 11.7012C52.0567 11.7136 51.983 11.7136 51.9277 11.6766L51.129 11.0614C51.0737 11.0184 51.0369 10.9815 51.0184 10.9138C51 10.8523 51.0123 10.7784 51.043 10.7231C51.0737 10.6739 51.129 10.6246 51.1905 10.6123C51.2519 10.6 51.3256 10.6 51.3809 10.6369Z" fill="#7F4A28"/>
<path id="Vector_118" opacity="0.45" d="M51.9586 21.4831L49.8206 16.2292L50.9633 21.9383L51.9586 21.4831Z" fill="#7F4A28"/>
<path id="Vector_119" d="M61.3708 17.3489C61.1373 17.8288 60.6581 18.0749 60.314 17.9026C59.9638 17.7303 59.8717 17.2013 60.1113 16.7214C60.3447 16.2415 60.824 15.9955 61.168 16.1677C61.5121 16.34 61.6104 16.8691 61.3708 17.3489Z" fill="#010101"/>
<path id="Vector_120" d="M60.2956 22.2396C59.6014 21.3845 58.3972 21.0708 57.3712 21.4645C57.2483 21.5137 57.1009 21.4091 57.0701 21.2922C57.0333 21.1507 57.1193 21.04 57.2422 20.9908C58.4095 20.5355 59.8472 20.9231 60.6336 21.889C60.7196 21.9936 60.7319 22.1351 60.6336 22.2335C60.5475 22.3196 60.3694 22.3381 60.2895 22.2335L60.2956 22.2396Z" fill="#7F4A28"/>
<path id="Vector_121" d="M62.9682 67.9985C63.1832 68.8229 63.4904 69.6103 63.8836 70.3609C64.0311 70.6377 63.6072 70.89 63.4597 70.607C63.0419 69.8195 62.7163 68.989 62.4951 68.1277C62.4153 67.8201 62.8883 67.6909 62.9682 67.9985Z" fill="#7F4A28"/>
<path id="Vector_122" d="M65.5794 67.248C65.475 68.2201 65.6347 69.1982 66.0648 70.078C66.2 70.361 65.7822 70.607 65.6409 70.324C65.1739 69.3705 64.9774 68.3 65.0879 67.248C65.1002 67.1188 65.1924 67.002 65.3337 67.002C65.4566 67.002 65.5917 67.1127 65.5794 67.248Z" fill="#7F4A28"/>
<path id="Vector_123" d="M66.9985 66.2453C67.232 67.1866 67.4655 68.1279 67.6989 69.0691C67.7726 69.3767 67.3057 69.5059 67.2258 69.1983C66.9924 68.2571 66.7589 67.3158 66.5254 66.3745C66.4517 66.0669 66.9186 65.9377 66.9985 66.2453Z" fill="#7F4A28"/>
<path id="Vector_124" d="M61.9176 68.2446C63.7424 67.3095 65.6101 66.4728 67.5208 65.7223C67.8157 65.6054 67.9386 66.0791 67.6498 66.196C65.7821 66.9281 63.9512 67.7524 62.1634 68.6691C61.8808 68.8106 61.635 68.3922 61.9176 68.2446Z" fill="#7F4A28"/>
<path id="Vector_125" d="M59.9209 61.5019C59.3987 62.3817 59.0362 63.3414 58.8458 64.3442C58.7843 64.6518 58.3112 64.5226 58.3727 64.215C58.5754 63.1753 58.9563 62.1725 59.497 61.2559C59.6567 60.9852 60.0807 61.2313 59.9209 61.5019Z" fill="#7F4A28"/>
<path id="Vector_126" d="M53.5129 9.55415C53.4023 10.4585 53.0521 11.3321 52.5176 12.0765C52.8002 12.4148 53.2057 12.6548 53.6419 12.7532C54.3546 11.0552 55.3315 9.46187 56.5296 8.04074C56.6893 7.85618 56.8675 7.65932 57.1071 7.60395C57.574 7.49937 57.9734 7.97922 58.1085 8.42832C58.2437 8.87742 58.256 9.38804 58.5632 9.75101C59.3619 10.7046 61.0514 9.72025 62.1819 10.2739C63.3369 10.8338 63.3861 12.7224 64.6271 13.0854C65.0142 13.2023 65.4381 13.1223 65.8313 13.2331C66.243 13.35 66.5686 13.6637 66.9618 13.8421C67.7052 14.1866 68.6268 13.9959 69.2842 13.5161C69.9416 13.0362 70.3593 12.3103 70.6481 11.5659C71.2379 10.034 71.2195 8.07151 69.9354 7.0072C68.4978 5.81371 66.1815 6.26896 64.6579 5.1739C64.0496 4.7371 63.638 4.10344 63.1403 3.55591C61.2234 1.45807 57.8689 0.805951 55.2516 1.93793C52.6344 3.0699 50.097 5.1985 50.2075 7.99153C50.1707 7.93001 50.2075 8.06535 50.2075 7.99153C50.2567 8.07766 51.5653 8.12687 51.6636 8.15763C52.2657 8.37911 53.2303 9.00661 53.8324 9.22809L53.5191 9.54799L53.5129 9.55415Z" fill="#010101"/>
<path id="Vector_127" d="M63.4904 14.2606C63.0849 14.2729 63.0481 14.9743 62.6548 15.0666C62.5504 15.0912 62.4398 15.0666 62.3292 15.0358C61.1803 14.7282 60.0376 14.4206 58.8887 14.1068C60.2956 13.4486 61.9544 13.3686 63.4167 13.8915L63.4843 14.2606H63.4904Z" fill="#010101"/>
<path id="Vector_128" d="M69.837 8.64988C70.2425 8.20078 70.2302 7.51791 69.9906 6.98268C69.7202 6.37978 69.1612 5.98605 68.5775 5.71536C67.914 5.40776 67.1951 5.26011 66.4947 5.06324C65.782 4.86023 65.1001 4.58954 64.5041 4.13429C63.9143 3.68519 63.4044 3.14381 62.8391 2.66395C62.2739 2.17794 61.678 1.73499 61.0328 1.36587C59.7426 0.633779 58.176 0.233897 56.7199 0.676843C55.3682 1.08903 54.2562 2.36865 54.3484 3.83284C54.3668 4.14659 53.8814 4.14659 53.8569 3.83284C53.7647 2.44248 54.6617 1.13209 55.8659 0.498434C57.3035 -0.258266 59.0484 -0.079857 60.4922 0.547651C62.0097 1.20592 63.1771 2.32559 64.3935 3.40835C64.7069 3.68519 65.0325 3.93742 65.4011 4.12814C65.7697 4.31885 66.1568 4.45419 66.5562 4.57108C67.2996 4.7864 68.0553 4.95251 68.7618 5.26626C69.5052 5.59847 70.1749 6.12755 70.4821 6.9027C70.7585 7.60404 70.6971 8.42226 70.181 8.9944C69.9721 9.22817 69.6219 8.88366 69.837 8.64988Z" fill="#010101"/>
<path id="Vector_129" d="M51.9094 6.0291C51.2643 6.20136 50.6254 6.37362 49.9803 6.54588C49.4335 6.69352 48.8805 6.85963 48.4013 7.16723C47.492 7.75167 47.1111 8.98208 47.6456 9.9541C47.9282 10.4709 48.4074 10.8523 48.9788 11.0061C49.2799 11.0861 49.1508 11.5598 48.8498 11.4798C47.6825 11.1599 46.8285 10.0341 46.9206 8.80982C46.9698 8.18232 47.2278 7.57326 47.6825 7.13032C48.1432 6.67507 48.7453 6.41668 49.3474 6.22597C50.1461 5.97374 50.9694 5.77687 51.7804 5.56155C52.0876 5.48157 52.2166 5.95528 51.9094 6.03526V6.0291Z" fill="#010101"/>
<path id="Vector_130" d="M0.208886 43.6427C1.57896 43.3474 2.94904 43.0459 4.31911 42.7506C4.49114 42.7137 4.68774 42.8675 4.62016 43.0521C4.03035 44.75 4.65702 46.5341 5.03794 48.2075C5.19768 48.9088 5.35742 49.6102 5.46187 50.3238C5.55403 50.9328 5.60318 51.5726 5.46187 52.1755C5.30213 52.8523 4.85977 53.3752 4.23924 53.6766C3.95663 53.812 3.71087 53.3875 3.99349 53.2522C4.50957 53.0061 4.85977 52.6062 4.99494 52.0464C5.1301 51.4742 5.06252 50.859 4.97036 50.2807C4.85977 49.5917 4.70618 48.9027 4.55258 48.2259C4.35598 47.3831 4.12251 46.5403 3.99349 45.6852C3.85833 44.7623 3.85218 43.8149 4.15937 42.9229L4.46042 43.2243C3.09035 43.5196 1.72027 43.8211 0.350194 44.1164C0.0430023 44.1841 -0.0860183 43.7104 0.221174 43.6427H0.208886Z" fill="#1F203A"/>
<path id="Vector_131" d="M8.44175 45.4328C9.89784 46.0849 11.7164 45.7897 12.9083 44.7315C13.1418 44.5223 13.492 44.8668 13.2524 45.076C11.8823 46.3003 9.86712 46.6017 8.196 45.8573C7.90723 45.7281 8.15913 45.3036 8.44175 45.4328Z" fill="#1F203A"/>
<path id="Vector_132" d="M0.737264 46.0973C1.55439 45.8512 2.36538 45.6051 3.18251 45.359C3.48356 45.2667 3.61258 45.7405 3.31153 45.8327C2.4944 46.0788 1.68342 46.3249 0.866285 46.571C0.565237 46.6633 0.436216 46.1895 0.737264 46.0973Z" fill="#1F203A"/>
<g id="Group_26">
<path id="Vector_133" d="M131.933 79.9272C134.962 74.5073 134.661 67.3894 131.177 62.2524C132.424 64.9901 132.762 68.1399 132.123 71.0868C131.484 74.0274 129.875 76.7528 127.602 78.7276C128.652 79.798 130.385 80.1241 131.749 79.5151L131.933 79.9334V79.9272Z" fill="#532813"/>
<path id="Vector_134" d="M123.104 96.7099C123.159 98.9308 123.209 101.17 122.785 103.354C122.355 105.532 121.402 107.679 119.731 109.143C119.147 109.654 118.158 110.035 117.685 109.426C117.433 109.106 117.47 108.633 117.642 108.263C117.814 107.894 118.091 107.581 118.318 107.242C119.504 105.44 119.037 103.053 118.521 100.955C118.078 99.1461 117.63 97.3313 117.188 95.5226C117.157 95.3996 117.126 95.2704 117.169 95.1535C117.243 94.9505 117.483 94.8766 117.698 94.8397C119.018 94.5875 120.389 94.5567 121.722 94.7474L123.11 96.7222L123.104 96.7099Z" fill="#532813"/>
<path id="Vector_135" d="M110.749 76.7896C109.778 74.9809 108.427 73.3937 106.743 72.2248C106.461 72.028 106.166 71.8434 105.865 71.6712C104.458 70.8775 102.78 70.4346 101.208 70.7976C100.12 71.0498 99.1248 71.665 98.0128 71.7696C97.0789 71.8619 96.1451 71.5789 95.3095 71.1544C94.8487 70.9206 94.2958 70.6438 93.8473 70.9083C93.6937 71.0006 93.5831 71.1421 93.4786 71.2836C93.1837 71.7019 92.9564 72.1695 92.8028 72.6555C92.7291 72.8893 92.6185 73.1476 92.6062 73.3999C92.7229 73.4552 92.6676 73.7013 92.6984 73.8121C92.7168 73.8674 92.7537 73.9228 92.7782 73.972C92.8581 74.132 92.8642 74.3104 92.8888 74.4765C92.9195 74.6733 92.9871 74.8148 93.0916 74.9809C93.1776 75.1163 93.2697 75.2516 93.3496 75.3931C93.4848 75.6331 93.5708 75.8914 93.6629 76.1437C93.6937 76.2298 93.7244 76.3159 93.749 76.4021C93.7797 76.4882 93.8104 76.5805 93.8227 76.6728C93.835 76.7835 93.8227 76.9004 93.8104 77.0111C93.7858 77.1834 93.749 77.3495 93.706 77.5217C93.6814 77.6202 93.6568 77.6448 93.706 77.7309C93.7367 77.7863 93.8165 77.8293 93.8534 77.8847C94.007 78.1062 94.1483 78.3154 94.3695 78.4753C95.8256 79.7242 97.896 80.1487 99.2047 81.5575C99.9174 82.3265 100.335 83.317 100.741 84.289C101.736 86.6883 102.129 88.7861 102.141 91.3884C102.141 92.5266 102.117 94.0461 102.338 95.1658C102.449 95.7318 100.704 102.776 99.7269 105.003C99.1064 106.418 98.449 107.882 97.3185 108.934C96.6673 109.543 95.8133 109.98 94.9409 110.115C94.0254 110.257 93.8964 111.549 94.7688 111.856C95.3648 112.065 96.0406 112.108 96.6427 111.949C98.1787 111.53 100.347 110.743 101.33 109.488C103.339 106.928 106.522 102.394 108.181 99.5952C108.47 99.1092 107.616 99.0231 108.144 99.2138L111.062 99.9582C111.308 100.044 111.56 100.143 111.732 100.34C112.033 100.69 111.953 101.219 111.855 101.675C111.437 103.576 110.54 107.168 109.717 108.934C108.801 110.89 107.339 112.674 105.293 113.462C104.869 113.628 104.624 114.102 104.771 114.532C104.943 115.043 105.502 115.025 105.957 114.963C107.401 114.772 108.912 114.557 110.092 113.696C110.903 113.099 111.486 112.25 112.051 111.413C114.804 107.353 117.569 103.274 119.584 98.8016C123.239 98.9862 124.898 98.6171 127.073 95.6702C125.267 98.3956 128.363 100.629 128.216 103.896C128.118 106.153 127.393 108.374 126.145 110.257C125.912 110.607 125.654 110.97 125.906 111.475C126.029 111.727 126.256 111.924 126.52 112.029C127.042 112.238 127.626 112.108 128.142 111.912C130.077 111.173 131.589 109.402 132.019 107.371C132.467 105.249 131.792 103.047 131.927 100.881C132.222 96.1932 136.252 92.219 135.994 87.5311C135.92 86.1407 135.459 84.7996 134.95 83.5015C133.881 80.77 132.32 77.897 129.561 76.9127C126.84 75.9407 123.59 78.9982 120.96 80.1979C119.873 80.6962 113.581 81.3422 112.008 79.152L110.755 76.8019L110.749 76.7896Z" fill="#A95C35"/>
<path id="Vector_136" d="M99.4381 72.594C100.458 72.2864 101.748 72.0465 102.436 72.8647C102.621 73.0801 102.731 73.3446 102.817 73.6153C103.192 74.7227 103.235 75.9961 102.657 77.0112C102.399 77.4603 102.031 77.8356 101.588 78.1063C100.569 78.7215 99.1739 78.66 98.2216 77.9402C97.2693 77.2265 96.8147 75.8977 97.1464 74.7473C97.4721 73.5968 98.5657 72.7109 99.7576 72.6371L99.4381 72.6002V72.594Z" fill="#D28C6B"/>
<path id="Vector_137" d="M107.493 75.7807C107.204 75.3869 106.854 75.0424 106.424 74.8086C106.276 74.7287 106.086 74.6671 105.951 74.7656C105.858 74.8333 105.834 74.9624 105.809 75.0732C105.693 75.6884 105.662 76.5251 105.269 77.0418C104.777 77.7493 103.966 78.4014 103.186 78.6967C101.631 79.2873 99.9665 79.6872 98.664 80.7208C97.3615 81.7543 96.5628 83.6922 97.4352 85.1072C97.9697 85.9746 98.9834 86.4237 99.9787 86.6575C100.968 86.8912 102.006 86.9589 102.959 87.3096C104.064 87.7156 105.17 88.5092 106.301 88.1893C108.119 87.6787 108.556 85.1195 108.844 83.5507C109.299 81.1329 108.973 78.7213 107.904 76.4943C107.788 76.2482 107.646 76.0083 107.487 75.7868L107.493 75.7807Z" fill="#532813"/>
<path id="Vector_138" d="M99.4935 73.9228C99.2661 74.2735 99.4504 74.8026 99.9112 75.104C100.139 75.2578 100.427 75.344 100.704 75.2947C100.95 75.2517 101.122 75.0794 101.3 74.9195C101.343 74.8826 101.38 74.8333 101.41 74.7903C101.459 74.7226 101.515 74.6549 101.564 74.5873C101.595 74.5442 101.632 74.495 101.625 74.4396C101.625 74.3596 101.539 74.3104 101.472 74.2797C101.33 74.212 101.189 74.1382 101.048 74.0705C100.931 74.009 100.845 73.9105 100.735 73.8367C100.274 73.5353 99.7146 73.5722 99.4873 73.9228H99.4935Z" fill="#010101"/>
<path id="Vector_139" d="M124.069 78.8752C124.038 79.921 124.8 80.8008 125.359 81.6805C126.864 84.0552 126.962 87.4327 125.113 89.5551C124.572 90.1765 123.811 90.6932 123 90.6132C121.218 90.4348 120.72 87.7956 119.037 87.1989C117.704 86.7252 116.186 87.7403 114.853 87.2727C113.851 86.922 113.286 85.8147 113.237 84.7565C113.194 83.6984 113.569 82.671 113.937 81.6805C114.116 81.2068 114.355 80.6716 114.841 80.5424C115.099 80.4685 115.375 80.5362 115.639 80.5854C117.439 80.9361 119.731 80.3947 124.198 78.2969L124.069 78.8813V78.8752Z" fill="#D28C6B"/>
<path id="Vector_140" d="M111.806 100.038C109.889 99.4354 107.861 99.0786 106.073 98.1127C105.312 97.7005 104.611 97.1838 104.04 96.5316C103.425 95.8242 103.045 94.9752 102.83 94.0647C102.584 93.0065 102.553 91.9176 102.528 90.841C102.522 90.5211 102.025 90.5211 102.031 90.841C102.08 92.7912 102.172 94.889 103.382 96.507C104.538 98.045 106.319 98.9125 108.107 99.4908C109.287 99.8722 110.491 100.149 111.67 100.518C111.978 100.617 112.107 100.131 111.806 100.038Z" fill="#532813"/>
<path id="Vector_141" d="M96.0775 110.306C95.586 110.595 95.1866 111.038 94.9593 111.561C94.9101 111.678 94.9224 111.832 95.0514 111.905C95.162 111.961 95.3341 111.942 95.3955 111.813C95.4446 111.696 95.5061 111.579 95.5737 111.475C95.6105 111.419 95.6474 111.37 95.6843 111.315C95.7027 111.29 95.7027 111.29 95.6843 111.315C95.6904 111.303 95.7027 111.29 95.715 111.278C95.7334 111.253 95.758 111.229 95.7826 111.198C95.8686 111.106 95.9546 111.013 96.0529 110.933C96.0652 110.921 96.0775 110.915 96.0897 110.903C96.0959 110.896 96.145 110.853 96.0959 110.896C96.1205 110.878 96.145 110.86 96.1696 110.841C96.2249 110.804 96.2802 110.767 96.3416 110.73C96.4522 110.663 96.5014 110.503 96.4338 110.386C96.3601 110.275 96.2126 110.226 96.0897 110.294L96.0775 110.306Z" fill="#532813"/>
<path id="Vector_142" d="M94.9653 110.226C94.7564 110.515 94.5475 110.798 94.3386 111.087C94.3017 111.136 94.2956 111.223 94.314 111.278C94.3324 111.333 94.3755 111.401 94.4308 111.426C94.486 111.456 94.5598 111.469 94.6212 111.45C94.6888 111.432 94.7318 111.389 94.7687 111.333C94.9776 111.044 95.1864 110.761 95.3953 110.472C95.4322 110.423 95.4383 110.337 95.4199 110.281C95.4015 110.226 95.3585 110.158 95.3032 110.134C95.2479 110.103 95.1742 110.091 95.1127 110.109C95.0451 110.127 95.0021 110.171 94.9653 110.226Z" fill="#532813"/>
<path id="Vector_143" d="M106.762 113.401C106.356 113.64 106.098 114.083 106.073 114.551C106.073 114.68 106.19 114.809 106.325 114.803C106.467 114.797 106.571 114.692 106.577 114.551C106.577 114.526 106.577 114.502 106.577 114.483C106.577 114.446 106.577 114.502 106.577 114.508C106.577 114.502 106.577 114.483 106.577 114.471C106.583 114.428 106.596 114.385 106.608 114.342C106.614 114.317 106.62 114.299 106.633 114.274C106.633 114.268 106.651 114.225 106.633 114.262C106.614 114.305 106.633 114.262 106.633 114.256C106.651 114.213 106.669 114.176 106.694 114.139C106.706 114.12 106.719 114.102 106.731 114.083C106.743 114.065 106.792 114.01 106.743 114.065C106.774 114.034 106.798 113.997 106.829 113.967C106.86 113.936 106.897 113.911 106.927 113.88C106.915 113.893 106.884 113.911 106.915 113.893C106.927 113.887 106.934 113.88 106.946 113.874C106.964 113.862 106.983 113.85 107.007 113.837C107.118 113.77 107.167 113.61 107.1 113.493C107.026 113.382 106.878 113.333 106.755 113.401H106.762Z" fill="#532813"/>
<path id="Vector_144" d="M105.686 113.345C105.41 113.696 105.213 114.108 105.152 114.551C105.14 114.619 105.14 114.68 105.176 114.742C105.207 114.791 105.269 114.84 105.324 114.859C105.441 114.883 105.613 114.822 105.631 114.686C105.643 114.588 105.668 114.489 105.693 114.397C105.705 114.348 105.723 114.305 105.736 114.256C105.742 114.231 105.754 114.206 105.76 114.188C105.76 114.182 105.791 114.114 105.779 114.151C105.76 114.188 105.791 114.12 105.797 114.114C105.809 114.09 105.815 114.071 105.828 114.046C105.852 114.003 105.871 113.96 105.901 113.917C105.926 113.874 105.951 113.831 105.981 113.794C105.994 113.776 106.012 113.751 106.024 113.733C106.03 113.72 106.037 113.714 106.049 113.702C106.03 113.727 106.024 113.733 106.049 113.708C106.092 113.653 106.123 113.604 106.123 113.53C106.123 113.468 106.098 113.394 106.049 113.351C105.957 113.271 105.785 113.241 105.699 113.351L105.686 113.345Z" fill="#532813"/>
<path id="Vector_145" d="M128.486 109.592C127.927 109.875 127.509 110.429 127.386 111.038C127.362 111.167 127.423 111.315 127.558 111.346C127.681 111.377 127.841 111.309 127.866 111.173C127.878 111.106 127.896 111.038 127.915 110.977C127.927 110.94 127.939 110.909 127.952 110.878C127.952 110.872 127.976 110.823 127.958 110.854C127.946 110.884 127.964 110.835 127.97 110.829C128.025 110.706 128.099 110.589 128.179 110.478C128.161 110.503 128.167 110.497 128.179 110.478C128.191 110.466 128.197 110.454 128.21 110.441C128.228 110.417 128.253 110.392 128.277 110.368C128.326 110.318 128.376 110.269 128.425 110.226C128.437 110.214 128.449 110.208 128.462 110.195C128.511 110.152 128.419 110.226 128.474 110.189C128.498 110.171 128.529 110.152 128.554 110.134C128.615 110.097 128.677 110.06 128.738 110.029C128.855 109.968 128.898 109.795 128.83 109.685C128.75 109.568 128.615 109.531 128.486 109.592Z" fill="#532813"/>
<path id="Vector_146" d="M127.251 109.599C126.803 110.177 126.532 110.841 126.452 111.567C126.44 111.703 126.575 111.819 126.704 111.819C126.852 111.819 126.938 111.703 126.956 111.567C126.987 111.29 127.067 110.977 127.177 110.7C127.276 110.448 127.442 110.165 127.607 109.949C127.687 109.845 127.712 109.697 127.607 109.599C127.521 109.512 127.337 109.494 127.257 109.599H127.251Z" fill="#532813"/>
<path id="Vector_147" d="M126.803 97.1468C127.012 94.2185 128.394 91.4254 130.532 89.426C131.14 88.8539 131.816 88.3556 132.535 87.9311C132.811 87.7711 132.56 87.3343 132.283 87.5004C129.635 89.0508 127.644 91.6469 126.766 94.5876C126.52 95.4181 126.36 96.2794 126.299 97.1468C126.274 97.4667 126.772 97.4667 126.797 97.1468H126.803Z" fill="#532813"/>
<path id="Vector_148" d="M119.664 99.5892C120.364 98.5002 121.083 97.3806 121.396 96.1071C121.74 94.7352 121.507 93.3264 121.077 92.0037C120.978 91.6961 120.499 91.8314 120.597 92.139C121.003 93.4002 121.242 94.7413 120.898 96.0517C120.579 97.2514 119.897 98.3095 119.233 99.3431C119.061 99.6138 119.492 99.866 119.664 99.5953V99.5892Z" fill="#532813"/>
<path id="Vector_149" d="M114.066 91.7575C114.06 92.791 114.054 93.8307 113.931 94.8581C113.864 95.4426 113.722 95.9532 113.507 96.4946C112.973 97.8296 112.352 99.1276 111.928 100.506C111.689 101.287 111.504 102.105 111.492 102.923C111.492 103.243 111.984 103.243 111.99 102.923C112.014 101.435 112.592 99.9766 113.151 98.6232C113.612 97.5097 114.22 96.4084 114.386 95.2088C114.546 94.0645 114.558 92.9141 114.564 91.7575C114.564 91.4376 114.066 91.4376 114.066 91.7575Z" fill="#532813"/>
<path id="Vector_150" d="M106.583 93.2341C106.651 93.6524 106.718 94.0708 106.786 94.4953C106.804 94.6244 106.976 94.7106 107.093 94.6675C107.235 94.6244 107.29 94.5014 107.265 94.3599C107.198 93.9416 107.13 93.5232 107.063 93.0987C107.044 92.9695 106.872 92.8834 106.755 92.9265C106.614 92.9695 106.559 93.0926 106.583 93.2341Z" fill="#532813"/>
<path id="Vector_151" d="M105.471 94.0154C105.52 94.3845 105.57 94.7475 105.613 95.1166C105.619 95.1843 105.637 95.2397 105.686 95.295C105.729 95.3381 105.803 95.3689 105.865 95.3689C105.987 95.3689 106.135 95.2581 106.116 95.1166C106.067 94.7475 106.018 94.3845 105.975 94.0154C105.969 93.9477 105.951 93.8924 105.901 93.837C105.858 93.7939 105.785 93.7632 105.723 93.7632C105.6 93.7632 105.453 93.8739 105.471 94.0154Z" fill="#532813"/>
<path id="Vector_152" d="M104.003 91.9482C104.083 92.1451 104.144 92.3481 104.193 92.5573C104.218 92.6557 104.236 92.7603 104.249 92.8587C104.249 92.8895 104.249 92.8895 104.249 92.8587C104.249 92.871 104.249 92.8833 104.249 92.8956C104.249 92.9202 104.249 92.951 104.255 92.9756C104.255 93.031 104.261 93.0863 104.267 93.1417C104.273 93.2709 104.378 93.4001 104.519 93.394C104.648 93.394 104.777 93.2832 104.771 93.1417C104.746 92.6865 104.654 92.2374 104.482 91.8129C104.433 91.6898 104.316 91.5914 104.175 91.6406C104.058 91.6775 103.948 91.819 104.003 91.9482Z" fill="#532813"/>
<path id="Vector_153" d="M101.84 71.2837C101.656 71.5421 101.466 71.8066 101.281 72.065C101.232 72.1327 101.183 72.2065 101.201 72.2865C101.214 72.3664 101.281 72.4157 101.349 72.4649C101.49 72.5695 101.632 72.674 101.779 72.7786C102.529 73.3262 103.284 73.8737 104.052 74.3966C103.843 73.0739 103.057 71.8497 101.945 71.0991L101.847 71.2837H101.84Z" fill="#010101"/>
<path id="Vector_154" d="M126.575 76.7529C126.809 77.1958 126.84 77.7187 126.668 78.2047C126.625 78.3278 126.717 78.4816 126.84 78.5123C126.981 78.5431 127.098 78.4693 127.147 78.3401C127.362 77.7433 127.307 77.0666 127.006 76.5006C126.944 76.3837 126.778 76.3468 126.661 76.4083C126.539 76.476 126.508 76.6298 126.569 76.7529H126.575Z" fill="#A95C35"/>
<path id="Vector_155" d="M125.685 76.9189C125.777 77.411 125.758 77.9401 125.648 78.4261C125.617 78.5553 125.685 78.703 125.82 78.7337C125.949 78.7645 126.096 78.6968 126.127 78.5615C126.262 77.977 126.268 77.3741 126.164 76.7835C126.139 76.6482 125.979 76.5744 125.857 76.6113C125.715 76.6482 125.66 76.7835 125.685 76.9189Z" fill="#A95C35"/>
<path id="Vector_156" d="M135.177 81.1329C135.109 81.2744 135.035 81.4098 134.943 81.539C134.919 81.5697 134.9 81.6005 134.876 81.6313C134.833 81.6866 134.906 81.5943 134.863 81.6436C134.851 81.662 134.839 81.6743 134.827 81.6928C134.777 81.7543 134.728 81.8097 134.673 81.8589C134.618 81.9142 134.562 81.9635 134.507 82.0127C134.476 82.0373 134.446 82.0619 134.421 82.0865C134.409 82.0988 134.409 82.0927 134.433 82.0804C134.396 82.1111 134.378 82.1173 134.366 82.1296C134.237 82.2219 134.095 82.3018 133.954 82.3695C133.837 82.4249 133.794 82.6033 133.862 82.714C133.942 82.8371 134.077 82.8617 134.206 82.8063C134.814 82.511 135.324 82.0004 135.613 81.3852C135.668 81.2683 135.65 81.1083 135.521 81.0407C135.41 80.9853 135.238 81.0038 135.177 81.1329Z" fill="#A95C35"/>
<path id="Vector_157" d="M134.464 80.8562C134.384 80.9546 134.298 81.0469 134.206 81.1268C134.163 81.1699 134.114 81.2068 134.065 81.2437C134.034 81.2683 134.046 81.256 134.065 81.2437C134.052 81.2499 134.04 81.2622 134.034 81.2683C134.009 81.2868 133.979 81.3053 133.954 81.3299C133.856 81.3975 133.745 81.4591 133.641 81.5144C133.61 81.5267 133.579 81.5452 133.549 81.5575C133.536 81.5575 133.524 81.5698 133.512 81.5759C133.469 81.5944 133.536 81.5698 133.512 81.5759C133.45 81.6006 133.389 81.6252 133.334 81.6436C133.211 81.6867 133.119 81.8159 133.162 81.9512C133.198 82.0743 133.334 82.1665 133.469 82.1235C133.997 81.9451 134.483 81.6313 134.839 81.2007C134.925 81.1022 134.943 80.9423 134.839 80.85C134.747 80.7639 134.575 80.7454 134.489 80.85L134.464 80.8562Z" fill="#A95C35"/>
<path id="Vector_158" d="M107.634 73.4369C107.007 72.9386 106.786 72.0773 106.725 71.2775C106.663 70.4778 106.718 69.6534 106.479 68.8844C106.387 68.5768 106.209 68.2569 105.895 68.1769C105.453 68.0662 105.072 68.5091 104.906 68.9336C104.679 69.518 104.623 70.164 104.752 70.7731C104.752 69.8995 104.415 69.032 103.831 68.3861C103.782 68.3307 103.726 68.2692 103.653 68.2507C103.468 68.2015 103.321 68.4168 103.266 68.6014C103.124 69.0566 103.143 69.5611 103.309 70.0102C103.087 69.9179 102.922 69.7334 102.713 69.6226C102.504 69.5119 102.184 69.518 102.086 69.7395C102.012 69.9056 102.104 70.0902 102.203 70.2378C102.854 71.2283 103.905 71.9419 105.06 72.188L107.634 73.443V73.4369Z" fill="#A95C35"/>
<path id="Vector_159" d="M106.479 72.4772C106.479 71.7328 106.276 70.9946 105.908 70.3486C105.834 70.2194 105.619 70.1764 105.514 70.2994C105.109 70.7731 104.949 71.4129 105.097 72.022C105.256 71.9789 105.416 71.9358 105.576 71.8866C105.422 71.5052 105.226 71.1422 104.937 70.8408C104.679 70.5762 104.323 70.3056 103.929 70.3425C103.727 70.3609 103.548 70.4594 103.444 70.6378C103.333 70.8285 103.34 71.0623 103.389 71.2653C103.487 71.6713 103.727 72.0527 103.997 72.3603C104.212 72.6003 104.562 72.2496 104.347 72.0097C104.151 71.7882 103.991 71.5237 103.899 71.2468C103.843 71.0869 103.788 70.8162 104.028 70.8408C104.286 70.8715 104.507 71.0992 104.66 71.2837C104.845 71.4991 104.986 71.7574 105.091 72.0158C105.14 72.1389 105.256 72.2311 105.398 72.1881C105.533 72.1512 105.607 72.0097 105.57 71.8805C105.465 71.4498 105.57 70.9761 105.859 70.6439C105.729 70.6255 105.6 70.6132 105.465 70.5947C105.791 71.1668 105.969 71.8128 105.969 72.4711C105.969 72.791 106.467 72.791 106.467 72.4711L106.479 72.4772Z" fill="#532813"/>
<path id="Vector_160" d="M111.965 88.9646C111.99 89.0076 112.014 89.0507 112.039 89.0999C112.045 89.1122 112.051 89.1245 112.057 89.143C112.07 89.1737 112.057 89.1368 112.051 89.1245C112.057 89.1491 112.07 89.1737 112.082 89.2045C112.119 89.3029 112.137 89.4014 112.156 89.5059C112.156 89.4813 112.156 89.4629 112.15 89.4383C112.162 89.5305 112.168 89.6167 112.162 89.709C112.162 89.8381 112.279 89.9673 112.414 89.9612C112.555 89.955 112.66 89.8505 112.666 89.709C112.678 89.3644 112.592 89.0138 112.414 88.7123C112.346 88.6016 112.187 88.5462 112.07 88.62C111.959 88.6939 111.91 88.8415 111.978 88.9646H111.965Z" fill="#532813"/>
<path id="Vector_161" d="M110.3 88.5771C110.313 88.6263 110.319 88.6755 110.325 88.7247C110.325 88.7493 110.331 88.7801 110.337 88.8047C110.331 88.7616 110.337 88.8108 110.337 88.8293C110.35 88.9216 110.356 89.02 110.362 89.1123C110.368 89.303 110.362 89.4999 110.344 89.6906C110.331 89.8198 110.466 89.9428 110.595 89.9428C110.743 89.9367 110.829 89.8321 110.847 89.6906C110.89 89.2722 110.866 88.8539 110.786 88.4479C110.761 88.3187 110.602 88.2325 110.479 88.2756C110.344 88.3187 110.276 88.4479 110.307 88.5832L110.3 88.5771Z" fill="#532813"/>
<path id="Vector_162" d="M116.819 99.8782C116.788 100.094 116.739 100.303 116.678 100.512C116.647 100.61 116.61 100.715 116.567 100.813C116.567 100.826 116.561 100.832 116.555 100.844C116.567 100.82 116.567 100.82 116.555 100.844C116.542 100.869 116.53 100.893 116.524 100.918C116.499 100.967 116.475 101.023 116.45 101.072C116.389 101.189 116.413 101.349 116.542 101.416C116.659 101.478 116.819 101.453 116.887 101.324C117.095 100.912 117.243 100.469 117.31 100.014C117.323 99.9459 117.323 99.8844 117.286 99.8229C117.255 99.7737 117.194 99.7244 117.138 99.706C117.022 99.6814 116.85 99.7429 116.831 99.8782H116.819Z" fill="#532813"/>
<path id="Vector_163" d="M115.467 100.795C115.467 101.004 115.467 101.213 115.461 101.422C115.461 101.552 115.578 101.681 115.713 101.675C115.848 101.675 115.959 101.564 115.965 101.422C115.965 101.213 115.965 101.004 115.971 100.795C115.971 100.666 115.854 100.537 115.719 100.543C115.584 100.543 115.473 100.653 115.467 100.795Z" fill="#532813"/>
<path id="Vector_164" d="M118.717 96.1378C118.65 96.507 118.576 96.8699 118.508 97.239C118.484 97.3682 118.545 97.5159 118.681 97.5467C118.803 97.5774 118.963 97.5097 118.988 97.3744C119.055 97.0053 119.129 96.6423 119.197 96.2732C119.221 96.144 119.16 95.9963 119.025 95.9656C118.902 95.9348 118.742 96.0025 118.717 96.1378Z" fill="#532813"/>
<path id="Vector_165" d="M117.802 95.8855C117.765 96.1993 117.735 96.513 117.698 96.8206C117.692 96.8822 117.728 96.956 117.771 96.9991C117.814 97.0421 117.888 97.0729 117.95 97.0729C118.011 97.0729 118.079 97.0483 118.128 96.9991C118.177 96.9498 118.195 96.8945 118.201 96.8206C118.238 96.5069 118.269 96.1931 118.306 95.8855C118.312 95.824 118.275 95.7502 118.232 95.7071C118.189 95.6641 118.115 95.6333 118.054 95.6333C117.993 95.6333 117.925 95.6579 117.876 95.7071C117.827 95.7563 117.808 95.8117 117.802 95.8855Z" fill="#532813"/>
<path id="Vector_166" d="M130.096 94.7044C129.985 94.9997 129.924 95.3135 129.918 95.6272C129.918 95.7564 130.034 95.8856 130.17 95.8794C130.311 95.8733 130.415 95.7687 130.422 95.6272C130.422 95.5349 130.434 95.4488 130.446 95.3565C130.446 95.3811 130.446 95.3996 130.44 95.4242C130.471 95.2212 130.52 95.0243 130.587 94.8336C130.612 94.7782 130.587 94.6921 130.563 94.6429C130.532 94.5937 130.471 94.5444 130.415 94.526C130.274 94.4952 130.157 94.5691 130.108 94.6982L130.096 94.7044Z" fill="#532813"/>
<path id="Vector_167" d="M128.904 95.0735C128.824 95.3073 128.744 95.5411 128.67 95.781C128.627 95.904 128.72 96.0578 128.842 96.0886C128.978 96.1193 129.107 96.0455 129.15 95.9163C129.229 95.6826 129.309 95.4488 129.383 95.2088C129.426 95.0858 129.334 94.932 129.211 94.9012C129.076 94.8705 128.947 94.9443 128.904 95.0735Z" fill="#532813"/>
<path id="Vector_168" d="M127.731 95.7627C127.731 96.0765 127.724 96.3902 127.718 96.704C127.718 96.8332 127.835 96.9623 127.97 96.9562C128.105 96.9562 128.216 96.8455 128.222 96.704C128.222 96.3902 128.228 96.0765 128.234 95.7627C128.234 95.6335 128.118 95.5043 127.982 95.5105C127.847 95.5105 127.737 95.6212 127.731 95.7627Z" fill="#532813"/>
<path id="Vector_169" d="M128.093 98.3403C128.142 98.5003 128.185 98.6664 128.21 98.8325C128.21 98.8448 128.222 98.9186 128.21 98.8509C128.21 98.8694 128.21 98.8878 128.216 98.9063C128.216 98.9494 128.222 98.9863 128.228 99.0293C128.234 99.1155 128.24 99.2016 128.24 99.2877C128.24 99.4169 128.357 99.5461 128.492 99.54C128.627 99.54 128.744 99.4292 128.744 99.2877C128.744 98.9186 128.689 98.5556 128.578 98.205C128.541 98.0819 128.4 97.9897 128.271 98.0327C128.148 98.0758 128.056 98.205 128.099 98.3403H128.093Z" fill="#532813"/>
<path id="Vector_170" d="M131.884 84.2705C131.951 84.615 132.019 84.9533 132.087 85.2979C132.111 85.427 132.271 85.5132 132.394 85.4701C132.529 85.427 132.596 85.2979 132.566 85.1625L132.363 84.1351C132.338 84.0059 132.179 83.9198 132.056 83.9629C131.921 84.0059 131.853 84.1351 131.884 84.2705Z" fill="#532813"/>
<path id="Vector_171" d="M130.747 84.7442C130.747 84.898 130.747 85.0579 130.747 85.2117C130.747 85.2733 130.778 85.3409 130.821 85.3901C130.864 85.4394 130.938 85.464 130.999 85.464C131.06 85.464 131.128 85.4394 131.177 85.3901C131.22 85.3409 131.251 85.2794 131.251 85.2117C131.251 85.0579 131.251 84.898 131.251 84.7442C131.251 84.6827 131.22 84.615 131.177 84.5658C131.134 84.5227 131.06 84.4919 130.999 84.4919C130.938 84.4919 130.87 84.5166 130.821 84.5658C130.778 84.615 130.747 84.6765 130.747 84.7442Z" fill="#532813"/>
<path id="Vector_172" d="M129.365 81.9143C129.266 82.1849 129.254 82.4741 129.303 82.7571C129.316 82.8125 129.371 82.8801 129.42 82.9047C129.475 82.9355 129.555 82.9478 129.61 82.9294C129.672 82.9109 129.727 82.874 129.758 82.8125C129.789 82.7509 129.795 82.6894 129.782 82.6217C129.782 82.6094 129.782 82.5971 129.782 82.5848C129.782 82.6094 129.782 82.6279 129.789 82.6525C129.77 82.5295 129.77 82.4003 129.789 82.2772C129.789 82.3018 129.789 82.3203 129.782 82.3449C129.795 82.2465 129.819 82.148 129.856 82.0558C129.875 82.0004 129.856 81.9143 129.832 81.8651C129.801 81.8158 129.739 81.7666 129.684 81.7482C129.543 81.7174 129.426 81.7912 129.377 81.9204L129.365 81.9143Z" fill="#532813"/>
<path id="Vector_173" d="M102.43 101.662C102.43 101.755 102.43 101.847 102.43 101.939C102.43 101.958 102.43 101.976 102.43 102.001C102.43 102.013 102.418 102.099 102.43 102.031C102.43 102.074 102.418 102.118 102.412 102.161C102.393 102.247 102.375 102.333 102.344 102.419C102.332 102.462 102.313 102.505 102.301 102.548C102.301 102.554 102.27 102.622 102.301 102.561C102.289 102.585 102.283 102.61 102.27 102.634C102.215 102.751 102.233 102.911 102.363 102.979C102.473 103.034 102.645 103.016 102.707 102.887C102.885 102.505 102.977 102.087 102.958 101.668C102.958 101.539 102.848 101.41 102.707 101.416C102.578 101.416 102.449 101.527 102.455 101.668L102.43 101.662Z" fill="#532813"/>
<path id="Vector_174" d="M101.607 101.656C101.607 101.749 101.607 101.841 101.594 101.933C101.594 101.909 101.594 101.89 101.601 101.865C101.582 102.001 101.545 102.136 101.49 102.265C101.496 102.247 101.508 102.228 101.515 102.204C101.502 102.241 101.484 102.271 101.465 102.302C101.404 102.419 101.429 102.579 101.558 102.647C101.674 102.708 101.834 102.684 101.902 102.554C102.043 102.278 102.117 101.964 102.104 101.65C102.104 101.521 101.994 101.392 101.853 101.398C101.724 101.398 101.594 101.509 101.601 101.65L101.607 101.656Z" fill="#532813"/>
<path id="Vector_175" d="M92.9993 73.1169C92.9501 73.2523 92.901 73.3876 92.9133 73.5353C92.9256 73.806 93.0669 74.0151 93.1099 74.2797C93.1529 74.5442 93.1345 74.8088 93.159 75.0733C93.2573 76.0699 94.2895 76.3099 95.1128 76.3775C95.6596 76.4206 96.7409 76.519 96.5074 77.3311" stroke="#532813" stroke-miterlimit="10" stroke-linecap="round"/>
<path id="Vector_176" d="M92.8888 73.6584C93.0424 73.0863 93.8349 73.0309 94.4001 73.2032C94.9654 73.3754 95.5982 73.6461 96.102 73.3447C96.6426 73.0186 96.6549 72.1819 96.2863 71.6713C95.9238 71.1546 95.3094 70.8839 94.7319 70.6378C94.4124 70.5024 94.0377 70.3609 93.7182 70.5086C93.5339 70.5947 93.3987 70.7608 93.2758 70.9269C92.9379 71.3699 92.6 71.8251 92.4587 72.3604C92.3174 72.8956 92.4218 73.5354 92.858 73.8738L92.8826 73.6646L92.8888 73.6584Z" fill="#010101"/>
</g>
</g>
</g>
</g>
</g>
</g>
<defs>
<clipPath id="clip0_3499_1014">
<rect width="136" height="115" fill="white"/>
</clipPath>
</defs>
</svg>
