<svg width="26" height="24" viewBox="0 0 26 24" fill="none" xmlns="http://www.w3.org/2000/svg">
<g id="history_edu-24px (1) 1">
<g id="Group">
<g id="Group_2">
<path id="Vector" d="M9.90323 4V5.38C9.04645 5.05 8.12775 4.88 7.20904 4.88C5.3613 4.88 3.51356 5.56 2.09937 6.93L5.53678 10.26H6.68259V11.37C7.57033 12.23 8.72645 12.68 9.8929 12.73V15H6.80646V18C6.80646 19.1 7.73549 20 8.87097 20H19.1935C20.9071 20 22.2903 18.66 22.2903 17V4H9.90323ZM8.75742 10.41V8.26H6.40388L5.33033 7.22C5.91872 7 6.55872 6.88 7.20904 6.88C8.59226 6.88 9.88258 7.4 10.8632 8.34L12.3187 9.75L12.1123 9.95C11.5858 10.46 10.8839 10.75 10.1303 10.75C9.64516 10.75 9.17033 10.63 8.75742 10.41ZM20.2258 17C20.2258 17.55 19.7613 18 19.1935 18C18.6258 18 18.1613 17.55 18.1613 17V15H11.9677V12.41C12.5561 12.18 13.1032 11.84 13.5781 11.38L13.7845 11.18L16.7058 14H18.1613V12.59L11.9677 6.62V6H20.2258V17Z" fill="#273892"/>
</g>
</g>
</g>
</svg>
