<svg width="26" height="24" viewBox="0 0 26 24" fill="none" xmlns="http://www.w3.org/2000/svg">
<g id="history_edu-24px (1) 1">
<g id="Group">
<g id="Group_2">
<path id="Vector" d="M9.90311 4V5.38C9.04633 5.05 8.12762 4.88 7.20891 4.88C5.36118 4.88 3.51344 5.56 2.09924 6.93L5.53666 10.26H6.68246V11.37C7.57021 12.23 8.72633 12.68 9.89278 12.73V15H6.80633V18C6.80633 19.1 7.73537 20 8.87085 20H19.1934C20.907 20 22.2902 18.66 22.2902 17V4H9.90311ZM8.7573 10.41V8.26H6.40375L5.33021 7.22C5.91859 7 6.55859 6.88 7.20891 6.88C8.59214 6.88 9.88246 7.4 10.8631 8.34L12.3186 9.75L12.1121 9.95C11.5857 10.46 10.8837 10.75 10.1302 10.75C9.64504 10.75 9.1702 10.63 8.7573 10.41ZM20.2257 17C20.2257 17.55 19.7612 18 19.1934 18C18.6257 18 18.1612 17.55 18.1612 17V15H11.9676V12.41C12.556 12.18 13.1031 11.84 13.5779 11.38L13.7844 11.18L16.7057 14H18.1612V12.59L11.9676 6.62V6H20.2257V17Z" fill="#747779"/>
</g>
</g>
</g>
</svg>
