<svg width="26" height="24" viewBox="0 0 26 24" fill="none" xmlns="http://www.w3.org/2000/svg">
<g id="Icons">
<path id="Vector" d="M21.2581 10.0001H15.0645V4.00008C15.0645 3.26383 14.4482 2.66675 13.6882 2.66675H12.3118C11.5518 2.66675 10.9355 3.26383 10.9355 4.00008V10.0001H4.74194C3.98194 10.0001 3.3656 10.5972 3.3656 11.3334V12.6667C3.3656 13.403 3.98194 14.0001 4.74194 14.0001H10.9355V20.0001C10.9355 20.7363 11.5518 21.3334 12.3118 21.3334H13.6882C14.4482 21.3334 15.0645 20.7363 15.0645 20.0001V14.0001H21.2581C22.0181 14.0001 22.6344 13.403 22.6344 12.6667V11.3334C22.6344 10.5972 22.0181 10.0001 21.2581 10.0001Z" fill="#747779"/>
</g>
</svg>
