<svg width="26" height="24" viewBox="0 0 26 24" fill="none" xmlns="http://www.w3.org/2000/svg">
<g id="Icons">
<path id="Vector" d="M21.2581 9.99984H15.0645V3.99984C15.0645 3.26359 14.4482 2.6665 13.6882 2.6665H12.3118C11.5518 2.6665 10.9355 3.26359 10.9355 3.99984V9.99984H4.74194C3.98194 9.99984 3.3656 10.5969 3.3656 11.3332V12.6665C3.3656 13.4028 3.98194 13.9998 4.74194 13.9998H10.9355V19.9998C10.9355 20.7361 11.5518 21.3332 12.3118 21.3332H13.6882C14.4482 21.3332 15.0645 20.7361 15.0645 19.9998V13.9998H21.2581C22.0181 13.9998 22.6344 13.4028 22.6344 12.6665V11.3332C22.6344 10.5969 22.0181 9.99984 21.2581 9.99984Z" fill="#273892"/>
</g>
</svg>
